<svg width="146" height="146" viewBox="0 0 146 146" fill="none" xmlns="http://www.w3.org/2000/svg">
    <path
        d="M130.429 75.4795C132.004 75.4795 133.28 74.2028 133.28 72.6279C133.28 71.0531 132.004 69.7764 130.429 69.7764C128.854 69.7764 127.577 71.0531 127.577 72.6279C127.577 74.2028 128.854 75.4795 130.429 75.4795Z"
        fill="#126CAB" />
    <path
        d="M143.143 26.6907H133.285V17.1668C133.285 16.3036 132.895 15.4864 132.223 14.944C131.552 14.4016 130.671 14.1918 129.827 14.3737L72.9304 26.6249L16.1743 14.374C15.3306 14.1923 14.4489 14.4011 13.777 14.9437C13.1049 15.4861 12.7143 16.3033 12.7143 17.1668V26.6907H2.85727C1.27921 26.6907 0 27.9699 0 29.5477V128.833C0 130.411 1.27921 131.691 2.85727 131.691H143.143C144.721 131.691 146 130.411 146 128.833V29.5477C146 27.9699 144.721 26.6907 143.143 26.6907ZM18.4285 20.7064L70.074 31.8543L70.1402 125.295L18.4285 114.146V20.7064ZM5.71425 32.405H12.7143V116.453C12.7143 117.799 13.6536 118.962 14.9693 119.246L46.1882 125.977H5.71425V32.405ZM140.286 125.976H99.8118L131.031 119.246C132.346 118.962 133.286 117.799 133.286 116.453V85.5005C133.286 83.9224 132.007 82.6432 130.428 82.6432C128.85 82.6432 127.571 83.9224 127.571 85.5005V114.146L75.8544 125.296L75.7883 31.8549L127.571 20.7047V59.8575C127.571 61.4356 128.85 62.7148 130.428 62.7148C132.007 62.7148 133.286 61.4356 133.286 59.8575V32.405H140.286V125.976Z"
        fill="#126CAB" />
    <path
        d="M27.7896 57.6945L59.6758 64.5774C61.4289 64.9555 63.1359 63.5756 63.1359 61.7845V47.4988C63.1359 46.1531 62.1968 44.99 60.8814 44.706L28.9952 37.8231C28.1517 37.6409 27.2698 37.8502 26.5979 38.3929C25.9258 38.9353 25.5352 39.7525 25.5352 40.616V54.9017C25.5352 56.2474 26.4742 57.4108 27.7896 57.6945ZM31.2497 44.1556L57.4216 49.8048V58.2446L31.2497 52.5954V44.1556Z"
        fill="#126CAB" />
    <path
        d="M27.79 71.9794L59.6762 78.8622C61.2223 79.1955 62.7787 78.165 63.083 76.6157C63.3787 75.1098 62.3812 73.6002 60.8818 73.2765L28.9957 66.3937C27.4533 66.0618 25.9328 67.0413 25.6 68.5837C25.2672 70.1261 26.2476 71.6463 27.79 71.9794Z"
        fill="#126CAB" />
    <path
        d="M60.8818 87.5627L28.9957 80.6799C27.4533 80.3477 25.9328 81.3275 25.6 82.8699C25.2672 84.4123 26.2476 85.9325 27.79 86.2656L59.6762 93.1484C61.2223 93.4817 62.7787 92.4512 63.083 90.9019C63.3784 89.396 62.3812 87.8867 60.8818 87.5627Z"
        fill="#126CAB" />
    <path
        d="M60.8818 101.848L28.9957 94.9651C27.4533 94.6329 25.9328 95.6127 25.6 97.1551C25.2672 98.6975 26.2476 100.218 27.79 100.551L59.6762 107.434C61.2223 107.767 62.7787 106.736 63.083 105.187C63.3784 103.681 62.3812 102.172 60.8818 101.848Z"
        fill="#126CAB" />
    <path
        d="M117.29 37.8224L85.4045 44.7052C83.9026 45.0295 82.9114 46.5377 83.2034 48.0444C83.5039 49.5942 85.0666 50.6239 86.6101 50.2909L118.496 43.4081C120.039 43.075 121.019 41.5548 120.686 40.0124C120.353 38.47 118.833 37.4905 117.29 37.8224Z"
        fill="#126CAB" />
    <path
        d="M117.29 52.1088L85.4045 58.9916C83.9026 59.3159 82.9114 60.8241 83.2034 62.3308C83.5039 63.8806 85.0666 64.9103 86.6101 64.5773L118.496 57.6945C120.039 57.3614 121.019 55.8412 120.686 54.2988C120.353 52.7561 118.833 51.776 117.29 52.1088Z"
        fill="#126CAB" />
    <path
        d="M119.687 66.9639C119.015 66.4213 118.134 66.2126 117.29 66.3942L85.4039 73.277C84.0884 73.561 83.1494 74.7242 83.1494 76.0698V104.641C83.1494 106.432 84.8564 107.812 86.6095 107.434L118.496 100.551C119.811 100.267 120.75 99.1039 120.75 97.7582V69.187C120.75 68.3236 120.359 67.5063 119.687 66.9639ZM115.036 95.4522L88.8637 101.101V78.3759L115.036 72.7267V95.4522Z"
        fill="#126CAB" />
</svg>