<svg width="32" height="32" viewBox="0 0 32 32" fill="none" xmlns="http://www.w3.org/2000/svg">
    <circle cx="16" cy="16" r="15.5" stroke="#414141" />
    <path
        d="M23.7124 12.7799L24.7597 13.8537L25.8335 12.8065L24.7863 11.7326L23.7124 12.7799ZM22.9965 13.4781L21.9492 12.4042L21.9492 12.4042L22.9965 13.4781ZM22.316 11.348L23.3899 10.3008L22.3426 9.22688L21.2687 10.2742L22.316 11.348ZM21.6001 12.0462L22.6474 13.1201L22.6474 13.1201L21.6001 12.0462ZM13.8498 19.6045L12.8448 20.718L13.8895 21.661L14.8971 20.6784L13.8498 19.6045ZM9.72533 15.8817L10.7304 14.7682L10.7304 14.7682L9.72533 15.8817ZM8.983 15.2117L9.98805 14.0982L8.87456 13.0932L7.86951 14.2066L8.983 15.2117ZM7.64294 16.6964L6.52944 15.6913L5.52439 16.8048L6.63788 17.8099L7.64294 16.6964ZM8.38527 17.3664L7.38021 18.4799L7.38021 18.4799L8.38527 17.3664ZM13.09 21.6129L12.0849 22.7264L12.0849 22.7264L13.09 21.6129ZM13.8323 22.283L12.8273 23.3965L13.9408 24.4015L14.9458 23.288L13.8323 22.283ZM14.2142 21.8598L15.2881 20.8125L14.1719 19.668L13.1007 20.8548L14.2142 21.8598ZM14.3057 21.9536L13.2318 23.0009L14.2791 24.0747L15.353 23.0275L14.3057 21.9536ZM15.0216 21.2554L16.0689 22.3293L16.0689 22.3293L15.0216 21.2554ZM22.6651 11.706L21.9492 12.4042L24.0437 14.5519L24.7597 13.8537L22.6651 11.706ZM21.2421 12.3953L22.6385 13.8271L24.7863 11.7326L23.3899 10.3008L21.2421 12.3953ZM22.6474 13.1201L23.3633 12.4219L21.2687 10.2742L20.5528 10.9723L22.6474 13.1201ZM14.8971 20.6784L22.6474 13.1201L20.5528 10.9723L12.8026 18.5307L14.8971 20.6784ZM8.72028 16.9952L12.8448 20.718L14.8549 18.491L10.7304 14.7682L8.72028 16.9952ZM7.97795 16.3252L8.72028 16.9952L10.7304 14.7682L9.98805 14.0982L7.97795 16.3252ZM8.75643 17.7014L10.0965 16.2167L7.86951 14.2066L6.52944 15.6913L8.75643 17.7014ZM9.39032 16.2529L8.64799 15.5829L6.63788 17.8099L7.38021 18.4799L9.39032 16.2529ZM14.095 20.4994L9.39032 16.2529L7.38021 18.4799L12.0849 22.7264L14.095 20.4994ZM14.8374 21.1695L14.095 20.4994L12.0849 22.7264L12.8273 23.3965L14.8374 21.1695ZM13.1007 20.8548L12.7188 21.2779L14.9458 23.288L15.3277 22.8649L13.1007 20.8548ZM15.3796 20.9063L15.2881 20.8125L13.1404 22.9071L13.2318 23.0009L15.3796 20.9063ZM13.9743 20.1815L13.2584 20.8797L15.353 23.0275L16.0689 22.3293L13.9743 20.1815ZM21.9492 12.4042L13.9743 20.1815L16.0689 22.3293L24.0437 14.5519L21.9492 12.4042Z"
        fill="#2EA3F2" />
</svg>