<svg width="15" height="18" viewBox="0 0 15 18" fill="none" xmlns="http://www.w3.org/2000/svg">
<g id="Group">
<g id="Vector">
<mask id="path-1-inside-1_438_224" fill="white">
<path d="M1.39504 5.22086C1.13569 3.51269 2.34009 1.97834 4.17997 1.41619C4.50647 1.31636 4.85875 1.34478 5.16502 1.49565C5.4713 1.64652 5.70853 1.90849 5.82839 2.22818L6.41905 3.80327C6.51413 4.05666 6.53132 4.33269 6.46842 4.59592C6.40552 4.85915 6.26538 5.09758 6.06601 5.2806L4.30896 6.88964C4.22235 6.96912 4.15782 7.06968 4.12165 7.18153C4.08548 7.29338 4.0789 7.41269 4.10257 7.52783L4.11886 7.59843L4.16096 7.77495C4.37947 8.63263 4.71241 9.45699 5.15082 10.2259C5.62839 11.0429 6.22105 11.7869 6.91058 12.4351L6.9649 12.4839C7.05262 12.5618 7.15901 12.6156 7.27371 12.6401C7.3884 12.6646 7.5075 12.659 7.61938 12.6238L9.89104 11.9082C10.1492 11.8272 10.4257 11.8251 10.6851 11.9023C10.9444 11.9794 11.1748 12.1324 11.3466 12.3414L12.4221 13.6463C12.8701 14.1894 12.8158 14.9878 12.3012 15.4671C10.8931 16.7801 8.95685 17.049 7.60987 15.9668C5.95878 14.635 4.56689 13.0106 3.50376 11.175C2.43201 9.34073 1.71611 7.32066 1.39368 5.22086H1.39504ZM5.52694 7.61744L6.98255 6.28133C7.38153 5.91544 7.66206 5.43866 7.78811 4.91219C7.91416 4.38571 7.87999 3.83358 7.68998 3.32667L7.10068 1.75158C6.85945 1.1083 6.38202 0.5812 5.76567 0.277693C5.14933 -0.025813 4.44045 -0.0828894 3.78348 0.118095C1.49823 0.817382 -0.336209 2.86636 0.052133 5.42589C0.323701 7.21281 0.949665 9.48583 2.33059 11.8593C3.47757 13.8387 4.979 15.59 6.75986 17.0259C8.78033 18.6485 11.477 18.0945 13.2286 16.4624C14.2687 15.4929 14.3746 13.8825 13.4717 12.7854L12.3963 11.4791C12.0522 11.0616 11.5913 10.7563 11.0726 10.6024C10.5539 10.4486 10.0011 10.4531 9.48505 10.6156L7.59901 11.2089C7.11205 10.7068 6.6855 10.1495 6.32807 9.54829C5.9828 8.94047 5.71373 8.29243 5.52694 7.6188V7.61744Z"/>
</mask>
<path d="M1.39504 5.22086C1.13569 3.51269 2.34009 1.97834 4.17997 1.41619C4.50647 1.31636 4.85875 1.34478 5.16502 1.49565C5.4713 1.64652 5.70853 1.90849 5.82839 2.22818L6.41905 3.80327C6.51413 4.05666 6.53132 4.33269 6.46842 4.59592C6.40552 4.85915 6.26538 5.09758 6.06601 5.2806L4.30896 6.88964C4.22235 6.96912 4.15782 7.06968 4.12165 7.18153C4.08548 7.29338 4.0789 7.41269 4.10257 7.52783L4.11886 7.59843L4.16096 7.77495C4.37947 8.63263 4.71241 9.45699 5.15082 10.2259C5.62839 11.0429 6.22105 11.7869 6.91058 12.4351L6.9649 12.4839C7.05262 12.5618 7.15901 12.6156 7.27371 12.6401C7.3884 12.6646 7.5075 12.659 7.61938 12.6238L9.89104 11.9082C10.1492 11.8272 10.4257 11.8251 10.6851 11.9023C10.9444 11.9794 11.1748 12.1324 11.3466 12.3414L12.4221 13.6463C12.8701 14.1894 12.8158 14.9878 12.3012 15.4671C10.8931 16.7801 8.95685 17.049 7.60987 15.9668C5.95878 14.635 4.56689 13.0106 3.50376 11.175C2.43201 9.34073 1.71611 7.32066 1.39368 5.22086H1.39504ZM5.52694 7.61744L6.98255 6.28133C7.38153 5.91544 7.66206 5.43866 7.78811 4.91219C7.91416 4.38571 7.87999 3.83358 7.68998 3.32667L7.10068 1.75158C6.85945 1.1083 6.38202 0.5812 5.76567 0.277693C5.14933 -0.025813 4.44045 -0.0828894 3.78348 0.118095C1.49823 0.817382 -0.336209 2.86636 0.052133 5.42589C0.323701 7.21281 0.949665 9.48583 2.33059 11.8593C3.47757 13.8387 4.979 15.59 6.75986 17.0259C8.78033 18.6485 11.477 18.0945 13.2286 16.4624C14.2687 15.4929 14.3746 13.8825 13.4717 12.7854L12.3963 11.4791C12.0522 11.0616 11.5913 10.7563 11.0726 10.6024C10.5539 10.4486 10.0011 10.4531 9.48505 10.6156L7.59901 11.2089C7.11205 10.7068 6.6855 10.1495 6.32807 9.54829C5.9828 8.94047 5.71373 8.29243 5.52694 7.6188V7.61744Z" fill="#5E5E5E"/>
<path d="M1.39504 5.22086V13.2209H10.7013L9.30439 4.01999L1.39504 5.22086ZM4.17997 1.41619L6.51757 9.06705L6.51904 9.0666L4.17997 1.41619ZM5.82839 2.22818L-1.6625 5.03648L-1.66225 5.03716L5.82839 2.22818ZM6.41905 3.80327L-1.07159 6.61226L-1.07097 6.61391L6.41905 3.80327ZM6.06601 5.2806L11.4689 11.1805L11.476 11.174L6.06601 5.2806ZM4.30896 6.88964L-1.09395 0.989758L-1.10006 0.995371L4.30896 6.88964ZM4.10257 7.52783L-3.7336 9.13855L-3.71422 9.23284L-3.69257 9.32665L4.10257 7.52783ZM4.11886 7.59843L-3.67628 9.39725L-3.66971 9.4257L-3.66294 9.4541L4.11886 7.59843ZM4.16096 7.77495L-3.62085 9.63062L-3.60658 9.69045L-3.5914 9.75005L4.16096 7.77495ZM5.15082 10.2259L-1.79878 14.1886L-1.77749 14.2259L-1.75581 14.263L5.15082 10.2259ZM6.91058 12.4351L1.43127 18.264L1.49442 18.3234L1.55884 18.3814L6.91058 12.4351ZM6.9649 12.4839L1.61316 18.4303L1.63365 18.4487L1.65427 18.467L6.9649 12.4839ZM7.61938 12.6238L10.0208 20.2549L10.023 20.2542L7.61938 12.6238ZM9.89104 11.9082L7.49462 4.27558L7.48745 4.27784L9.89104 11.9082ZM11.3466 12.3414L5.16707 17.422L5.17306 17.4293L11.3466 12.3414ZM12.4221 13.6463L6.24847 18.7342L6.25107 18.7373L12.4221 13.6463ZM12.3012 15.4671L6.84872 9.61303L6.84528 9.61624L12.3012 15.4671ZM7.60987 15.9668L2.58717 22.1936L2.59322 22.1984L2.59929 22.2033L7.60987 15.9668ZM3.50376 11.175L10.4266 7.16564L10.4188 7.15232L10.4111 7.13903L3.50376 11.175ZM1.39368 5.22086V-2.77914H-7.92852L-6.51364 6.43506L1.39368 5.22086ZM5.52694 7.61744L0.117167 1.72386L-2.47306 4.10145V7.61744H5.52694ZM6.98255 6.28133L1.57551 0.385235L1.57277 0.387749L6.98255 6.28133ZM7.68998 3.32667L0.19723 6.13L0.198946 6.13458L7.68998 3.32667ZM7.10068 1.75158L14.5934 -1.05175L14.5913 -1.0574L7.10068 1.75158ZM3.78348 0.118095L1.44313 -7.53192L1.44261 -7.53176L3.78348 0.118095ZM0.052133 5.42589L-7.85735 6.62595L-7.85705 6.62789L0.052133 5.42589ZM2.33059 11.8593L9.2524 7.84827L9.24541 7.83624L2.33059 11.8593ZM6.75986 17.0259L1.73844 23.2537L1.74449 23.2586L1.75055 23.2635L6.75986 17.0259ZM13.2286 16.4624L18.6823 22.3154L18.6833 22.3144L13.2286 16.4624ZM13.4717 12.7854L19.6487 7.7016L19.6479 7.70063L13.4717 12.7854ZM12.3963 11.4791L18.5724 6.39439L18.5706 6.39215L12.3963 11.4791ZM9.48505 10.6156L11.8859 18.2468L11.8867 18.2465L9.48505 10.6156ZM7.59901 11.2089L1.85633 16.7786L5.29225 20.3213L9.99991 18.8402L7.59901 11.2089ZM6.32807 9.54829L-0.628008 13.4996L-0.588915 13.5684L-0.548469 13.6365L6.32807 9.54829ZM5.52694 7.6188H-2.47306V8.70743L-2.18217 9.75647L5.52694 7.6188ZM9.30439 4.01999C9.52355 5.46342 9.07814 6.78161 8.40889 7.67729C7.78242 8.5157 7.0448 8.90596 6.51757 9.06705L1.84236 -6.23467C-2.66759 -4.85672 -7.53056 -0.271636 -6.51432 6.42172L9.30439 4.01999ZM6.51904 9.0666C4.89853 9.56206 3.15008 9.42102 1.62994 8.67222L8.70011 -5.68092C6.56741 -6.73146 4.1144 -6.92933 1.8409 -6.23422L6.51904 9.0666ZM1.62994 8.67222C0.109799 7.92342 -1.06765 6.6232 -1.6625 5.03648L13.3193 -0.580126C12.4847 -2.80623 10.8328 -4.63039 8.70011 -5.68092L1.62994 8.67222ZM-1.66225 5.03716L-1.07159 6.61226L13.9097 0.994286L13.319 -0.580809L-1.66225 5.03716ZM-1.07097 6.61391C-1.5361 5.3744 -1.6202 4.02416 -1.31249 2.73651L14.2493 6.45533C14.6829 4.64121 14.5644 2.73893 13.9091 0.992636L-1.07097 6.61391ZM-1.31249 2.73651C-1.00478 1.44885 -0.319289 0.282531 0.655992 -0.612762L11.476 11.174C12.8501 9.91263 13.8158 8.26945 14.2493 6.45533L-1.31249 2.73651ZM0.663101 -0.619279L-1.09394 0.989761L9.71187 12.7895L11.4689 11.1805L0.663101 -0.619279ZM-1.10006 0.995371C-2.20518 2.00951 -3.02865 3.2927 -3.49019 4.71983L11.7335 9.64323C11.3443 10.8467 10.6499 11.9287 9.71799 12.7839L-1.10006 0.995371ZM-3.49019 4.71983C-3.95173 6.14697 -4.03559 7.66935 -3.7336 9.13855L11.9387 5.91711C12.1934 7.15602 12.1227 8.43978 11.7335 9.64323L-3.49019 4.71983ZM-3.69257 9.32665L-3.67628 9.39725L11.914 5.79962L11.8977 5.72901L-3.69257 9.32665ZM-3.66294 9.4541L-3.62085 9.63062L11.9428 5.91929L11.9007 5.74277L-3.66294 9.4541ZM-3.5914 9.75005C-3.19568 11.3033 -2.59273 12.7962 -1.79878 14.1886L12.1004 6.26315C12.0176 6.11781 11.9546 5.96199 11.9133 5.79986L-3.5914 9.75005ZM-1.75581 14.263C-0.890891 15.7427 0.182469 17.0902 1.43127 18.264L12.3899 6.60607C12.2596 6.48362 12.1477 6.34306 12.0575 6.18872L-1.75581 14.263ZM1.55884 18.3814L1.61316 18.4303L12.3166 6.53761L12.2623 6.48873L1.55884 18.3814ZM1.65427 18.467C2.77561 19.4623 4.13567 20.1502 5.60191 20.4635L8.94551 4.81675C10.1823 5.08106 11.3296 5.66128 12.2755 6.50086L1.65427 18.467ZM5.60191 20.4635C7.06816 20.7768 8.59056 20.7049 10.0208 20.2549L5.218 4.99272C6.42443 4.61308 7.70865 4.55244 8.94551 4.81675L5.60191 20.4635ZM10.023 20.2542L12.2946 19.5386L7.48745 4.27784L5.21578 4.99342L10.023 20.2542ZM12.2875 19.5409C11.0246 19.9374 9.67203 19.9475 8.40335 19.57L12.9668 4.23456C11.1794 3.70267 9.27384 3.71696 7.49462 4.27558L12.2875 19.5409ZM8.40335 19.57C7.13467 19.1924 6.00771 18.4445 5.16708 17.422L17.5262 7.26073C16.3419 5.82023 14.7542 4.76644 12.9668 4.23456L8.40335 19.57ZM5.17306 17.4293L6.24847 18.7342L18.5956 8.55835L17.5202 7.25346L5.17306 17.4293ZM6.25107 18.7373C3.99479 16.0024 4.27989 12.0056 6.84872 9.61303L17.7537 21.3212C21.3518 17.97 21.7455 12.3763 18.593 8.55519L6.25107 18.7373ZM6.84528 9.61624C7.25658 9.2327 7.97015 8.78913 9.01112 8.66842C10.1207 8.53976 11.4827 8.81617 12.6205 9.73029L2.59929 22.2033C7.87072 26.4385 14.2881 24.5528 17.7571 21.318L6.84528 9.61624ZM12.6326 9.74005C11.7455 9.02452 10.9977 8.15185 10.4266 7.16564L-3.41903 15.1843C-1.86395 17.8694 0.172029 20.2454 2.58717 22.1936L12.6326 9.74005ZM10.4111 7.13903C9.84725 6.17406 9.47063 5.11133 9.301 4.00665L-6.51364 6.43506C-6.0384 9.52999 -4.98323 12.5074 -3.40356 15.2109L10.4111 7.13903ZM1.39368 13.2209H1.39504V-2.77914H1.39368V13.2209ZM10.9367 13.511L12.3923 12.1749L1.57277 0.387749L0.117167 1.72386L10.9367 13.511ZM12.3896 12.1774C13.9639 10.7337 15.0708 8.85236 15.5682 6.77498L0.00800638 3.04939C0.253288 2.02496 0.799148 1.0972 1.57551 0.385236L12.3896 12.1774ZM15.5682 6.77498C16.0656 4.6976 15.9308 2.51897 15.181 0.518765L0.198946 6.13458C-0.170785 5.14819 -0.237273 4.07383 0.00800638 3.04939L15.5682 6.77498ZM15.1827 0.523343L14.5934 -1.05175L-0.392072 4.5549L0.197231 6.13L15.1827 0.523343ZM14.5913 -1.0574C13.6352 -3.60713 11.7428 -5.69634 9.29984 -6.89933L2.23151 7.45472C1.02123 6.85874 0.0837274 5.82372 -0.389958 4.56055L14.5913 -1.0574ZM9.29984 -6.89933C6.85686 -8.10232 4.04711 -8.32855 1.44313 -7.53192L6.12382 7.76811C4.83378 8.16277 3.44179 8.05069 2.23151 7.45472L9.29984 -6.89933ZM1.44261 -7.53176C-3.42073 -6.04358 -9.01347 -0.993978 -7.85735 6.62595L7.96161 4.22583C8.1199 5.26908 7.7803 6.25977 7.29509 6.90111C6.88141 7.44791 6.4365 7.67243 6.12434 7.76795L1.44261 -7.53176ZM-7.85705 6.62789C-7.46312 9.21993 -6.55917 12.4879 -4.58423 15.8824L9.24541 7.83624C8.4585 6.48373 8.11053 5.20568 7.96132 4.22389L-7.85705 6.62789ZM-4.59122 15.8704C-2.95212 18.699 -0.806505 21.2017 1.73844 23.2537L11.7813 10.7981C10.7645 9.97831 9.90726 8.97837 9.25239 7.84827L-4.59122 15.8704ZM1.75055 23.2635C7.75378 28.0846 14.9374 25.8048 18.6823 22.3154L7.77492 10.6094C8.01961 10.3815 8.44288 10.1069 9.12682 10.0235C9.92714 9.92592 10.9509 10.1313 11.7692 10.7884L1.75055 23.2635ZM18.6833 22.3144C22.8159 18.4624 23.2372 12.0619 19.6487 7.7016L7.29468 17.8692C5.51202 15.7032 5.72155 12.5234 7.77388 10.6104L18.6833 22.3144ZM19.6479 7.70063L18.5724 6.39439L6.22007 16.5639L7.29548 17.8701L19.6479 7.70063ZM18.5706 6.39215C17.2131 4.7445 15.3944 3.53989 13.3478 2.93277L8.79749 18.2721C7.78821 17.9727 6.89135 17.3787 6.22192 16.5661L18.5706 6.39215ZM13.3478 2.93277C11.3011 2.32564 9.11974 2.34367 7.08339 2.98456L11.8867 18.2465C10.8825 18.5626 9.80678 18.5715 8.79749 18.2721L13.3478 2.93277ZM7.08415 2.98433L5.19811 3.5777L9.99991 18.8402L11.8859 18.2468L7.08415 2.98433ZM13.3417 5.63923C13.2892 5.58508 13.2432 5.52496 13.2046 5.46011L-0.548469 13.6365C0.127839 14.7741 0.934924 15.8286 1.85633 16.7786L13.3417 5.63923ZM13.2841 5.59697C13.2634 5.56047 13.2473 5.52157 13.2361 5.48113L-2.18217 9.75647C-1.8198 11.0633 -1.29781 12.3205 -0.628008 13.4996L13.2841 5.59697ZM13.5269 7.6188V7.61744H-2.47306V7.6188H13.5269Z" fill="#0E0F1D" mask="url(#path-1-inside-1_438_224)"/>
</g>
</g>
</svg>
