<svg width="50" height="50" viewBox="0 0 50 50" fill="none" xmlns="http://www.w3.org/2000/svg">
<path d="M41.1136 32.2988L33.4341 26.3661C33.0362 26.053 32.5426 25.8863 32.0363 25.8938C31.53 25.9014 31.0417 26.0828 30.6533 26.4076C30.1241 26.8539 29.5377 27.2278 28.9098 27.5192C26.5467 28.6142 22.9139 28.7587 18.3222 24.1477C15.3959 21.2093 13.1946 17.3316 14.9163 13.6152C15.6195 11.9403 17.4713 10.8052 16.1133 8.97165L10.2061 1.25963C8.77586 -0.532581 6.76413 0.731265 5.15105 2.34425C-2.7828 10.2781 5.16066 23.8863 12.0446 30.4432C19.743 38.6387 33.9756 45.3571 40.785 36.5193C42.6273 39.3706 42.7465 43.4976 39.1343 45.2201C39.2262 42.7009 36.8597 39.8659 34.5306 41.2794C32.2325 42.8996 33.9095 46.8064 36.4812 47.169C34.7806 48.2798 31.3659 48.0996 29.8058 47.2687C31.3609 45.2036 30.2413 41.2936 27.3237 41.9204C24.5027 42.6435 25.3876 45.9292 27.3446 47.4734C26.0035 48.1058 23.7725 48.1299 22.4991 48.0742C24.379 46.5404 24.1933 43.589 21.7963 42.7041C18.936 41.5417 16.2631 45.7768 18.3383 47.9722C17.0377 48.0035 15.2998 47.6111 14.3412 47.0859C16.9286 45.7932 16.3942 41.1812 13.3194 41.1532C10.8925 41.0955 9.97326 44.085 11.1348 46.0266C6.05422 45.5555 7.76547 39.27 8.06163 38.3887C8.1239 38.2009 8.10904 37.9961 8.02033 37.8193C7.93161 37.6426 7.77629 37.5083 7.58855 37.446C7.40081 37.3837 7.19601 37.3986 7.01923 37.4873C6.84244 37.576 6.70813 37.7313 6.64586 37.9191C5.17836 42.5027 6.06182 47.736 12.4333 47.6037C13.9565 49.0687 18.0632 49.9281 20.3136 49.2037C22.6175 49.8367 26.4639 49.8622 28.6879 48.4004C31.2167 50.0224 37.2832 49.8372 38.6263 47.0429C44.2599 45.23 44.7086 39.2591 41.6882 35.1972C41.9611 34.7268 42.0533 34.1731 41.9476 33.6396C41.8418 33.1061 41.5453 32.6295 41.1136 32.2988ZM12.9491 46.0409C11.9835 45.0358 11.5597 42.8197 13.3194 42.6449C13.937 42.6449 14.2388 43.1192 14.3634 43.4017C14.8507 44.3846 14.2249 45.8517 12.9491 46.0409ZM22.242 45.8479C22.0617 46.5528 21.4361 47.2338 20.3828 47.6277C18.3403 46.911 18.9405 44.2264 20.8313 44.0112C21.7943 44.0686 22.5146 44.9667 22.242 45.8479ZM28.8604 45.8661C28.7778 46.0881 28.6662 46.2982 28.5286 46.4911C27.4517 45.6757 26.1898 43.7742 27.6529 43.3757C28.9266 43.1404 29.2676 44.8069 28.8604 45.8661ZM37.5634 45.7411C37.5629 45.7423 37.5625 45.7435 37.5622 45.7447C36.2589 45.9744 34.988 44.7551 34.9428 43.6582C34.918 43.4166 34.9092 42.8217 35.3608 42.5193C36.7336 41.845 37.9803 44.4204 37.5634 45.7404V45.7411ZM31.6087 27.5527C31.7372 27.4472 31.8981 27.389 32.0643 27.3878C32.2306 27.3866 32.3922 27.4425 32.5222 27.5462L40.2016 33.4789C40.9166 34.0622 40.1329 34.8488 39.7808 35.3838L30.6478 28.2558C30.9824 28.0416 31.3034 27.8068 31.6087 27.5527ZM8.07384 1.96405C8.22922 1.87568 8.41166 1.84747 8.58647 1.88481C8.76129 1.92214 8.91629 2.02241 9.02201 2.16655L14.9292 9.87877C15.4533 10.6865 14.4749 11.1567 14.1335 11.9142L7.10634 2.60838C7.41769 2.37732 7.74061 2.16227 8.07384 1.96405ZM33.2338 39.124C19.8458 39.9371 2.57682 22.5471 3.41018 9.15511C3.63893 6.93617 4.51018 5.08002 5.98259 3.59521L13.3971 13.4135C12.3674 16.1126 12.3227 20.2367 17.2655 25.2005C22.3263 30.2826 26.5128 30.1187 29.1963 29.0145L38.8065 36.5145C37.3213 38.012 35.4602 38.8947 33.2338 39.124Z" fill="url(#paint0_linear_848_3086)"/>
<path d="M30.5267 11.9353C34.3533 7.49035 32.4704 1.09237 25.7877 1.12217C21.8991 1.12217 19.0762 3.94487 19.0762 7.83371C19.0761 7.93165 19.0954 8.02864 19.1329 8.11914C19.1704 8.20963 19.2253 8.29185 19.2945 8.36111C19.3638 8.43036 19.446 8.48529 19.5365 8.52276C19.627 8.56023 19.724 8.57951 19.8219 8.57948H23.5506C23.7399 8.57948 23.9222 8.50746 24.0604 8.37805C24.1986 8.24863 24.2825 8.0715 24.2949 7.88256C24.3655 6.79602 24.7249 5.50044 26.0353 5.50044C27.7021 5.45189 28.0078 7.45939 27.0185 8.78054C26.3427 9.77188 20.7305 14.7644 20.3446 15.9816C19.8327 16.8508 18.1222 20.3876 19.82 20.5112H31.7539C31.8518 20.5112 31.9487 20.4919 32.0392 20.4544C32.1296 20.4169 32.2118 20.362 32.281 20.2927C32.3503 20.2235 32.4052 20.1413 32.4426 20.0508C32.48 19.9603 32.4993 19.8634 32.4993 19.7654V16.706C32.4993 16.6081 32.48 16.5111 32.4425 16.4206C32.4051 16.3302 32.3502 16.2479 32.2809 16.1787C32.2117 16.1094 32.1294 16.0545 32.039 16.0171C31.9485 15.9796 31.8515 15.9603 31.7536 15.9603H26.4499C27.2781 15.1228 29.9847 12.7274 30.5267 11.9353ZM25.063 15.2561C24.7642 15.5876 24.4991 15.9479 24.2714 16.3317C23.9774 16.8053 24.3596 17.4688 24.9167 17.4518H31.0081V19.0198H20.699C21.0355 15.8577 26.448 12.0076 28.2551 9.61438C29.8953 7.42208 29.0139 3.96621 26.0351 4.00862C24.3592 4.00862 23.2154 5.14535 22.887 7.08765H20.6116C20.9305 4.41785 22.9696 2.61323 25.788 2.61323C31.2469 2.59304 32.3764 7.51881 29.3538 11.0137C28.8436 11.7757 25.5762 14.6346 25.063 15.2561Z" fill="url(#paint1_linear_848_3086)"/>
<path d="M42.413 6.20532C42.2603 6.15757 42.0961 6.16065 41.9453 6.2141C41.7945 6.26756 41.665 6.36849 41.5765 6.50176L37.4494 12.6372C37.3739 12.7495 37.3303 12.8801 37.3233 13.0152C37.3163 13.1503 37.3461 13.2848 37.4097 13.4042C37.4733 13.5236 37.5681 13.6235 37.6841 13.6931C37.8001 13.7628 37.9328 13.7996 38.0681 13.7996H42.1951C42.293 13.7996 42.39 13.7803 42.4805 13.7428C42.571 13.7054 42.6532 13.6505 42.7225 13.5812C42.7917 13.512 42.8467 13.4298 42.8841 13.3393C42.9216 13.2488 42.9409 13.1518 42.9409 13.0539V6.9183C42.9408 6.7586 42.8895 6.60313 42.7945 6.47477C42.6995 6.34642 42.5657 6.25197 42.413 6.20532ZM41.4494 12.3081H39.4687L41.4494 9.36311V12.3081Z" fill="url(#paint2_linear_848_3086)"/>
<path d="M47.4154 12.3083H45.9235V1.86808C45.9236 1.77015 45.9043 1.67316 45.8668 1.58267C45.8294 1.49218 45.7745 1.40995 45.7052 1.34069C45.636 1.27144 45.5538 1.2165 45.4633 1.17903C45.3728 1.14156 45.2758 1.12229 45.1779 1.12231H41.2901C41.1663 1.12236 41.0445 1.1532 40.9356 1.21207C40.8267 1.27094 40.7341 1.35598 40.6663 1.45953L34.1142 11.4548C34.0347 11.5762 33.9923 11.7182 33.9922 11.8633V16.0369C33.9922 16.1349 34.0114 16.2319 34.0489 16.3224C34.0864 16.4128 34.1413 16.4951 34.2106 16.5643C34.2798 16.6336 34.362 16.6885 34.4525 16.726C34.543 16.7635 34.64 16.7827 34.738 16.7827H41.4495C41.5184 21.2479 40.7232 20.4394 45.1782 20.5114C45.2762 20.5114 45.3732 20.4921 45.4637 20.4546C45.5541 20.4172 45.6364 20.3622 45.7056 20.293C45.7749 20.2237 45.8298 20.1415 45.8672 20.051C45.9047 19.9605 45.924 19.8635 45.9239 19.7656V16.7827H47.4154C47.5133 16.7827 47.6103 16.7635 47.7008 16.726C47.7913 16.6885 47.8735 16.6336 47.9428 16.5643C48.012 16.4951 48.0669 16.4128 48.1044 16.3224C48.1419 16.2319 48.1612 16.1349 48.1611 16.0369V13.054C48.1612 12.9561 48.1419 12.8591 48.1044 12.7686C48.0669 12.6781 48.012 12.5959 47.9428 12.5267C47.8735 12.4574 47.7913 12.4025 47.7008 12.365C47.6103 12.3275 47.5133 12.3083 47.4154 12.3083ZM46.6697 15.2912H45.1782C45.0803 15.2911 44.9833 15.3104 44.8928 15.3479C44.8023 15.3853 44.7201 15.4403 44.6509 15.5095C44.5816 15.5788 44.5267 15.661 44.4892 15.7515C44.4517 15.842 44.4324 15.939 44.4325 16.0369V19.0199H42.941V16.0369C42.9411 15.939 42.9218 15.842 42.8843 15.7515C42.8468 15.661 42.7919 15.5788 42.7227 15.5095C42.6534 15.4403 42.5712 15.3853 42.4807 15.3479C42.3902 15.3104 42.2932 15.2911 42.1953 15.2912H35.4837V12.0866L41.6928 2.61376H44.4325V13.054C44.4325 13.152 44.4517 13.249 44.4892 13.3394C44.5267 13.4299 44.5816 13.5121 44.6509 13.5814C44.7201 13.6506 44.8024 13.7055 44.8928 13.743C44.9833 13.7805 45.0803 13.7997 45.1782 13.7997H46.6697V15.2912Z" fill="url(#paint3_linear_848_3086)"/>
<defs>
<linearGradient id="paint0_linear_848_3086" x1="18.2402" y1="72.6254" x2="67.845" y2="38.679" gradientUnits="userSpaceOnUse">
<stop stop-color="#9358F7"/>
<stop offset="0.259732" stop-color="#7B78F2"/>
<stop offset="0.500607" stop-color="#6197EE"/>
<stop offset="0.766547" stop-color="#45B5E9"/>
<stop offset="1" stop-color="#10D7E2"/>
</linearGradient>
<linearGradient id="paint1_linear_848_3086" x1="24.3556" y1="29.5735" x2="42.2147" y2="19.5841" gradientUnits="userSpaceOnUse">
<stop stop-color="#9358F7"/>
<stop offset="0.259732" stop-color="#7B78F2"/>
<stop offset="0.500607" stop-color="#6197EE"/>
<stop offset="0.766547" stop-color="#45B5E9"/>
<stop offset="1" stop-color="#10D7E2"/>
</linearGradient>
<linearGradient id="paint2_linear_848_3086" x1="39.5321" y1="17.3648" x2="46.7795" y2="13.0517" gradientUnits="userSpaceOnUse">
<stop stop-color="#9358F7"/>
<stop offset="0.259732" stop-color="#7B78F2"/>
<stop offset="0.500607" stop-color="#6197EE"/>
<stop offset="0.766547" stop-color="#45B5E9"/>
<stop offset="1" stop-color="#10D7E2"/>
</linearGradient>
<linearGradient id="paint3_linear_848_3086" x1="39.565" y1="29.5961" x2="57.9243" y2="18.7647" gradientUnits="userSpaceOnUse">
<stop stop-color="#9358F7"/>
<stop offset="0.259732" stop-color="#7B78F2"/>
<stop offset="0.500607" stop-color="#6197EE"/>
<stop offset="0.766547" stop-color="#45B5E9"/>
<stop offset="1" stop-color="#10D7E2"/>
</linearGradient>
</defs>
</svg>
