<svg width="121" height="120" viewBox="0 0 121 120" fill="none" xmlns="http://www.w3.org/2000/svg">
<g id="Group 12867">
<path id="Vector" d="M32.1162 89.3313C32.0254 88.9923 31.8469 88.6833 31.5988 88.4352C31.3507 88.1871 31.0417 88.0086 30.7027 87.9178L19.5528 84.9309C19.2138 84.8401 18.8568 84.8401 18.5178 84.931C18.1787 85.0219 17.8696 85.2004 17.6215 85.4487L9.46047 93.6117C9.21256 93.8596 9.03422 94.1684 8.94334 94.507C8.85245 94.8457 8.85222 95.2023 8.94266 95.541L11.9296 106.691C12.0204 107.03 12.1989 107.339 12.447 107.587C12.6951 107.835 13.0041 108.014 13.3431 108.104L24.493 111.091C24.6612 111.137 24.8346 111.159 25.0088 111.159C25.539 111.159 26.0474 110.948 26.4223 110.574L34.5853 102.413C34.8336 102.164 35.0121 101.855 35.103 101.516C35.1939 101.177 35.1939 100.82 35.1031 100.481L32.1162 89.3313ZM24.413 106.925L15.4923 104.526L13.1031 95.629L19.6328 89.0993L28.5515 91.4985L30.9506 100.417L24.413 106.925Z" fill="#126CAB"/>
<path id="Vector_2" d="M119.566 90.9506L108.251 79.6347C108.064 79.4485 107.843 79.3013 107.599 79.2018C107.356 79.1022 107.094 79.0523 106.831 79.0549C106.571 79.0524 106.313 79.1024 106.072 79.202C105.832 79.3017 105.614 79.4488 105.432 79.6347L104.072 80.9942C101.677 78.2338 100.178 74.8102 99.7737 71.1778L98.3342 58.3425C97.8851 54.2798 96.0742 50.4887 93.196 47.5864L92.7162 47.1065L95.2953 44.5075C95.4775 44.316 95.6982 44.1653 95.9428 44.0654C96.1875 43.9654 96.4506 43.9185 96.7148 43.9277C100.4 44.1563 104.083 43.4518 107.424 41.8794C110.765 40.307 113.655 37.9175 115.828 34.9319C118 31.9464 119.384 28.4611 119.853 24.7987C120.321 21.1362 119.858 17.4148 118.507 13.9786C118.388 13.6676 118.193 13.3913 117.939 13.1748C117.686 12.9583 117.383 12.8085 117.057 12.739C116.732 12.6695 116.394 12.6825 116.074 12.7767C115.755 12.871 115.464 13.0436 115.228 13.2789L102.992 25.5344L95.5552 24.4748L94.4956 17.0375L106.751 4.80196C106.986 4.56809 107.159 4.27898 107.253 3.96112C107.347 3.64327 107.36 3.30682 107.291 2.98262C107.22 2.65612 107.07 2.35209 106.854 2.09749C106.638 1.84289 106.362 1.64561 106.051 1.52315C102.615 0.17189 98.8938 -0.290988 95.2313 0.177335C91.5688 0.645659 88.0836 2.03006 85.098 4.20247C82.1125 6.37489 79.723 9.26515 78.1506 12.6059C76.5782 15.9467 75.8737 19.63 76.1023 23.3152C76.1067 23.5787 76.0576 23.8404 75.958 24.0844C75.8583 24.3284 75.7102 24.5496 75.5225 24.7347L67.2655 32.9917L61.6076 27.3337C60.5338 26.2483 59.1705 25.4945 57.6803 25.1624C56.19 24.8303 54.6357 24.9338 53.2026 25.4607C51.7696 25.9875 50.5183 26.9155 49.5981 28.1338C48.6778 29.3521 48.1274 30.8094 48.0125 32.3319C46.5363 31.9449 44.9797 31.9919 43.5295 32.4675C42.0793 32.9431 40.7972 33.827 39.8368 35.0132C38.8765 36.1993 38.2788 37.6374 38.1154 39.1548C37.9521 40.6721 38.23 42.2045 38.9158 43.5678C37.3363 43.8348 35.8774 44.5817 34.7374 45.7071C33.754 46.6955 33.048 47.9252 32.69 49.2727C32.3321 50.6202 32.3349 52.0382 32.6981 53.3843C31.1769 53.4877 29.7179 54.0283 28.4966 54.9411C27.2753 55.8539 26.3437 57.1 25.8136 58.5296C25.2836 59.9592 25.1777 61.5115 25.5088 62.9999C25.8399 64.4882 26.5938 65.8492 27.6799 66.9193L30.4989 69.7383L24.761 75.4762C24.5754 75.6687 24.3512 75.8199 24.1032 75.9198C23.8551 76.0197 23.5887 76.0662 23.3215 76.056C22.8817 76.036 22.4618 76.036 22.002 76.016C19.114 76.0147 16.254 76.5822 13.5853 77.6862C10.9166 78.7902 8.49145 80.409 6.44838 82.4502C2.3222 86.5727 0.00265347 92.1654 2.27518e-06 97.998C-0.00264892 103.831 2.31182 109.425 6.43424 113.552C10.5567 117.678 16.1494 119.997 21.982 120H22.042C24.9288 119.999 27.7871 119.429 30.4537 118.323C33.1203 117.218 35.5429 115.597 37.5832 113.555C39.6236 111.513 41.2417 109.089 42.3451 106.421C43.4484 103.754 44.0155 100.895 44.014 98.008C44.014 97.5682 43.994 97.1283 43.974 96.7085C43.9611 96.4409 44.0063 96.1738 44.1063 95.9253C44.2064 95.6768 44.359 95.4529 44.5538 95.269L50.2917 89.5311L72.9234 112.143L71.504 113.562C71.315 113.748 71.1648 113.968 71.0618 114.212C70.9589 114.456 70.9053 114.717 70.9042 114.982C70.9052 115.243 70.9589 115.502 71.0619 115.742C71.165 115.983 71.3153 116.2 71.504 116.381L74.3229 119.22C74.7031 119.59 75.212 119.798 75.7424 119.8C76.2721 119.794 76.7797 119.587 77.1619 119.22C77.5365 118.843 77.7466 118.333 77.7466 117.801C77.7466 117.269 77.5365 116.759 77.1619 116.381L75.7424 114.982L106.831 83.8732L116.727 93.7696C117.105 94.1441 117.615 94.3543 118.147 94.3543C118.679 94.3543 119.189 94.1441 119.566 93.7696C119.939 93.395 120.148 92.8882 120.148 92.3601C120.148 91.8319 119.939 91.3252 119.566 90.9506ZM78.3415 27.5537C78.9331 26.9738 79.3943 26.2744 79.6943 25.5021C79.9942 24.7299 80.126 23.9025 80.0808 23.0753C79.9163 20.331 80.3832 17.5855 81.4457 15.0498C82.5082 12.5142 84.138 10.2559 86.2098 8.44866C88.2815 6.64141 90.7401 5.33329 93.3965 4.62485C96.0529 3.91642 98.8364 3.82653 101.533 4.36212L90.9769 14.9183C90.7554 15.1374 90.5878 15.405 90.4872 15.6998C90.3866 15.9947 90.3558 16.3089 90.3971 16.6177L91.8166 26.514C91.8773 26.9432 92.0759 27.3411 92.3824 27.6476C92.6889 27.9541 93.0867 28.1527 93.5159 28.2134L103.412 29.6329C103.721 29.6742 104.035 29.6433 104.33 29.5427C104.625 29.4421 104.893 29.2745 105.112 29.0531L115.668 18.497C116.203 21.1936 116.114 23.977 115.405 26.6335C114.697 29.2899 113.389 31.7485 111.581 33.8202C109.774 35.892 107.516 37.5218 104.98 38.5843C102.445 39.6468 99.699 40.1137 96.9547 39.9492C96.1276 39.9057 95.3008 40.0382 94.5288 40.3381C93.7568 40.6379 93.0572 41.0982 92.4763 41.6885L89.8773 44.2876L84.2193 38.6296C82.6947 37.1752 80.6685 36.3638 78.5614 36.3638C76.4543 36.3638 74.4281 37.1752 72.9034 38.6296L70.0845 35.8107L78.3415 27.5537ZM53.1107 30.1527C53.8755 29.4305 54.8877 29.0281 55.9396 29.0281C56.9916 29.0281 58.0037 29.4305 58.7686 30.1527L70.0845 41.4686L64.4265 47.1265L53.1107 35.8107C52.3661 35.0573 51.9486 34.0409 51.9486 32.9817C51.9486 31.9225 52.3661 30.9061 53.1107 30.1527ZM43.2143 37.2301C43.9745 36.4988 44.9884 36.0903 46.0432 36.0903C47.0981 36.0903 48.112 36.4988 48.8722 37.2301L61.6076 49.9455L61.8475 50.2454C61.4723 51.0357 61.2777 51.8996 61.2777 52.7745C61.2777 53.6493 61.4723 54.5132 61.8475 55.3036L61.6076 55.6035C60.8427 56.3257 59.8306 56.7281 58.7786 56.7281C57.7266 56.7281 56.7145 56.3257 55.9496 55.6035L50.9914 50.6453L43.2143 42.8681C42.8436 42.4982 42.5495 42.0588 42.3488 41.5751C42.1482 41.0913 42.0449 40.5728 42.0449 40.0491C42.0449 39.5254 42.1482 39.0069 42.3488 38.5232C42.5495 38.0395 42.8436 37.6001 43.2143 37.2301ZM37.5763 48.526C38.3255 47.7813 39.3389 47.3633 40.3953 47.3633C41.4516 47.3633 42.4651 47.7813 43.2143 48.526L48.1725 53.4842L53.1107 58.4224H53.1306L55.9496 61.2614C56.6999 62.0117 57.1214 63.0293 57.1214 64.0904C57.1214 65.1514 56.6999 66.169 55.9496 66.9193C55.1993 67.6696 54.1817 68.0911 53.1207 68.0911C52.0596 68.0911 51.042 67.6696 50.2917 66.9193L38.9758 55.6035L37.5763 54.184C37.2045 53.8126 36.9096 53.3716 36.7084 52.8862C36.5072 52.4008 36.4036 51.8805 36.4036 51.355C36.4036 50.8295 36.5072 50.3092 36.7084 49.8238C36.9096 49.3384 37.2045 48.8974 37.5763 48.526ZM29.3193 61.2614C29.3177 60.7336 29.4211 60.2107 29.6237 59.7233C29.8262 59.2359 30.1237 58.7937 30.4989 58.4224C31.2505 57.6818 32.2626 57.2655 33.3179 57.2628C33.8444 57.2576 34.3667 57.3574 34.8542 57.5566C35.3417 57.7557 35.7845 58.05 36.1568 58.4224L47.4727 69.7383L48.8722 71.1578C49.6225 71.9081 50.044 72.9257 50.044 73.9868C50.044 75.0478 49.6225 76.0654 48.8722 76.8157C48.1219 77.566 47.1043 77.9875 46.0432 77.9875C44.9822 77.9875 43.9646 77.566 43.2143 76.8157L30.4989 64.0804C30.1256 63.7119 29.8291 63.273 29.6266 62.7891C29.4241 62.3052 29.3197 61.7859 29.3193 61.2614ZM75.7424 109.324L53.1107 86.7121L74.3229 65.4999C74.6975 65.1224 74.9077 64.6121 74.9077 64.0804C74.9077 63.5486 74.6975 63.0384 74.3229 62.6609C73.9483 62.2885 73.4416 62.0795 72.9134 62.0795C72.3853 62.0795 71.8785 62.2885 71.504 62.6609L41.7148 92.45C41.1254 93.0316 40.6657 93.7313 40.366 94.5031C40.0662 95.275 39.9331 96.1015 39.9754 96.9284C39.9954 97.2883 40.0154 97.6481 40.0154 98.008C40.0154 102.777 38.1224 107.35 34.7523 110.724C31.3822 114.098 26.8107 115.996 22.042 116.001H21.982C17.2098 115.999 12.6342 114.101 9.26164 110.724C5.88908 107.348 3.99589 102.77 3.99855 97.998C4.0012 93.2259 5.89947 88.6502 9.27577 85.2777C12.6521 81.9051 17.2298 80.0119 22.002 80.0146C22.3019 80.0146 22.7417 80.0346 23.1016 80.0546C23.928 80.0922 24.7532 79.957 25.5243 79.6575C26.2955 79.358 26.9956 78.9008 27.58 78.3152L33.3179 72.5573L40.3953 79.6347C41.6298 80.8774 43.2391 81.6789 44.9746 81.9156C46.7102 82.1522 48.4754 81.8107 49.9975 80.9439C51.5195 80.077 52.7138 78.7331 53.3958 77.1197C54.0777 75.5063 54.2094 73.7132 53.7704 72.0175C55.0634 71.9224 56.3131 71.5112 57.4099 70.8199C58.5067 70.1287 59.417 69.1786 60.0606 68.0533C60.7042 66.9279 61.0616 65.6617 61.1012 64.3658C61.1409 63.07 60.8616 61.7843 60.288 60.6216C61.8596 60.328 63.3037 59.5606 64.4265 58.4224C64.4865 58.3824 64.5065 58.3225 64.5665 58.2825C66.4911 59.5513 68.794 60.1187 71.0879 59.8893C73.3817 59.66 75.5266 58.6478 77.1619 57.0229C77.54 56.6572 78.0454 56.4528 78.5714 56.4528C79.0974 56.4528 79.6028 56.6572 79.9809 57.0229C80.1667 57.2052 80.3139 57.423 80.4135 57.6635C80.5132 57.904 80.5632 58.1621 80.5607 58.4224C80.5633 58.6857 80.5134 58.9469 80.4138 59.1906C80.3142 59.4343 80.1671 59.6558 79.9809 59.8419L78.5614 61.2614C75.9399 63.8878 74.4677 67.447 74.4677 71.1578C74.4677 74.8686 75.9399 78.4278 78.5614 81.0542L79.9809 82.4537C80.1633 82.6434 80.3822 82.7944 80.6244 82.8975C80.8666 83.0006 81.1271 83.0538 81.3904 83.0538C81.6536 83.0538 81.9141 83.0006 82.1563 82.8975C82.3985 82.7944 82.6174 82.6434 82.7998 82.4537C83.1722 82.0791 83.3812 81.5724 83.3812 81.0442C83.3812 80.516 83.1722 80.0093 82.7998 79.6347L81.4004 78.2152C79.5263 76.3406 78.4735 73.7985 78.4735 71.1478C78.4735 68.4971 79.5263 65.955 81.4004 64.0804L82.7998 62.6609C83.3574 62.1048 83.7998 61.4442 84.1017 60.7169C84.4035 59.9896 84.5589 59.2099 84.5589 58.4224C84.5589 57.635 84.4035 56.8552 84.1017 56.1279C83.7998 55.4006 83.3574 54.74 82.7998 54.184C81.6569 53.0961 80.1393 52.4893 78.5614 52.4893C76.9834 52.4893 75.4659 53.0961 74.3229 54.184C73.1983 55.3072 71.6739 55.9381 70.0845 55.9381C68.495 55.9381 66.9706 55.3072 65.846 54.184C65.4736 53.8094 65.2646 53.3027 65.2646 52.7745C65.2646 52.2463 65.4736 51.7396 65.846 51.365L75.7424 41.4686C76.5026 40.7373 77.5165 40.3288 78.5714 40.3288C79.6263 40.3288 80.6401 40.7373 81.4004 41.4686L90.3571 50.4053C92.5944 52.6706 94.0091 55.6196 94.3756 58.7823L95.8151 71.6176C96.3191 76.1446 98.2117 80.4046 101.233 83.8132L75.7424 109.324Z" fill="#126CAB"/>
</g>
</svg>
