<svg width="48" height="51" viewBox="0 0 48 51" fill="none" xmlns="http://www.w3.org/2000/svg">
<path d="M33.2252 40.2199C32.1195 39.5419 30.9908 38.8721 29.8528 38.2095C29.8516 38.2088 29.8505 38.208 29.8493 38.2074C27.8537 37.0454 25.8293 35.9072 23.8408 34.7921V33.6885C23.9332 33.5765 24.0247 33.4627 24.1145 33.3458C25.1526 31.994 25.9331 30.4306 26.4256 28.753C28.1724 28.1249 29.4885 26.304 29.4885 24.4241C29.4885 23.453 29.1324 22.5957 28.4856 22.0099C28.19 21.7421 27.8458 21.5439 27.4706 21.4185C28.1605 19.7151 28.5482 17.9961 28.5482 16.4611C28.5482 10.6854 23.6048 5.98639 17.5285 5.98639C11.4522 5.98639 6.50873 10.6855 6.50873 16.4612C6.50873 17.9955 6.89687 19.7144 7.58742 21.4181C7.20157 21.5472 6.84937 21.754 6.54915 22.0324C5.91849 22.6172 5.57127 23.4665 5.57127 24.4241C5.57127 26.3038 6.88709 28.1246 8.63376 28.7528C9.1259 30.4305 9.90617 31.994 10.9437 33.3457C11.0394 33.4705 11.1371 33.5917 11.2358 33.7109V34.7809C8.09323 36.5454 4.85308 38.3678 1.8351 40.2195C0.668888 40.933 0 42.1261 0 43.493V49.9142C0 50.2987 0.311689 50.6103 0.696035 50.6103C1.08038 50.6103 1.39207 50.2987 1.39207 49.9142V43.493C1.39207 42.6092 1.80735 41.8683 2.56227 41.4066C3.31051 40.9475 4.07341 40.4898 4.84559 40.034V49.9142C4.84559 50.2987 5.15728 50.6103 5.54163 50.6103C5.92608 50.6103 6.23767 50.2987 6.23767 49.9142V39.2199C7.17662 38.6754 8.12446 38.1339 9.0727 37.5969V45.4443C9.0727 45.8287 9.38429 46.1403 9.76874 46.1403H25.291C25.6754 46.1403 25.987 45.8287 25.987 45.4443V37.5977C26.9337 38.1336 27.881 38.6741 28.8221 39.22V49.9142C28.8221 50.2987 29.1337 50.6103 29.5181 50.6103C29.9025 50.6103 30.2141 50.2987 30.2141 49.9142V40.0346C30.9836 40.4889 31.7466 40.9463 32.4981 41.4071C33.2523 41.8684 33.6676 42.6093 33.6676 43.493V49.9142C33.6676 50.2987 33.9792 50.6103 34.3636 50.6103C34.748 50.6103 35.0596 50.2987 35.0596 49.9142V43.493C35.0598 42.1261 34.3908 40.9329 33.2252 40.2199ZM12.6278 35.1806C12.6278 35.1792 12.6278 35.1779 12.6278 35.1765V35.1283C14.1389 36.4116 15.8479 37.1183 17.5284 37.1183C19.216 37.1183 20.9326 36.4057 22.4488 35.1123V35.1883V35.1921V35.1997C22.4488 37.9081 20.2453 40.1116 17.5369 40.1116C14.83 40.1116 12.6278 37.9081 12.6278 35.1997V35.1806ZM8.4637 19.7332C10.9234 18.104 14.1202 17.211 17.5284 17.211C20.9377 17.211 24.1349 18.1036 26.5944 19.7322C25.9923 21.6357 24.9399 23.613 23.6027 25.2742C21.7988 24.1389 19.7122 23.5419 17.5284 23.5419C15.3462 23.5419 13.2606 24.1389 11.4569 25.2742C10.1194 23.6126 9.06642 21.6357 8.4637 19.7332ZM28.0964 24.4242C28.0964 25.3553 27.5818 26.3126 26.84 26.9269C26.9704 26.1225 27.0375 25.3012 27.0375 24.4722C27.0375 24.0264 27.0314 23.3921 26.9865 22.7235C27.1977 22.7872 27.3877 22.8939 27.551 23.0418C27.9028 23.3603 28.0964 23.8512 28.0964 24.4242ZM17.5285 7.37856C22.8372 7.37856 27.1561 11.453 27.1561 16.4612C27.1561 17.0469 27.0888 17.6703 26.961 18.3148C24.335 16.6998 21.0277 15.8188 17.5285 15.8188C14.0301 15.8188 10.7229 16.7002 8.09662 18.3161C7.96857 17.6711 7.9009 17.0472 7.9009 16.4612C7.9009 11.4531 12.2197 7.37856 17.5285 7.37856ZM6.96334 24.4242C6.96334 23.8584 7.15237 23.3716 7.4957 23.0532C7.65389 22.9065 7.83852 22.7991 8.04392 22.7326C8.02197 23.3885 8.02206 23.9705 8.02226 24.3814V24.4722C8.02226 25.3011 8.08933 26.1224 8.21968 26.9268C7.47793 26.3124 6.96334 25.3552 6.96334 24.4242ZM9.42192 24.858C9.84459 25.4857 10.3054 26.0898 10.7996 26.6573C11.0349 26.9275 11.4366 26.9751 11.7285 26.7672C13.4122 25.5679 15.4178 24.9338 17.5285 24.9338C19.6411 24.9338 21.6476 25.5678 23.3313 26.7672C23.4533 26.8541 23.5945 26.8963 23.7347 26.8963C23.93 26.8963 24.1233 26.8144 24.2601 26.6572C24.7543 26.0896 25.2151 25.4853 25.6378 24.8573C25.5604 27.681 24.6358 30.3812 23.0105 32.4979C21.435 34.5495 19.4369 35.7262 17.5285 35.7262C15.6204 35.7262 13.6228 34.5496 12.0481 32.498C10.4237 30.3818 9.49947 27.6817 9.42192 24.858ZM24.595 44.7483H10.4648V36.8111C10.7562 36.6472 11.0471 36.4836 11.3375 36.3204C11.8677 39.2634 14.4449 41.5037 17.5369 41.5037C20.6269 41.5037 23.2029 39.2683 23.7374 36.3302C24.0228 36.4903 24.3086 36.6511 24.595 36.8121V44.7483ZM43.574 18.3878C43.3585 18.2782 43.101 18.2885 42.8947 18.4149C42.6884 18.5415 42.5625 18.7662 42.5625 19.0082V21.8405C42.5625 22.8673 41.7271 23.7027 40.7003 23.7027C39.6734 23.7027 38.8379 22.8673 38.8379 21.8405V19.0082C38.8379 18.7662 38.7122 18.5415 38.5058 18.4149C38.2994 18.2883 38.0421 18.2782 37.8264 18.3878C35.681 19.4786 34.3482 21.6499 34.3482 24.0543C34.3482 26.0576 35.2863 27.9258 36.8755 29.1239V47.1752C36.8755 49.2843 38.5912 51 40.7003 51C42.8108 51 44.5278 49.2843 44.5278 47.1752V29.1235C46.1152 27.9249 47.0522 26.057 47.0522 24.0543C47.0522 21.65 45.7194 19.4787 43.574 18.3878ZM43.4459 28.1851C43.2521 28.3141 43.1357 28.5316 43.1357 28.7643V47.1751C43.1357 48.5165 42.0431 49.6078 40.7003 49.6078C39.3589 49.6078 38.2675 48.5166 38.2675 47.1751V28.7644C38.2675 28.5314 38.1509 28.3138 37.9568 28.1848C36.569 27.2621 35.7403 25.7179 35.7403 24.0543C35.7403 22.5906 36.373 21.2375 37.4459 20.3083V21.8406C37.4459 23.6351 38.9058 25.0949 40.7003 25.0949C42.4948 25.0949 43.9546 23.635 43.9546 21.8406V20.3082C45.0275 21.2375 45.6601 22.5906 45.6601 24.0543C45.6601 25.7174 44.8324 27.2616 43.4459 28.1851ZM47.0151 10.5681L45.5799 9.42784C45.5927 9.23921 45.598 9.05068 45.5957 8.86305L47.0883 7.79674C47.3464 7.6124 47.4472 7.27696 47.3336 6.98094L46.3679 4.46507C46.2544 4.16935 45.9558 3.98811 45.6408 4.02274L43.8142 4.22674C43.6895 4.08432 43.5607 3.94819 43.4282 3.81914L43.7304 2.00819C43.7827 1.69511 43.6166 1.38651 43.3266 1.25756L40.8616 0.161813C40.5718 0.0328662 40.2316 0.116402 40.0342 0.364416L38.8926 1.799C38.7036 1.78673 38.5151 1.78184 38.3288 1.78423L37.2625 0.291559C37.0784 0.0335648 36.743 -0.0674371 36.4467 0.0463398L33.9307 1.01215C33.635 1.12562 33.4532 1.42454 33.4884 1.73932L33.6924 3.56344C33.5514 3.6872 33.4155 3.81605 33.2854 3.94948L31.473 3.64937C31.1604 3.59767 30.8521 3.76355 30.7233 4.05308L29.6278 6.51535C29.4988 6.80498 29.582 7.14492 29.8298 7.34253L31.2638 8.48599C31.2516 8.67252 31.2469 8.86055 31.2497 9.04928L29.7569 10.1179C29.4993 10.3023 29.3987 10.6375 29.5123 10.9333L30.478 13.4493C30.5916 13.7454 30.8916 13.9264 31.2061 13.8915L33.0288 13.6854C33.1511 13.8249 33.2802 13.961 33.4156 14.0934L33.1152 15.904C33.0634 16.2165 33.2291 16.5246 33.5184 16.6536L35.9807 17.752C36.2708 17.8815 36.6112 17.7982 36.8089 17.5499L37.9524 16.1136C38.137 16.1258 38.3244 16.131 38.5134 16.1286L39.5806 17.6227C39.7141 17.8097 39.9272 17.9142 40.1472 17.9142C40.2304 17.9142 40.3147 17.8991 40.3961 17.868L42.9148 16.9023C43.211 16.7888 43.393 16.4893 43.3574 16.1741L43.1511 14.3501C43.2927 14.2257 43.4292 14.0964 43.5599 13.9624L45.3692 14.2648C45.6821 14.3169 45.9907 14.1512 46.1197 13.8615L47.2182 11.3964C47.347 11.1063 47.2636 10.7655 47.0151 10.5681ZM45.0671 12.8029L43.4183 12.5275C43.1804 12.4874 42.9382 12.5743 42.7792 12.7564C42.5425 13.0277 42.2757 13.2809 41.9863 13.5087C41.797 13.6578 41.6983 13.8943 41.7254 14.1338L41.9133 15.7955L40.4002 16.3755L39.4283 15.0149C39.2971 14.8313 39.0858 14.7235 38.862 14.7235C38.8475 14.7235 38.8328 14.724 38.8182 14.7248C38.4446 14.7485 38.0775 14.7383 37.7277 14.6949C37.4873 14.6658 37.2484 14.7626 37.0974 14.9522L36.0553 16.2613L34.5763 15.6015L34.8498 13.9522C34.8892 13.7152 34.8034 13.4747 34.6232 13.3159C34.3425 13.0686 34.0902 12.8022 33.8737 12.524C33.7248 12.3327 33.487 12.2327 33.2463 12.26L31.5844 12.4479L31.0046 10.937L32.3658 9.96249C32.5623 9.82187 32.6718 9.58912 32.655 9.348C32.6294 8.98102 32.6386 8.61573 32.6825 8.26233C32.7122 8.0219 32.615 7.78336 32.4257 7.63246L31.1184 6.58971L31.7765 5.11071L33.4283 5.38417C33.6661 5.42389 33.9082 5.33676 34.0668 5.15482C34.3025 4.88425 34.5681 4.63244 34.8559 4.40619C35.0455 4.25728 35.1444 4.02094 35.1176 3.78151L34.9317 2.11917L36.4428 1.53911L37.4145 2.89954C37.5551 3.09656 37.7888 3.20524 38.0294 3.18938C38.3844 3.16432 38.7521 3.17391 39.1224 3.21742C39.3616 3.24596 39.5981 3.14786 39.7481 2.95953L40.7881 1.65279L42.2685 2.3108L41.993 3.96176C41.953 4.20129 42.0408 4.44441 42.2246 4.6031C42.4887 4.83125 42.7398 5.09604 42.9709 5.39016C43.1197 5.57979 43.3562 5.67909 43.5955 5.65195L45.2608 5.46591L45.8408 6.97705L44.4804 7.94884C44.2833 8.08946 44.1737 8.32241 44.1905 8.56393C44.2156 8.92173 44.2055 9.28791 44.1603 9.6521C44.1304 9.89283 44.2281 10.1319 44.4181 10.2828L45.7267 11.3224L45.0671 12.8029ZM39.9502 5.53008C39.0356 5.12159 38.0165 5.09404 37.0807 5.45244C36.144 5.81143 35.4036 6.51375 34.9963 7.42926C34.5874 8.34406 34.5596 9.36327 34.9182 10.2991C35.2772 11.2359 35.9795 11.9763 36.896 12.3842C37.3908 12.6045 37.9081 12.7087 38.4177 12.7087C39.8552 12.7086 41.2293 11.8789 41.8502 10.484C42.6915 8.59338 41.8392 6.37103 39.9502 5.53008ZM40.5782 9.91798C40.0493 11.1061 38.6515 11.6421 37.4619 11.1125C36.8856 10.856 36.4439 10.3904 36.2181 9.80121C35.9927 9.21296 36.0101 8.57232 36.2675 7.99635C36.524 7.41998 36.9895 6.97834 37.5787 6.75249C37.8527 6.64749 38.138 6.59519 38.4227 6.59519C38.7494 6.59519 39.0755 6.66406 39.3828 6.80139C39.3825 6.80119 39.3831 6.80149 39.3828 6.80139C40.5708 7.33015 41.1077 8.72851 40.5782 9.91798ZM41.3963 35.9706V41.7112C41.3963 42.0957 41.0847 42.4073 40.7003 42.4073C40.3158 42.4073 40.0042 42.0957 40.0042 41.7112V35.9706C40.0042 35.5861 40.3158 35.2745 40.7003 35.2745C41.0847 35.2745 41.3963 35.5861 41.3963 35.9706Z" fill="url(#paint0_linear_844_2791)"/>
<defs>
<linearGradient id="paint0_linear_844_2791" x1="18.6351" y1="74.837" x2="71.5707" y2="35.103" gradientUnits="userSpaceOnUse">
<stop stop-color="#9358F7"/>
<stop offset="0.259732" stop-color="#7B78F2"/>
<stop offset="0.500607" stop-color="#6197EE"/>
<stop offset="0.766547" stop-color="#45B5E9"/>
<stop offset="1" stop-color="#10D7E2"/>
</linearGradient>
</defs>
</svg>
