<svg width="130" height="130" viewBox="0 0 130 130" fill="none" xmlns="http://www.w3.org/2000/svg">
    <g opacity="0.3">
        <path
            d="M107.865 51.7754C107.865 30.2024 99.2354 21.5731 77.6623 21.5731H51.7746C30.2015 21.5731 21.5723 30.2024 21.5723 51.7754V77.6631C21.5723 99.2362 30.2015 107.865 51.7746 107.865"
            stroke="#126CAB" stroke-width="5" stroke-linecap="round" stroke-linejoin="round" />
        <path
            d="M88.179 43.1462C85.2127 39.3709 80.2509 37.7529 72.8082 37.7529H56.6284C43.1452 37.7529 37.752 43.1462 37.752 56.6294V72.8092C37.752 80.2519 39.3699 85.2137 43.0913 88.18"
            stroke="#126CAB" stroke-width="5" stroke-linecap="round" stroke-linejoin="round" />
        <path d="M43.1992 21.573V10.7865" stroke="#126CAB" stroke-width="5" stroke-linecap="round"
            stroke-linejoin="round" />
        <path d="M64.7188 21.5729V10.7864" stroke="#126CAB" stroke-width="5" stroke-linecap="round"
            stroke-linejoin="round" />
        <path d="M86.293 21.573V10.7865" stroke="#126CAB" stroke-width="5" stroke-linecap="round"
            stroke-linejoin="round" />
        <path d="M107.865 43.1461H118.652" stroke="#126CAB" stroke-width="5" stroke-linecap="round"
            stroke-linejoin="round" />
        <path d="M43.1992 107.865V118.652" stroke="#126CAB" stroke-width="5" stroke-linecap="round"
            stroke-linejoin="round" />
        <path d="M10.7871 43.1461H21.5737" stroke="#126CAB" stroke-width="5" stroke-linecap="round"
            stroke-linejoin="round" />
        <path d="M10.7871 64.7192H21.5737" stroke="#126CAB" stroke-width="5" stroke-linecap="round"
            stroke-linejoin="round" />
        <path d="M10.7871 86.2924H21.5737" stroke="#126CAB" stroke-width="5" stroke-linecap="round"
            stroke-linejoin="round" />
        <path
            d="M90.1222 100.26C94.8582 100.26 98.6975 96.4212 98.6975 91.6852C98.6975 86.9492 94.8582 83.1099 90.1222 83.1099C85.3862 83.1099 81.5469 86.9492 81.5469 91.6852C81.5469 96.4212 85.3862 100.26 90.1222 100.26Z"
            stroke="#126CAB" stroke-width="5" stroke-miterlimit="10" stroke-linecap="round" stroke-linejoin="round" />
        <path
            d="M61.5371 94.1665V89.1507C61.5371 86.1844 63.9641 83.7575 66.9304 83.7575C72.1079 83.7575 74.2113 80.0901 71.6225 75.6136C70.1124 73.0249 71.0293 69.681 73.618 68.2249L78.5259 65.3664C80.7911 64.0181 83.7035 64.8271 85.0518 67.0923L85.3754 67.6316C87.9641 72.108 92.1709 72.108 94.7597 67.6316L95.0832 67.0923C96.4316 64.8271 99.3439 64.072 101.609 65.3664L106.517 68.2249C109.106 69.735 110.023 73.0249 108.512 75.6136C105.924 80.0901 108.027 83.7575 113.205 83.7575C116.171 83.7575 118.598 86.1844 118.598 89.1507V94.1665C118.598 97.1328 116.171 99.5597 113.205 99.5597C108.027 99.5597 105.924 103.227 108.512 107.704C110.023 110.292 109.106 113.636 106.517 115.092L101.609 117.951C99.3439 119.299 96.4316 118.49 95.0832 116.225L94.7597 115.686C92.1709 111.209 87.9641 111.209 85.3754 115.686L85.0518 116.225C83.7035 118.49 80.7911 119.245 78.5259 117.951L73.618 115.092C71.0293 113.582 70.1124 110.292 71.6225 107.704C74.2113 103.227 72.1079 99.5597 66.9304 99.5597C63.9641 99.6137 61.5371 97.1867 61.5371 94.1665Z"
            stroke="#126CAB" stroke-width="5" stroke-miterlimit="10" stroke-linecap="round" stroke-linejoin="round" />
    </g>
</svg>