<svg width="75" height="80" viewBox="0 0 75 80" fill="none" xmlns="http://www.w3.org/2000/svg">
<g id="Group 12863">
<path id="Vector" d="M41.2532 77C40.5403 78.341 39.1261 79.25 37.504 79.25C35.8819 79.25 34.4677 78.341 33.7548 77H41.2532Z" stroke="#126CAB" stroke-width="1.5"/>
<path id="Vector_2" d="M66.2532 77C65.5403 78.341 64.1261 79.25 62.504 79.25C60.8819 79.25 59.4677 78.341 58.7548 77H66.2532Z" stroke="#126CAB" stroke-width="1.5"/>
<path id="Vector_3" d="M57 53.25H68V54.25H57V53.25Z" stroke="#126CAB" stroke-width="1.5"/>
<path id="Vector_4" d="M41.75 60C41.75 60.2761 41.5261 60.5 41.25 60.5C40.9739 60.5 40.75 60.2761 40.75 60C40.75 59.7239 40.9739 59.5 41.25 59.5C41.5261 59.5 41.75 59.7239 41.75 60Z" stroke="#126CAB" stroke-width="1.5"/>
<path id="Vector_5" d="M41.75 50C41.75 50.2761 41.5261 50.5 41.25 50.5C40.9739 50.5 40.75 50.2761 40.75 50C40.75 49.7239 40.9739 49.5 41.25 49.5C41.5261 49.5 41.75 49.7239 41.75 50Z" stroke="#126CAB" stroke-width="1.5"/>
<path id="Vector_6" d="M32 53.75V53H31.25H28.75C22.9642 53 18.25 48.2857 18.25 42.5V21.25C18.25 18.0733 15.6767 15.5 12.5 15.5C9.32326 15.5 6.75 18.0733 6.75 21.25V23H5.75V21.25C5.75 17.5267 8.77672 14.5 12.5 14.5C16.2233 14.5 19.25 17.5267 19.25 21.25V42.5C19.25 47.7392 23.5108 52 28.75 52H37.2297C37.9633 53.4746 39.4877 54.5 41.25 54.5C43.7268 54.5 45.75 52.4767 45.75 50C45.75 47.5233 43.7267 45.5 41.25 45.5C39.4877 45.5 37.9633 46.5253 37.2297 48H32V42H68V44.25H55C53.8983 44.25 53 45.1483 53 46.25V61.25C53 62.3517 53.8983 63.25 55 63.25H68V65.5H32V53.75ZM45.75 60C45.75 57.5233 43.7267 55.5 41.25 55.5C38.7733 55.5 36.75 57.5233 36.75 60C36.75 62.4767 38.7732 64.5 41.25 64.5C43.7268 64.5 45.75 62.4767 45.75 60Z" stroke="#126CAB" stroke-width="1.5"/>
<path id="Vector_7" d="M30 69.5H70C70.2761 69.5 70.5 69.7239 70.5 70V72.5C70.5 72.7761 70.2761 73 70 73H30C29.7239 73 29.5 72.7761 29.5 72.5V70C29.5 69.7239 29.7239 69.5 30 69.5Z" stroke="#126CAB" stroke-width="1.5"/>
<path id="Vector_8" d="M57 58.25H68V59.25H57V58.25Z" stroke="#126CAB" stroke-width="1.5"/>
<path id="Vector_9" d="M57 48.25H68V49.25H57V48.25Z" stroke="#126CAB" stroke-width="1.5"/>
<path id="Vector_10" d="M3.75 27H8.75C9.7165 27 10.5 27.7835 10.5 28.75V37.5C10.5 38.4665 9.7165 39.25 8.75 39.25H3.75C2.7835 39.25 2 38.4665 2 37.5V28.75C2 27.7835 2.7835 27 3.75 27Z" stroke="#126CAB" stroke-width="1.5"/>
<path id="Vector_11" d="M5.75 45.275V43.25H6.75V45.2745V45.8601L7.3181 46.0021L11.3713 47.0154C11.5941 47.0712 11.75 47.271 11.75 47.5V52.5C11.75 52.7765 11.5263 53 11.25 53C10.9737 53 10.75 52.7765 10.75 52.5V48.4766V47.8911L10.1821 47.749L6.43086 46.8102L6.24888 46.7647L6.06688 46.8102L2.3181 47.7474L1.75 47.8894V48.475V52.5C1.75 52.7733 1.52327 53 1.25 53C0.976729 53 0.75 52.7733 0.75 52.5V47.5C0.75 47.2675 0.904329 47.0707 1.12817 47.016L1.12817 47.016L1.13191 47.0151L5.1819 46.0026L5.75 45.8605V45.275Z" stroke="#126CAB" stroke-width="1.5"/>
<path id="Vector_12" d="M48.0921 20.0152L45.6659 11.9257L45.6657 11.9251C45.4377 11.167 44.7855 10.6133 43.9974 10.5155L43.9974 10.5154L43.9914 10.5148C43.2245 10.4259 42.4458 10.7859 42.0351 11.4708C42.0351 11.4709 42.035 11.471 42.0349 11.4711L38.8674 16.75H35C34.2471 16.75 33.5912 17.1658 33.25 17.7808V7H66.75V28H33.25V19.7192C33.5912 20.3342 34.2471 20.75 35 20.75H40C40.7033 20.75 41.3536 20.3807 41.7147 19.7795L41.7149 19.7792L43.1351 17.412L45.584 25.5739C45.8124 26.3372 46.4721 26.8919 47.2628 26.9861C47.3471 26.9963 47.4262 27 47.5 27C48.2046 27 48.8664 26.6276 49.2281 26.0079L49.2282 26.0078L55.6151 15.0584L56.8265 19.299L56.8266 19.2995C57.0725 20.1581 57.8572 20.75 58.75 20.75H63.75C64.8551 20.75 65.75 19.8551 65.75 18.75C65.75 17.6449 64.8551 16.75 63.75 16.75H60.2582L58.1736 9.45102L58.1735 9.4507C57.9531 8.68022 57.295 8.11527 56.4995 8.01559L56.4995 8.01554L56.4913 8.0146C55.7018 7.92454 54.9274 8.29547 54.5216 8.99267C54.5215 8.99274 54.5215 8.99282 54.5214 8.9929L48.0921 20.0152Z" stroke="#126CAB" stroke-width="1.5"/>
<path id="Vector_13" d="M26.25 0.75H73.75C74.0262 0.75 74.25 0.97383 74.25 1.25V37.5C74.25 37.7761 74.0261 38 73.75 38H26.25C25.9739 38 25.75 37.7761 25.75 37.5V1.25C25.75 0.97383 25.9738 0.75 26.25 0.75ZM31.25 37H42.5C43.6051 37 44.5 36.1051 44.5 35C44.5 33.8949 43.6051 33 42.5 33H31.25C30.1457 33 29.25 33.8946 29.25 35C29.25 36.1054 30.1457 37 31.25 37ZM45.5 35C45.5 36.1045 46.3954 37 47.5 37C48.6046 37 49.5 36.1045 49.5 35C49.5 33.8954 48.6046 33 47.5 33C46.3954 33 45.5 33.8954 45.5 35ZM50.5 35C50.5 36.1045 51.3954 37 52.5 37C53.6046 37 54.5 36.1045 54.5 35C54.5 33.8954 53.6046 33 52.5 33C51.3954 33 50.5 33.8954 50.5 35ZM68.75 32C69.8551 32 70.75 31.1051 70.75 30V5C70.75 3.89487 69.8551 3 68.75 3H31.25C30.1457 3 29.25 3.89463 29.25 5V30C29.25 31.1054 30.1457 32 31.25 32H68.75Z" stroke="#126CAB" stroke-width="1.5"/>
</g>
</svg>
