<svg width="81" height="80" viewBox="0 0 81 80" fill="none" xmlns="http://www.w3.org/2000/svg">
<g id="Group 12860">
<path id="Vector" d="M79.1666 40.0001H77.5879C77.7454 39.573 77.8288 39.1218 77.8333 38.6667C77.8307 36.4584 76.0416 34.6694 73.8333 34.6667H7.16666C4.95833 34.6694 3.16927 36.4584 3.16667 38.6667C3.17122 39.1218 3.25456 39.573 3.41276 40.0001H1.83333C1.097 40.0001 0.5 40.5971 0.5 41.3334V46.6667C0.5 47.4031 1.097 48.0001 1.83333 48.0001H35.1667V53.3334H33.8333C33.097 53.3334 32.5 53.9304 32.5 54.6667V66.6667H15.1667C14.4303 66.6667 13.8333 67.2637 13.8333 68.0001V73.3334C13.8333 74.0697 14.4303 74.6667 15.1667 74.6667H16.5C16.5 77.612 18.888 80.0001 21.8333 80.0001C24.7786 80.0001 27.1667 77.612 27.1667 74.6667H53.8333C53.8333 77.612 56.2213 80.0001 59.1666 80.0001C62.112 80.0001 64.5 77.612 64.5 74.6667H65.8333C66.5696 74.6667 67.1666 74.0697 67.1666 73.3334V68.0001C67.1666 67.2637 66.5696 66.6667 65.8333 66.6667H48.5V54.6667C48.5 53.9304 47.903 53.3334 47.1667 53.3334H45.8333V48.0001H79.1666C79.903 48.0001 80.5 47.4031 80.5 46.6667V41.3334C80.5 40.5971 79.903 40.0001 79.1666 40.0001ZM7.16666 37.3334H73.8333C74.5696 37.3334 75.1666 37.9304 75.1666 38.6667C75.1666 39.4031 74.5696 40.0001 73.8333 40.0001H7.16666C6.43034 40.0001 5.83333 39.4031 5.83333 38.6667C5.83333 37.9304 6.43034 37.3334 7.16666 37.3334ZM35.1667 56.0001H45.8333V66.6667H35.1667V56.0001ZM37.8333 53.3334V48.0001H43.1667V53.3334H37.8333ZM21.8333 77.3334C20.3613 77.3315 19.1686 76.1387 19.1667 74.6667H24.5C24.498 76.1387 23.3053 77.3315 21.8333 77.3334ZM59.1666 77.3334C57.6946 77.3315 56.5019 76.1387 56.5 74.6667H61.8333C61.8314 76.1387 60.6387 77.3315 59.1666 77.3334ZM64.5 69.3334V72.0001H16.5V69.3334H64.5ZM77.8333 45.3334H3.16667V42.6667H77.8333V45.3334Z" fill="#126CAB"/>
<path id="Vector_2" d="M63.1668 14.6667V9.33333C63.1486 9.17838 63.118 9.02474 63.0744 8.875C63.0633 8.84505 63.0568 8.8151 63.0438 8.78646C63.0366 8.77018 63.034 8.75325 63.0262 8.73698C62.8478 8.38021 58.4513 0 40.5002 0C22.549 0 18.1525 8.38021 17.9741 8.73698C17.9663 8.75325 17.9637 8.77018 17.9565 8.78646C17.9435 8.8151 17.937 8.84505 17.9259 8.875C17.8823 9.02474 17.8517 9.17838 17.8335 9.33333V14.6667C17.8335 15.403 18.4305 16 19.1668 16H21.8335C21.8335 18.9453 24.2215 21.3333 27.1668 21.3333C30.1121 21.3333 32.5002 18.9453 32.5002 16H35.1668C35.1668 18.9453 37.5548 21.3333 40.5002 21.3333C43.4455 21.3333 45.8335 18.9453 45.8335 16H48.5002C48.5002 18.9453 50.8882 21.3333 53.8335 21.3333C56.7788 21.3333 59.1668 18.9453 59.1668 16H61.8335C62.5698 16 63.1668 15.403 63.1668 14.6667ZM40.5002 2.66667C51.2293 2.66667 56.5796 5.84765 58.9709 8H22.0321C24.4266 5.84505 29.7769 2.66667 40.5002 2.66667ZM27.1668 18.6667C25.6948 18.6647 24.5021 17.472 24.5002 16H29.8335C29.8315 17.472 28.6388 18.6647 27.1668 18.6667ZM40.5002 18.6667C39.0282 18.6647 37.8354 17.472 37.8335 16H43.1668C43.1649 17.472 41.9722 18.6647 40.5002 18.6667ZM53.8335 18.6667C52.3615 18.6647 51.1688 17.472 51.1668 16H56.5002C56.4982 17.472 55.3055 18.6647 53.8335 18.6667ZM60.5002 13.3333H20.5002V10.6667H60.5002V13.3333Z" fill="#126CAB"/>
<path id="Vector_3" d="M18.2241 24.3905L20.8908 21.7239L22.7762 23.6093L20.1095 26.276L18.2241 24.3905Z" fill="#126CAB"/>
<path id="Vector_4" d="M12.8906 29.724L15.5573 27.0574L17.4427 28.9428L14.776 31.6095L12.8906 29.724Z" fill="#126CAB"/>
<path id="Vector_5" d="M58.2241 23.6093L60.1095 21.7239L62.7762 24.3905L60.8908 26.276L58.2241 23.6093Z" fill="#126CAB"/>
<path id="Vector_6" d="M63.5571 28.9428L65.4425 27.0574L68.1092 29.724L66.2238 31.6095L63.5571 28.9428Z" fill="#126CAB"/>
<path id="Vector_7" d="M39.1665 24H41.8332V26.6667H39.1665V24Z" fill="#126CAB"/>
<path id="Vector_8" d="M39.1665 29.3333H41.8332V31.9999H39.1665V29.3333Z" fill="#126CAB"/>
<path id="Vector_9" d="M28.6406 26.0702L29.974 23.4036L32.3594 24.5963L31.026 27.2629L28.6406 26.0702Z" fill="#126CAB"/>
<path id="Vector_10" d="M25.9741 31.4037L27.3075 28.7371L29.6929 29.9298L28.3595 32.5964L25.9741 31.4037Z" fill="#126CAB"/>
<path id="Vector_11" d="M48.6406 24.5963L51.026 23.4036L52.3594 26.0702L49.974 27.2629L48.6406 24.5963Z" fill="#126CAB"/>
<path id="Vector_12" d="M51.3071 29.9298L53.6925 28.7371L55.0259 31.4037L52.6405 32.5964L51.3071 29.9298Z" fill="#126CAB"/>
</g>
</svg>
