<svg width="53" height="56" viewBox="0 0 53 56" fill="none" xmlns="http://www.w3.org/2000/svg">
<path d="M5.13477 18.0117L27.4311 29.8462L27.0399 52.7755L5.13477 40.941V18.0117Z" fill="#3393D6"/>
<path d="M27.8173 4.32812L50.5048 16.5324L40.3345 21.71L17.2559 9.87554L27.8173 4.32812Z" fill="#3393D6"/>
<path d="M51.984 40.7106V17.5029C51.9821 17.1677 51.8868 16.8389 51.7076 16.5496C51.5284 16.2604 51.2717 16.0209 50.9633 15.8553L29.0557 4.20446C28.7605 4.04333 28.4257 3.9585 28.0848 3.9585C27.7439 3.9585 27.4091 4.04333 27.1139 4.20446L5.20624 15.8553C4.89792 16.0209 4.64121 16.2604 4.46201 16.5496C4.28281 16.8389 4.18745 17.1677 4.18555 17.5029V40.7106C4.18745 41.0458 4.28281 41.3746 4.46201 41.6639C4.64121 41.9531 4.89792 42.1926 5.20624 42.3582L27.1139 54.009C27.4091 54.1702 27.7439 54.255 28.0848 54.255C28.4257 54.255 28.7605 54.1702 29.0557 54.009L50.9633 42.3582C51.2717 42.1926 51.5284 41.9531 51.7076 41.6639C51.8868 41.3746 51.9821 41.0458 51.984 40.7106V40.7106Z" stroke="#1C1F35" stroke-width="2" stroke-linecap="round" stroke-linejoin="round"/>
<path d="M40.283 34.8732V22.6339L16.1348 10.0415" stroke="#1C1F35" stroke-width="2" stroke-linecap="round" stroke-linejoin="round"/>
<path d="M51.7098 16.5381L28.3084 29.1069L4.45898 16.5381" stroke="#1C1F35" stroke-width="2" stroke-linecap="round" stroke-linejoin="round"/>
<path d="M28.3061 29.1064L28.082 54.2441" stroke="#1C1F35" stroke-width="2" stroke-linecap="round" stroke-linejoin="round"/>
<path d="M1.99936 13.0696L13.248 6.91699" stroke="#1C1F35" stroke-width="2" stroke-linecap="round" stroke-linejoin="round"/>
<path d="M32.5112 0.999762L43.7656 7.14307" stroke="#1C1F35" stroke-width="2" stroke-linecap="round" stroke-linejoin="round"/>
<path d="M43.7642 41.6809L32.5098 47.8242" stroke="#1C1F35" stroke-width="2" stroke-linecap="round" stroke-linejoin="round"/>
</svg>
