<svg width="37" height="50" viewBox="0 0 37 50" fill="none" xmlns="http://www.w3.org/2000/svg">
<path d="M19.9919 15.7318L18.215 10.2754L16.4382 15.7318H10.6953L15.3452 19.1033L13.5676 24.5622L18.215 21.1964L22.8625 24.5655L21.0848 19.1066L25.7347 15.7318H19.9919ZM19.7112 20.2318L18.215 19.1472L16.7189 20.2318L17.2927 18.4716L15.799 17.3877H17.6404L18.215 15.6233L18.7896 17.3877H20.6311L19.1407 18.4716L19.7112 20.2318Z" fill="url(#paint0_linear_848_3033)"/>
<path d="M35.1113 21.0514C35.8527 20.278 36.3168 19.2807 36.4311 18.2155C36.3168 17.1503 35.8527 16.153 35.1113 15.3797C34.7299 14.9516 34.4264 14.4601 34.2146 13.9274C34.1244 13.3355 34.1393 12.7324 34.2585 12.1456C34.5046 11.1311 34.4112 10.0641 33.9927 9.10777C33.3669 8.2563 32.4779 7.6349 31.4632 7.34003C30.9049 7.15519 30.3838 6.87285 29.924 6.50626C29.558 6.04652 29.2764 5.52573 29.0919 4.96787C28.7966 3.95339 28.175 3.06456 27.3233 2.43923C26.366 2.01944 25.2971 1.92578 24.2813 2.17262C23.6945 2.29133 23.0914 2.30623 22.4995 2.2165C21.9671 2.00443 21.4759 1.70098 21.0481 1.3198C20.2757 0.578964 19.2796 0.114882 18.2155 0C17.1503 0.114261 16.153 0.578343 15.3797 1.3198C14.9516 1.70119 14.4601 2.00464 13.9274 2.2165C13.3355 2.30623 12.7325 2.29133 12.1456 2.17262C11.1312 1.92619 10.064 2.01954 9.10777 2.4384C8.2563 3.06414 7.6349 3.95319 7.34003 4.96787C7.15519 5.52614 6.87285 6.04725 6.50626 6.50709C6.04652 6.87305 5.52573 7.15477 4.96787 7.33921C3.95339 7.63448 3.06456 8.25609 2.43923 9.10777C2.01944 10.0651 1.92578 11.1339 2.17262 12.1498C2.29174 12.7365 2.30665 13.3397 2.2165 13.9316C2.00443 14.464 1.70098 14.9552 1.3198 15.383C0.578964 16.1554 0.114882 17.1515 0 18.2155C0.114261 19.2807 0.578343 20.278 1.3198 21.0514C1.70119 21.4794 2.00464 21.9709 2.2165 22.5036C2.30665 23.0955 2.29174 23.6987 2.17262 24.2855C1.9265 25.2998 2.01985 26.367 2.4384 27.3233C3.06414 28.1748 3.95319 28.7962 4.96787 29.091C5.52614 29.276 6.04725 29.5582 6.50709 29.9248C6.87305 30.3846 7.15477 30.9054 7.33921 31.4632L7.45181 31.7323V50L18.2155 46.4115L28.9793 50V31.7315C29.0165 31.642 29.0546 31.5526 29.091 31.4649C29.2759 30.9066 29.5582 30.3855 29.9248 29.9256C30.3845 29.5592 30.9053 29.2768 31.4632 29.0919C32.4777 28.7966 33.3665 28.175 33.9919 27.3233C34.4116 26.3659 34.5053 25.2971 34.2585 24.2813C34.1393 23.6946 34.1244 23.0914 34.2146 22.4995C34.427 21.9684 34.7304 21.4783 35.1113 21.0514ZM27.3233 41.399H24.8394V43.0549H27.3233V47.7015L19.0435 44.9427V38.915H17.3876V44.9427L9.10777 47.7015V39.743H14.9036V38.087H9.10777V33.9935C10.0646 34.4112 11.1318 34.5043 12.1465 34.2585C12.7333 34.1402 13.3363 34.1253 13.9283 34.2146C14.4607 34.4266 14.9519 34.7301 15.3797 35.1113C16.153 35.8527 17.1503 36.3168 18.2155 36.4311C19.2807 36.3168 20.278 35.8527 21.0514 35.1113C21.4794 34.7299 21.9709 34.4264 22.5036 34.2146C23.0956 34.1254 23.6986 34.1402 24.2855 34.2585C25.2998 34.5045 26.3669 34.4114 27.3233 33.9935V41.399ZM33.7973 20.0421C33.2747 20.6361 32.8734 21.3267 32.6157 22.0747C32.4584 22.8747 32.4584 23.6975 32.6157 24.4974C32.7853 25.1555 32.7655 25.8481 32.5586 26.4953C32.0959 27.0081 31.4959 27.3775 30.8298 27.5601C30.0667 27.8186 29.3616 28.224 28.7541 28.7532C28.2249 29.3608 27.8195 30.0659 27.5609 30.829C27.3785 31.4958 27.0087 32.0964 26.4953 32.5595C25.8476 32.7657 25.155 32.7855 24.4966 32.6166C23.6971 32.4584 22.8743 32.4584 22.0747 32.6166C21.3263 32.874 20.6355 33.2753 20.0412 33.7981C19.5403 34.2939 18.906 34.6333 18.2155 34.7751C17.5247 34.6332 16.8902 34.2935 16.389 33.7973C15.7949 33.2747 15.1044 32.8734 14.3563 32.6157C14.0262 32.5308 13.6863 32.4898 13.3454 32.494C12.874 32.5045 12.4039 32.5454 11.9378 32.6166C11.2784 32.787 10.5842 32.767 9.93575 32.5586C9.42302 32.0959 9.05354 31.4959 8.87097 30.8298C8.61243 30.0667 8.20703 29.3616 7.67785 28.7541C7.07032 28.2249 6.36519 27.8195 5.60211 27.5609C4.93527 27.3785 4.33468 27.0087 3.87163 26.4953C3.66453 25.8477 3.64466 25.1549 3.8145 24.4966C3.97182 23.697 3.97182 22.8744 3.8145 22.0747C3.5571 21.3263 3.15574 20.6355 2.63297 20.0412C2.13722 19.5403 1.79775 18.906 1.65596 18.2155C1.79785 17.5247 2.13753 16.8902 2.6338 16.389C3.15636 15.7949 3.55772 15.1044 3.81533 14.3563C3.97264 13.5564 3.97264 12.7336 3.81533 11.9337C3.6458 11.2756 3.66557 10.583 3.87246 9.93575C4.3352 9.42302 4.93517 9.05354 5.60128 8.87097C6.36436 8.61243 7.06949 8.20714 7.67702 7.67785C8.2062 7.07032 8.6116 6.36519 8.87014 5.60211C9.05261 4.93527 9.4224 4.33468 9.93575 3.87163C10.5833 3.66495 11.2761 3.64518 11.9345 3.8145C12.734 3.97306 13.5568 3.97306 14.3563 3.8145C15.1048 3.5571 15.7956 3.15574 16.3898 2.63297C16.8908 2.13722 17.5251 1.79775 18.2155 1.65596C18.9064 1.79785 19.5409 2.13753 20.0421 2.6338C20.6361 3.15636 21.3267 3.55772 22.0747 3.81533C22.8745 3.97389 23.6977 3.97389 24.4974 3.81533C25.1556 3.64632 25.848 3.66608 26.4953 3.87246C27.0081 4.3352 27.3775 4.93517 27.5601 5.60128C27.8186 6.36436 28.2239 7.06949 28.7532 7.67702C29.3608 8.2062 30.0659 8.6116 30.829 8.87014C31.4958 9.05261 32.0964 9.4224 32.5595 9.93575C32.7665 10.5833 32.7864 11.2761 32.6166 11.9345C32.4593 12.7341 32.4593 13.5567 32.6166 14.3563C32.874 15.1048 33.2753 15.7956 33.7981 16.3898C34.2939 16.8908 34.6333 17.5251 34.7751 18.2155C34.6332 18.9064 34.2935 19.5409 33.7973 20.0421Z" fill="url(#paint1_linear_848_3033)"/>
<path d="M18.2164 4.96802C10.9 4.96802 4.96875 10.8992 4.96875 18.2157C4.96875 25.5321 10.9 31.4633 18.2164 31.4633C25.5329 31.4633 31.4641 25.5321 31.4641 18.2157C31.4554 10.9028 25.5293 4.97671 18.2164 4.96802ZM29.8081 18.2157C29.7995 22.9563 26.9116 27.2162 22.5111 28.9794C16.5648 31.3514 9.82153 28.4537 7.44969 22.5074C5.07773 16.5611 7.97535 9.8178 13.9217 7.44595C19.868 5.074 26.6113 7.97162 28.9831 13.918C29.5286 15.2852 29.8085 16.7437 29.8081 18.2157Z" fill="url(#paint2_linear_848_3033)"/>
<path d="M23.1833 41.3989H21.5273V43.0549H23.1833V41.3989Z" fill="url(#paint3_linear_848_3033)"/>
<defs>
<linearGradient id="paint0_linear_848_3033" x1="16.6105" y1="31.2446" x2="31.8566" y2="18.2804" gradientUnits="userSpaceOnUse">
<stop stop-color="#9358F7"/>
<stop offset="0.259732" stop-color="#7B78F2"/>
<stop offset="0.500607" stop-color="#6197EE"/>
<stop offset="0.766547" stop-color="#45B5E9"/>
<stop offset="1" stop-color="#10D7E2"/>
</linearGradient>
<linearGradient id="paint1_linear_848_3033" x1="14.3288" y1="73.3696" x2="61.5866" y2="45.5491" gradientUnits="userSpaceOnUse">
<stop stop-color="#9358F7"/>
<stop offset="0.259732" stop-color="#7B78F2"/>
<stop offset="0.500607" stop-color="#6197EE"/>
<stop offset="0.766547" stop-color="#45B5E9"/>
<stop offset="1" stop-color="#10D7E2"/>
</linearGradient>
<linearGradient id="paint2_linear_848_3033" x1="15.3897" y1="43.8471" x2="43.3909" y2="21.2232" gradientUnits="userSpaceOnUse">
<stop stop-color="#9358F7"/>
<stop offset="0.259732" stop-color="#7B78F2"/>
<stop offset="0.500607" stop-color="#6197EE"/>
<stop offset="0.766547" stop-color="#45B5E9"/>
<stop offset="1" stop-color="#10D7E2"/>
</linearGradient>
<linearGradient id="paint3_linear_848_3033" x1="22.1787" y1="43.8289" x2="23.9287" y2="42.4149" gradientUnits="userSpaceOnUse">
<stop stop-color="#9358F7"/>
<stop offset="0.259732" stop-color="#7B78F2"/>
<stop offset="0.500607" stop-color="#6197EE"/>
<stop offset="0.766547" stop-color="#45B5E9"/>
<stop offset="1" stop-color="#10D7E2"/>
</linearGradient>
</defs>
</svg>
