<svg width="71" height="51" viewBox="0 0 71 51" fill="none" xmlns="http://www.w3.org/2000/svg">
<path d="M67.543 21.1428L62.953 20.3778C62.5843 19.0949 62.0749 17.8568 61.434 16.6859L64.1393 12.8941C64.6917 12.1277 64.9518 11.189 64.8725 10.2475C64.7932 9.3061 64.3797 8.42409 63.7069 7.76087L63.086 7.14C62.422 6.4717 61.5415 6.06213 60.6026 5.98491C59.6637 5.90768 58.7281 6.16787 57.9638 6.7187L54.1832 9.42392C53.0114 8.785 51.7734 8.27569 50.4912 7.905L49.7262 3.32609C49.5759 2.39686 49.0994 1.55162 48.3821 0.942044C47.6649 0.33247 46.7538 -0.00152333 45.8125 5.22346e-06H44.9145C43.9732 -0.00152333 43.0622 0.33247 42.3449 0.942044C41.6276 1.55162 41.1511 2.39686 41.0008 3.32609L40.8012 4.52348C40.1693 4.43479 40.6238 4.43479 31.1001 4.43479C30.8061 4.43479 30.5241 4.5516 30.3162 4.75952C30.1083 4.96744 29.9914 5.24944 29.9914 5.54348C29.9914 5.83753 30.1083 6.11953 30.3162 6.32745C30.5241 6.53537 30.8061 6.65218 31.1001 6.65218H39.9697C40.5578 6.65218 41.1218 6.8858 41.5376 7.30164C41.9535 7.71748 42.1871 8.28148 42.1871 8.86957V15.5217C42.1871 16.1098 41.9535 16.6738 41.5376 17.0897C41.1218 17.5055 40.5578 17.7391 39.9697 17.7391H4.49145C3.90336 17.7391 3.33936 17.5055 2.92352 17.0897C2.50767 16.6738 2.27406 16.1098 2.27406 15.5217V8.86957C2.27406 8.28148 2.50767 7.71748 2.92352 7.30164C3.33936 6.8858 3.90336 6.65218 4.49145 6.65218H21.1219C21.4159 6.65218 21.6979 6.53537 21.9058 6.32745C22.1138 6.11953 22.2306 5.83753 22.2306 5.54348C22.2306 5.24944 22.1138 4.96744 21.9058 4.75952C21.6979 4.5516 21.4159 4.43479 21.1219 4.43479H4.49145C3.31527 4.43479 2.18727 4.90202 1.35558 5.7337C0.523901 6.56539 0.0566667 7.69339 0.0566667 8.86957C0.0566667 15.1226 -0.453333 17.0628 1.58667 18.8478C-0.420072 20.5996 0.0566667 22.2515 0.0566667 28.8261C0.0602293 29.4575 0.198565 30.0808 0.462421 30.6544C0.726277 31.228 1.10957 31.7386 1.58667 32.1522C-0.420072 33.9039 0.0566667 35.5559 0.0566667 42.1304C0.0566667 43.3066 0.523901 44.4346 1.35558 45.2663C2.18727 46.098 3.31527 46.5652 4.49145 46.5652C42.9854 46.5652 40.136 46.5652 40.8012 46.4765L41.0008 47.6739C41.1511 48.6031 41.6276 49.4484 42.3449 50.058C43.0622 50.6675 43.9732 51.0015 44.9145 51H45.8125C46.7538 51.0015 47.6649 50.6675 48.3821 50.058C49.0994 49.4484 49.5759 48.6031 49.7262 47.6739L50.4912 43.0839C51.7734 42.7132 53.0114 42.2039 54.1832 41.565C58.2854 44.503 60.148 46.787 63.7069 43.228C64.3769 42.5655 64.7885 41.6856 64.8677 40.7467C64.947 39.8078 64.6887 38.8714 64.1393 38.1059L61.434 34.3696C62.0749 33.1987 62.5843 31.9605 62.953 30.6776L67.543 29.9126C68.4732 29.7644 69.3197 29.2885 69.9297 28.5708C70.5396 27.853 70.8728 26.9408 70.869 25.9989V25.112C70.8862 24.1606 70.5591 23.235 69.9479 22.5057C69.3368 21.7763 68.4827 21.2924 67.543 21.1428ZM44.2382 16.6304C45.4862 16.4907 46.7497 16.6159 47.9461 16.9979C49.1424 17.3799 50.2447 18.01 51.1808 18.8472C52.1169 19.6843 52.8658 20.7096 53.3786 21.856C53.8913 23.0024 54.1564 24.2442 54.1564 25.5C54.1564 26.7558 53.8913 27.9976 53.3786 29.144C52.8658 30.2904 52.1169 31.3157 51.1808 32.1528C50.2447 32.99 49.1424 33.6201 47.9461 34.0021C46.7497 34.3841 45.4862 34.5093 44.2382 34.3696C44.0195 33.509 43.5438 32.7355 42.8745 32.1522C43.3516 31.7386 43.7349 31.228 43.9987 30.6544C44.2626 30.0808 44.4009 29.4575 44.4045 28.8261C44.4045 22.573 44.9145 20.6328 42.8745 18.8478C43.5438 18.2645 44.0195 17.491 44.2382 16.6304ZM2.27406 28.8261V22.1739C2.27406 21.5858 2.50767 21.0218 2.92352 20.606C3.33936 20.1901 3.90336 19.9565 4.49145 19.9565H39.9697C40.5578 19.9565 41.1218 20.1901 41.5376 20.606C41.9535 21.0218 42.1871 21.5858 42.1871 22.1739V28.8261C42.1871 29.4142 41.9535 29.9782 41.5376 30.394C41.1218 30.8099 40.5578 31.0435 39.9697 31.0435H4.49145C3.90336 31.0435 3.33936 30.8099 2.92352 30.394C2.50767 29.9782 2.27406 29.4142 2.27406 28.8261ZM4.49145 44.3478C3.90336 44.3478 3.33936 44.1142 2.92352 43.6984C2.50767 43.2825 2.27406 42.7185 2.27406 42.1304V35.4783C2.27406 34.8902 2.50767 34.3262 2.92352 33.9103C3.33936 33.4945 3.90336 33.2609 4.49145 33.2609H39.9697C40.5578 33.2609 41.1218 33.4945 41.5376 33.9103C41.9535 34.3262 42.1871 34.8902 42.1871 35.4783V42.1304C42.1871 42.7185 41.9535 43.2825 41.5376 43.6984C41.1218 44.1142 40.5578 44.3478 39.9697 44.3478H4.49145ZM68.6406 25.9435C68.6517 26.366 68.5096 26.7782 68.2407 27.1042C67.9717 27.4302 67.594 27.648 67.1771 27.7174C61.6336 28.6487 61.2345 28.5046 61.0017 29.4248C59.2943 36.3652 57.0436 32.0302 62.3321 39.403C62.5624 39.7372 62.6696 40.1411 62.6352 40.5455C62.6008 40.9499 62.4271 41.3299 62.1436 41.6204L61.5227 42.2524C61.2311 42.534 60.8514 42.7064 60.4475 42.7407C60.0437 42.7751 59.6403 42.6692 59.3054 42.4409C54.793 39.2035 54.5712 38.7822 53.7619 39.2811C47.5532 42.962 49.0943 38.2833 47.6086 47.2748C47.544 47.7016 47.3259 48.0902 46.9953 48.3678C46.6646 48.6454 46.2441 48.7929 45.8125 48.7826H44.9145C44.5008 48.7786 44.1015 48.6302 43.7856 48.363C43.4698 48.0957 43.2573 47.7265 43.1849 47.3191L42.8967 45.5674C42.903 45.5344 42.903 45.5006 42.8967 45.4676C44.848 43.7491 44.4045 42.1304 44.4045 36.587C47.3449 36.587 50.1649 35.4189 52.2441 33.3397C54.3234 31.2605 55.4914 28.4404 55.4914 25.5C55.4914 22.5596 54.3234 19.7395 52.2441 17.6603C50.1649 15.5811 47.3449 14.413 44.4045 14.413C44.4045 9.11348 44.8591 7.28413 42.8634 5.54348C42.8681 5.51039 42.8681 5.47679 42.8634 5.4437L43.1517 3.70305C43.2203 3.28601 43.4356 2.90719 43.7588 2.63482C44.082 2.36245 44.4918 2.21442 44.9145 2.2174H45.8125C46.2262 2.22136 46.6255 2.3698 46.9414 2.63705C47.2572 2.90429 47.4697 3.27353 47.5421 3.68087C48.3847 8.78087 48.2849 9.62348 49.2495 9.85631C56.1788 11.5637 51.7884 13.8587 59.2277 8.53696C59.5607 8.30519 59.9638 8.19617 60.3682 8.22852C60.7726 8.26087 61.1532 8.43259 61.4451 8.71435L62.066 9.34631C62.3495 9.63684 62.5232 10.0168 62.5576 10.4212C62.592 10.8257 62.4848 11.2295 62.2545 11.5637C56.966 18.9698 59.2277 14.657 60.924 21.542C61.1569 22.4844 61.7334 22.3513 67.0995 23.2493C67.5087 23.3176 67.8805 23.5289 68.1485 23.8457C68.4165 24.1624 68.5634 24.564 68.563 24.9789L68.6406 25.9435Z" fill="url(#paint0_linear_844_2803)"/>
<path d="M25.556 6.65221H26.6647C26.9587 6.65221 27.2407 6.5354 27.4486 6.32748C27.6565 6.11956 27.7734 5.83755 27.7734 5.54351C27.7734 5.24947 27.6565 4.96746 27.4486 4.75954C27.2407 4.55162 26.9587 4.43481 26.6647 4.43481H25.556C25.2619 4.43481 24.9799 4.55162 24.772 4.75954C24.5641 4.96746 24.4473 5.24947 24.4473 5.54351C24.4473 5.83755 24.5641 6.11956 24.772 6.32748C24.9799 6.5354 25.2619 6.65221 25.556 6.65221Z" fill="url(#paint1_linear_844_2803)"/>
<path d="M7.817 41.0217C9.04163 41.0217 10.0344 40.0289 10.0344 38.8043C10.0344 37.5797 9.04163 36.5869 7.817 36.5869C6.59237 36.5869 5.59961 37.5797 5.59961 38.8043C5.59961 40.0289 6.59237 41.0217 7.817 41.0217Z" fill="url(#paint2_linear_844_2803)"/>
<path d="M14.4693 41.0217C15.694 41.0217 16.6867 40.0289 16.6867 38.8043C16.6867 37.5797 15.694 36.5869 14.4693 36.5869C13.2447 36.5869 12.252 37.5797 12.252 38.8043C12.252 40.0289 13.2447 41.0217 14.4693 41.0217Z" fill="url(#paint3_linear_844_2803)"/>
<path d="M7.817 14.4131C9.04163 14.4131 10.0344 13.4203 10.0344 12.1957C10.0344 10.971 9.04163 9.97827 7.817 9.97827C6.59237 9.97827 5.59961 10.971 5.59961 12.1957C5.59961 13.4203 6.59237 14.4131 7.817 14.4131Z" fill="url(#paint4_linear_844_2803)"/>
<path d="M14.4693 14.4131C15.694 14.4131 16.6867 13.4203 16.6867 12.1957C16.6867 10.971 15.694 9.97827 14.4693 9.97827C13.2447 9.97827 12.252 10.971 12.252 12.1957C12.252 13.4203 13.2447 14.4131 14.4693 14.4131Z" fill="url(#paint5_linear_844_2803)"/>
<path d="M7.817 27.7175C9.04163 27.7175 10.0344 26.7247 10.0344 25.5001C10.0344 24.2755 9.04163 23.2827 7.817 23.2827C6.59237 23.2827 5.59961 24.2755 5.59961 25.5001C5.59961 26.7247 6.59237 27.7175 7.817 27.7175Z" fill="url(#paint6_linear_844_2803)"/>
<path d="M14.4693 27.7175C15.694 27.7175 16.6867 26.7247 16.6867 25.5001C16.6867 24.2755 15.694 23.2827 14.4693 23.2827C13.2447 23.2827 12.252 24.2755 12.252 25.5001C12.252 26.7247 13.2447 27.7175 14.4693 27.7175Z" fill="url(#paint7_linear_844_2803)"/>
<defs>
<linearGradient id="paint0_linear_844_2803" x1="27.874" y1="74.837" x2="82.6353" y2="13.3541" gradientUnits="userSpaceOnUse">
<stop stop-color="#9358F7"/>
<stop offset="0.259732" stop-color="#7B78F2"/>
<stop offset="0.500607" stop-color="#6197EE"/>
<stop offset="0.766547" stop-color="#45B5E9"/>
<stop offset="1" stop-color="#10D7E2"/>
</linearGradient>
<linearGradient id="paint1_linear_844_2803" x1="25.7555" y1="7.6886" x2="28.1088" y2="4.83655" gradientUnits="userSpaceOnUse">
<stop stop-color="#9358F7"/>
<stop offset="0.259732" stop-color="#7B78F2"/>
<stop offset="0.500607" stop-color="#6197EE"/>
<stop offset="0.766547" stop-color="#45B5E9"/>
<stop offset="1" stop-color="#10D7E2"/>
</linearGradient>
<linearGradient id="paint2_linear_844_2803" x1="7.34387" y1="43.0945" x2="12.0307" y2="39.3077" gradientUnits="userSpaceOnUse">
<stop stop-color="#9358F7"/>
<stop offset="0.259732" stop-color="#7B78F2"/>
<stop offset="0.500607" stop-color="#6197EE"/>
<stop offset="0.766547" stop-color="#45B5E9"/>
<stop offset="1" stop-color="#10D7E2"/>
</linearGradient>
<linearGradient id="paint3_linear_844_2803" x1="13.9962" y1="43.0945" x2="18.6831" y2="39.3077" gradientUnits="userSpaceOnUse">
<stop stop-color="#9358F7"/>
<stop offset="0.259732" stop-color="#7B78F2"/>
<stop offset="0.500607" stop-color="#6197EE"/>
<stop offset="0.766547" stop-color="#45B5E9"/>
<stop offset="1" stop-color="#10D7E2"/>
</linearGradient>
<linearGradient id="paint4_linear_844_2803" x1="7.34387" y1="16.4858" x2="12.0307" y2="12.6991" gradientUnits="userSpaceOnUse">
<stop stop-color="#9358F7"/>
<stop offset="0.259732" stop-color="#7B78F2"/>
<stop offset="0.500607" stop-color="#6197EE"/>
<stop offset="0.766547" stop-color="#45B5E9"/>
<stop offset="1" stop-color="#10D7E2"/>
</linearGradient>
<linearGradient id="paint5_linear_844_2803" x1="13.9962" y1="16.4858" x2="18.6831" y2="12.6991" gradientUnits="userSpaceOnUse">
<stop stop-color="#9358F7"/>
<stop offset="0.259732" stop-color="#7B78F2"/>
<stop offset="0.500607" stop-color="#6197EE"/>
<stop offset="0.766547" stop-color="#45B5E9"/>
<stop offset="1" stop-color="#10D7E2"/>
</linearGradient>
<linearGradient id="paint6_linear_844_2803" x1="7.34387" y1="29.7903" x2="12.0307" y2="26.0035" gradientUnits="userSpaceOnUse">
<stop stop-color="#9358F7"/>
<stop offset="0.259732" stop-color="#7B78F2"/>
<stop offset="0.500607" stop-color="#6197EE"/>
<stop offset="0.766547" stop-color="#45B5E9"/>
<stop offset="1" stop-color="#10D7E2"/>
</linearGradient>
<linearGradient id="paint7_linear_844_2803" x1="13.9962" y1="29.7903" x2="18.6831" y2="26.0035" gradientUnits="userSpaceOnUse">
<stop stop-color="#9358F7"/>
<stop offset="0.259732" stop-color="#7B78F2"/>
<stop offset="0.500607" stop-color="#6197EE"/>
<stop offset="0.766547" stop-color="#45B5E9"/>
<stop offset="1" stop-color="#10D7E2"/>
</linearGradient>
</defs>
</svg>
