<svg width="57" height="46" viewBox="0 0 57 46" fill="none" xmlns="http://www.w3.org/2000/svg">
<path d="M2.05078 45H54.5909" stroke="#141414" stroke-width="2" stroke-linecap="round" stroke-linejoin="round"/>
<path d="M32.5221 45V2.91304C32.5221 2.40567 32.3165 1.91908 31.9505 1.56032C31.5845 1.20155 31.0881 1 30.5706 1H7.15266C6.6351 1 6.13873 1.20155 5.77275 1.56032C5.40678 1.91908 5.20117 2.40567 5.20117 2.91304V45" stroke="#141414" stroke-width="2" stroke-linecap="round" stroke-linejoin="round"/>
<path d="M32.5254 13.5713H48.4398C50.0967 13.5713 51.4398 14.9144 51.4398 16.5713V43.9522H32.5254V13.5713Z" fill="#3393D6" stroke="#141414" stroke-width="2" stroke-linecap="round" stroke-linejoin="round"/>
<path d="M13.6094 10.4287H20.965" stroke="#141414" stroke-width="2" stroke-linecap="round" stroke-linejoin="round"/>
<path d="M1 40.8096L0.999999 26.1429" stroke="#141414" stroke-width="2" stroke-linecap="round" stroke-linejoin="round"/>
<path d="M55.6426 30.333L55.6426 15.6663" stroke="#141414" stroke-width="2" stroke-linecap="round" stroke-linejoin="round"/>
<path d="M35.6758 9.38086L43.0314 9.38086" stroke="#141414" stroke-width="2" stroke-linecap="round" stroke-linejoin="round"/>
<path d="M16.7656 26.1426H24.1212" stroke="#141414" stroke-width="2" stroke-linecap="round" stroke-linejoin="round"/>
<path d="M13.6094 35.5713H20.965" stroke="#141414" stroke-width="2" stroke-linecap="round" stroke-linejoin="round"/>
<path d="M39.8828 35.5713H44.086" stroke="#141414" stroke-width="2" stroke-linecap="round" stroke-linejoin="round"/>
<path d="M39.8828 26.1431H44.086" stroke="#141414" stroke-width="2" stroke-linecap="round" stroke-linejoin="round"/>
</svg>
