<svg width="75" height="50" viewBox="0 0 75 50" fill="none" xmlns="http://www.w3.org/2000/svg">
<path d="M17.4082 48.6743H53.4965" stroke="#1C1F35" stroke-width="2" stroke-linecap="round" stroke-linejoin="round"/>
<path d="M34.541 32.3052L50.1577 22.0787" stroke="#1C1F35" stroke-width="2" stroke-linecap="round" stroke-linejoin="round"/>
<path d="M9.75195 29.4722L15.8038 36.0548" stroke="#1C1F35" stroke-width="2" stroke-linecap="round" stroke-linejoin="round"/>
<path d="M1.00195 27.0933L7.05384 33.6759" stroke="#1C1F35" stroke-width="2" stroke-linecap="round" stroke-linejoin="round"/>
<path d="M15.8624 26.7972L25.3776 36.7252C26.6464 38.0506 28.2651 38.8841 29.9931 39.102C31.7211 39.3199 33.4661 38.9105 34.9685 37.9346L73.1807 13.1849L68.4862 6.77247C67.265 5.11049 65.5507 3.99002 63.6529 3.61349C61.7551 3.23696 59.799 3.62921 58.1381 4.71937L46.9319 12.0599L31.7884 6.43497L27.6239 8.43182C27.3123 8.58061 27.0394 8.8144 26.8303 9.11165C26.6211 9.40891 26.4825 9.76005 26.4272 10.1327C26.3719 10.5054 26.4016 10.8875 26.5137 11.244C26.6258 11.6005 26.8167 11.9197 27.0686 12.1724L34.8171 19.9348L27.7501 24.4348L20.6831 21.0598L16.4429 23.0848C16.1344 23.2324 15.8639 23.4635 15.6557 23.757C15.4475 24.0506 15.3083 24.3973 15.2507 24.7659C15.193 25.1344 15.2188 25.5132 15.3256 25.8679C15.4324 26.2226 15.6169 26.542 15.8624 26.7972V26.7972Z" stroke="#1C1F35" stroke-width="2" stroke-linecap="round" stroke-linejoin="round"/>
<path d="M69.351 8.23175C63.2842 13.4146 57.2956 14.066 52.9473 8.23175L56.1507 5.96692C60.4213 2.94751 66.3311 3.96146 69.351 8.23175Z" fill="#3393D6" stroke="#1C1F35" stroke-width="2"/>
</svg>
