<svg width="130" height="130" viewBox="0 0 130 130" fill="none" xmlns="http://www.w3.org/2000/svg">
<g opacity="0.3">
<path d="M46.7602 75.5057H21.5736C15.6411 75.5057 10.7871 80.3597 10.7871 86.2923V118.652H46.7602V75.5057Z" stroke="white" stroke-width="5" stroke-miterlimit="10" stroke-linecap="round" stroke-linejoin="round"/>
<path d="M71.8917 53.9327H57.4916C51.559 53.9327 46.7051 58.7867 46.7051 64.7193V118.652H82.6782V64.7193C82.6782 58.7867 77.8782 53.9327 71.8917 53.9327Z" stroke="white" stroke-width="5" stroke-miterlimit="10" stroke-linecap="round" stroke-linejoin="round"/>
<path d="M107.866 91.6855H82.6797V118.652H118.653V102.472C118.653 96.5395 113.799 91.6855 107.866 91.6855Z" stroke="white" stroke-width="5" stroke-miterlimit="10" stroke-linecap="round" stroke-linejoin="round"/>
<path d="M67.525 11.1645L70.3834 16.8813C70.7609 17.6903 71.7857 18.4453 72.6486 18.5532L77.8261 19.4162C81.116 19.9555 81.925 22.3823 79.552 24.7015L75.507 28.7464C74.8059 29.4475 74.4283 30.742 74.6441 31.6588L75.7767 36.6207C76.6935 40.5578 74.5901 42.0679 71.1384 40.0185L66.2845 37.1601C65.4216 36.6207 63.9654 36.6207 63.1025 37.1601L58.2485 40.0185C54.7968 42.0679 52.6935 40.5578 53.6103 36.6207L54.7429 31.6588C54.9587 30.742 54.5811 29.3936 53.88 28.7464L49.889 24.7554C47.5159 22.3824 48.271 20.0093 51.6148 19.47L56.7923 18.6072C57.6553 18.4454 58.68 17.6904 59.0575 16.9353L61.916 11.2183C63.48 8.09018 65.9609 8.0903 67.525 11.1645Z" stroke="white" stroke-width="5" stroke-linecap="round" stroke-linejoin="round"/>
</g>
</svg>
