<svg width="81" height="80" viewBox="0 0 81 80" fill="none" xmlns="http://www.w3.org/2000/svg">
<g id="Group 12860">
<g id="Group 12884">
<g id="g3423">
<g id="g3425">
<g id="Clip path group">
<mask id="mask0_721_5157" style="mask-type:luminance" maskUnits="userSpaceOnUse" x="0" y="0" width="81" height="80">
<g id="clipPath3431">
<path id="path3429" d="M0.5 0H80.5V80H0.5V0Z" fill="white"/>
</g>
</mask>
<g mask="url(#mask0_721_5157)">
<g id="g3427">
<g id="g3433">
<path id="path3435 (Stroke)" fill-rule="evenodd" clip-rule="evenodd" d="M40.3996 45.3765C28.5599 45.3765 19.2858 37.8335 19.2858 26.8825C19.2858 22.0738 21.0536 17.656 24.0139 14.188C24.4341 13.6957 24.3754 12.9563 23.8828 12.5364C23.3901 12.1165 22.6501 12.1752 22.2299 12.6675C18.9283 16.5352 16.9409 21.4854 16.9409 26.8825C16.9409 39.4581 27.6226 47.7195 40.3996 47.7195C53.1767 47.7195 63.8582 39.4581 63.8582 26.8825C63.8582 14.4233 53.3058 4.41121 40.3996 4.41121C35.2571 4.41121 30.4941 5.99755 26.6226 8.69269C26.0913 9.06254 25.9606 9.79272 26.3308 10.3236C26.7009 10.8545 27.4317 10.985 27.963 10.6151C31.448 8.1891 35.7445 6.75422 40.3996 6.75422C52.1102 6.75422 61.5134 15.8145 61.5134 26.8825C61.5134 37.8335 52.2394 45.3765 40.3996 45.3765Z" fill="#126CAB"/>
</g>
<g id="g3437">
<path id="path3439 (Stroke)" fill-rule="evenodd" clip-rule="evenodd" d="M17.932 33.1458C14.801 33.1458 12.2627 30.604 12.2627 27.4684C12.2627 24.333 14.801 21.7911 17.932 21.7911C18.2622 21.7911 18.5877 21.8212 18.9084 21.8768C19.545 21.9873 20.1504 21.5602 20.2607 20.9227C20.371 20.2853 19.9445 19.679 19.308 19.5686C18.8639 19.4915 18.4046 19.4484 17.932 19.4484C13.509 19.4484 9.92334 23.0391 9.92334 27.4684C9.92334 31.8978 13.5089 35.4885 17.932 35.4885C18.5979 35.4885 19.244 35.4056 19.8615 35.2526C20.4885 35.0972 20.8711 34.4621 20.7159 33.8341C20.5607 33.2062 19.9265 32.8231 19.2994 32.9785C18.8607 33.0872 18.4032 33.1458 17.932 33.1458Z" fill="#126CAB"/>
</g>
<g id="g3441">
<path id="path3443 (Stroke)" fill-rule="evenodd" clip-rule="evenodd" d="M61.1385 35.2528C61.7559 35.4059 62.402 35.4888 63.068 35.4888C67.491 35.4888 71.0766 31.8981 71.0766 27.4686C71.0766 23.0394 67.491 19.4487 63.068 19.4487C62.5953 19.4487 62.136 19.4917 61.692 19.5688C61.0554 19.6793 60.6289 20.2856 60.7392 20.923C60.8495 21.5604 61.455 21.9876 62.0915 21.8771C62.4122 21.8214 62.7377 21.7914 63.068 21.7914C66.199 21.7914 68.7372 24.3332 68.7372 27.4686C68.7372 30.6043 66.1989 33.1461 63.068 33.1461C62.5967 33.1461 62.1392 33.0875 61.7005 32.9788C61.0734 32.8233 60.4392 33.2064 60.284 33.8344C60.1288 34.4624 60.5114 35.0974 61.1385 35.2528Z" fill="#126CAB"/>
</g>
<g id="g3445">
<path id="path3447 (Stroke)" fill-rule="evenodd" clip-rule="evenodd" d="M27.2611 73.4795C30.3881 77.7465 34.9654 80 40.4073 80C44.7847 80 48.6203 78.5422 51.5915 75.7173C52.061 75.2709 52.08 74.5282 51.634 74.0584C51.188 73.5886 50.4459 73.5695 49.9765 74.0159C47.477 76.3923 44.2351 77.6532 40.4073 77.6532C35.6784 77.6532 31.8175 75.729 29.1518 72.0915L29.1518 72.0914C28.3986 71.0639 27.7303 69.8903 27.1502 68.5697C32.7278 64.0561 42.7918 57.6667 55.5207 54.6957L55.5209 54.6957C55.9255 54.6012 56.3178 54.9207 56.2997 55.3478C56.0448 61.3953 54.9413 66.217 53.0747 69.8055C52.7757 70.3803 52.9989 71.0889 53.5733 71.3881C54.1477 71.6874 54.8556 71.464 55.1546 70.8891C57.2337 66.892 58.379 61.6981 58.6425 55.4467C58.7255 53.4801 56.9145 51.9604 54.988 52.4103C41.2866 55.6082 30.5995 62.6205 24.9811 67.3162C24.5926 67.6408 24.4561 68.1784 24.6427 68.6493C25.3575 70.4536 26.2275 72.0695 27.261 73.4794" fill="#126CAB"/>
</g>
<g id="g3449">
<path id="path3451 (Stroke)" fill-rule="evenodd" clip-rule="evenodd" d="M26.2132 69.2904C26.816 69.0516 27.1109 68.37 26.8718 67.7679C25.3152 63.8485 24.5023 58.7706 24.5023 52.5528C24.5023 51.8388 24.5494 51.1365 24.6408 50.448L24.6408 50.4479C24.6947 50.0414 25.0917 49.7816 25.4816 49.8897C30.3918 51.2511 37.8952 53.811 44.6476 57.7519C45.2075 58.0787 45.9266 57.8903 46.2538 57.3311C46.5811 56.772 46.3924 56.0538 45.8325 55.727C38.8399 51.6458 31.1247 49.0203 26.1098 47.6298L26.1097 47.6298C24.3393 47.139 22.5532 48.3273 22.3127 50.1398M26.2132 69.2904C25.6104 69.5291 24.9279 69.2347 24.6888 68.6327L26.2132 69.2904ZM24.6888 68.6327C22.987 64.3477 22.1538 58.9509 22.1538 52.5528L24.6888 68.6327ZM22.1538 52.5528C22.1538 51.7355 22.2078 50.9303 22.3127 50.1399L22.1538 52.5528Z" fill="#126CAB"/>
</g>
<g id="g3453">
<path id="path3455 (Stroke)" fill-rule="evenodd" clip-rule="evenodd" d="M24.4665 49.8929C25.102 50.0419 25.7397 49.6547 25.8909 49.0281C26.3561 47.0989 27.2013 45.3142 28.3452 43.7547C28.728 43.2328 28.6093 42.5036 28.08 42.1261C27.5507 41.7486 26.8112 41.8657 26.4284 42.3876C25.1064 44.1899 24.1282 46.2548 23.5895 48.4884C23.4384 49.115 23.831 49.7439 24.4665 49.8929Z" fill="#126CAB"/>
</g>
<g id="g3457">
<path id="path3459 (Stroke)" fill-rule="evenodd" clip-rule="evenodd" d="M56.6381 54.9371C57.2862 54.9481 57.8206 54.4316 57.8316 53.7835C57.8384 53.3849 57.8432 52.9795 57.8432 52.5646C57.8432 48.7664 56.6228 45.2506 54.5544 42.3906C54.1746 41.8654 53.4408 41.7475 52.9156 42.1275C52.3904 42.5074 52.2726 43.2412 52.6525 43.7665C54.4413 46.2399 55.4959 49.2771 55.4959 52.5646C55.4959 52.9617 55.4913 53.3529 55.4846 53.7434C55.4736 54.3916 55.99 54.926 56.6381 54.9371Z" fill="#126CAB"/>
</g>
<g id="g3461">
<path id="path3463 (Stroke)" fill-rule="evenodd" clip-rule="evenodd" d="M31.1766 26.6404C30.6344 26.6404 30.1487 26.4126 29.8155 26.0471C29.3919 25.5824 28.6545 25.534 28.1685 25.939C27.6824 26.3439 27.6318 27.0489 28.0554 27.5135C28.812 28.3434 29.9298 28.8723 31.1766 28.8723C32.4234 28.8723 33.5411 28.3434 34.2978 27.5135C34.7214 27.0489 34.6707 26.3439 34.1847 25.939C33.6987 25.534 32.9613 25.5824 32.5377 26.0471C32.2045 26.4126 31.7188 26.6404 31.1766 26.6404Z" fill="#126CAB"/>
</g>
<g id="g3465">
<path id="path3467 (Stroke)" fill-rule="evenodd" clip-rule="evenodd" d="M46.7019 27.5135C47.4585 28.3434 48.5762 28.8723 49.8231 28.8723C51.0699 28.8723 52.1876 28.3434 52.9443 27.5135C53.3678 27.0489 53.3172 26.3439 52.8312 25.939C52.3452 25.534 51.6078 25.5824 51.1842 26.0471C50.851 26.4126 50.3652 26.6404 49.8231 26.6404C49.2809 26.6404 48.7952 26.4126 48.4619 26.0471C48.0383 25.5824 47.301 25.534 46.8149 25.939C46.3289 26.3439 46.2783 27.0489 46.7019 27.5135Z" fill="#126CAB"/>
</g>
<g id="g3469">
<path id="path3471 (Stroke)" fill-rule="evenodd" clip-rule="evenodd" d="M36.7905 5.11958C36.7905 8.49336 39.581 11.2283 43.0234 11.2283C43.6782 11.2283 44.2091 10.708 44.2091 10.0662C44.2091 9.42438 43.6782 8.9041 43.0234 8.9041C40.8907 8.9041 39.1619 7.20976 39.1619 5.11958C39.1619 3.57588 40.4389 2.32437 42.0139 2.32437C42.6688 2.32437 43.1996 1.80409 43.1996 1.16229C43.1996 0.520484 42.6688 0.000201225 42.0139 0.000201225C39.1292 0.000201225 36.7905 2.29228 36.7905 5.11958Z" fill="#126CAB"/>
</g>
<g id="g3473">
<path id="path3475" d="M42.2044 29.7744C42.2044 28.7223 41.4415 27.8697 40.5002 27.8697C39.559 27.8697 38.7959 28.7223 38.7959 29.7744C38.7959 30.8264 39.559 31.6792 40.5002 31.6792C41.4415 31.6792 42.2044 30.8264 42.2044 29.7744Z" fill="#126CAB"/>
</g>
<g id="g3477">
<path id="path3479 (Stroke)" fill-rule="evenodd" clip-rule="evenodd" d="M31.4295 57.7969C31.894 57.3324 31.894 56.5793 31.4295 56.1147L30.6003 55.2856C30.1358 54.8211 29.3827 54.8211 28.9182 55.2856C28.4537 55.7501 28.4537 56.5032 28.9182 56.9678L29.7473 57.7969C30.2118 58.2614 30.965 58.2614 31.4295 57.7969Z" fill="#126CAB"/>
</g>
<g id="g3481">
<path id="path3483 (Stroke)" fill-rule="evenodd" clip-rule="evenodd" d="M35.1192 70.2219C35.564 70.6945 36.2852 70.6946 36.7301 70.222L37.66 69.2341C38.1048 68.7615 38.1049 67.9951 37.6601 67.5225C37.2153 67.0498 36.4941 67.0497 36.0493 67.5223L35.1193 68.5102C34.6745 68.9829 34.6744 69.7492 35.1192 70.2219Z" fill="#126CAB"/>
</g>
<g id="g3485">
<path id="path3487 (Stroke)" fill-rule="evenodd" clip-rule="evenodd" d="M47.8838 70.22C48.3311 69.7447 48.3311 68.9741 47.8838 68.4988L46.9666 67.5244C46.5193 67.0491 45.7941 67.0491 45.3467 67.5244C44.8994 67.9996 44.8994 68.7702 45.3467 69.2455L46.2638 70.22C46.7112 70.6952 47.4364 70.6952 47.8838 70.22Z" fill="#126CAB"/>
</g>
<g id="g3489">
<path id="path3491 (Stroke)" fill-rule="evenodd" clip-rule="evenodd" d="M48.348 62.6278C48.7873 63.0671 49.4996 63.0671 49.9389 62.6278L50.6966 61.8701C51.1359 61.4308 51.1359 60.7185 50.6966 60.2792C50.2573 59.8399 49.5451 59.8399 49.1058 60.2792L48.348 61.037C47.9087 61.4763 47.9087 62.1885 48.348 62.6278Z" fill="#126CAB"/>
</g>
<g id="g3493">
<path id="path3495 (Stroke)" fill-rule="evenodd" clip-rule="evenodd" d="M46.7545 51.5904C47.2077 52.0433 47.9422 52.0431 48.3951 51.59L48.6815 51.3034C49.1344 50.8503 49.1342 50.1158 48.6811 49.6629C48.2279 49.2101 47.4934 49.2103 47.0405 49.6634L46.7541 49.95C46.3012 50.4031 46.3014 51.1375 46.7545 51.5904Z" fill="#126CAB"/>
</g>
</g>
</g>
</g>
</g>
</g>
</g>
</g>
</svg>
