<svg width="120" height="120" viewBox="0 0 120 120" fill="none" xmlns="http://www.w3.org/2000/svg">
<g id="Group 12866">
<g id="Group 12865">
<g id="Group 12864">
<g id="g995">
<path id="path997" d="M95.0391 10.4888H110.377" stroke="#126CAB" stroke-width="3" stroke-miterlimit="10" stroke-linecap="round" stroke-linejoin="round"/>
</g>
<g id="g999">
<path id="path1001" d="M86.3281 10.4888H88.1977" stroke="#126CAB" stroke-width="3" stroke-miterlimit="10" stroke-linecap="round" stroke-linejoin="round"/>
</g>
<g id="g1003">
<path id="path1005" d="M86.3281 18.7461H110.376" stroke="#126CAB" stroke-width="3" stroke-miterlimit="10" stroke-linecap="round" stroke-linejoin="round"/>
</g>
<g id="g1007">
<g id="Clip path group">
<mask id="mask0_721_5391" style="mask-type:luminance" maskUnits="userSpaceOnUse" x="0" y="0" width="120" height="120">
<g id="clipPath1013">
<path id="path1011" d="M0 0H120V120H0V0Z" fill="white"/>
</g>
</mask>
<g mask="url(#mask0_721_5391)">
<g id="g1009">
<g id="g1015">
<path id="path1017" d="M73.9849 42.3434V49.5356C73.9849 52.5063 71.5767 54.9146 68.6058 54.9146H64.1719" stroke="#126CAB" stroke-width="3" stroke-miterlimit="10" stroke-linecap="round" stroke-linejoin="round"/>
</g>
<g id="g1019">
<path id="path1021" d="M88.5509 110.61H5.53757C3.45 110.61 1.75781 112.302 1.75781 114.389C1.75781 116.477 3.45 118.169 5.53757 118.169H88.5509C90.6384 118.169 92.3306 116.477 92.3306 114.389C92.3306 112.302 90.6384 110.61 88.5509 110.61Z" stroke="#126CAB" stroke-width="3" stroke-miterlimit="10" stroke-linecap="round" stroke-linejoin="round"/>
</g>
<g id="g1023">
<path id="path1025" d="M51.7655 110.61C51.7655 107.512 52.9261 104.534 54.9984 102.232C55.0139 102.215 55.0294 102.198 55.0448 102.181C56.7396 100.284 57.7702 97.7823 57.7702 95.0389C57.7702 91.0412 55.5818 87.5546 52.3376 85.7115C51.7221 85.3616 50.9578 85.8015 50.9578 86.5093V94.4853C50.9578 95.8222 49.8741 96.906 48.537 96.906H45.5613C44.2245 96.906 43.1405 95.8222 43.1405 94.4853V86.5093C43.1405 85.8015 42.3759 85.3616 41.7605 85.7115C38.5165 87.5546 36.3281 91.0412 36.3281 95.0389C36.3281 97.7823 37.3587 100.284 39.0534 102.181C39.0689 102.198 39.0844 102.215 39.0998 102.232C41.1722 104.534 42.3328 107.512 42.3328 110.61" stroke="#126CAB" stroke-width="3" stroke-miterlimit="10" stroke-linecap="round" stroke-linejoin="round"/>
</g>
<g id="g1027">
<path id="path1029" d="M10.8203 103.75L11.1925 110.61" stroke="#126CAB" stroke-width="3" stroke-miterlimit="10" stroke-linecap="round" stroke-linejoin="round"/>
</g>
<g id="g1031">
<path id="path1033" d="M82.8997 110.61L84.6419 78.5141C84.8094 75.4236 82.349 72.8258 79.2538 72.8258H14.8412C11.7463 72.8258 9.2856 75.4236 9.45341 78.5141L10.3801 95.5921" stroke="#126CAB" stroke-width="3" stroke-miterlimit="10" stroke-linecap="round" stroke-linejoin="round"/>
</g>
<g id="g1035">
<path id="path1037" d="M90.9286 111.45V104.086C90.9286 96.9942 88.4644 90.3911 84.2812 85.1751" stroke="#126CAB" stroke-width="3" stroke-miterlimit="10" stroke-linecap="round" stroke-linejoin="round"/>
</g>
<g id="g1039">
<path id="path1041" d="M9.81141 85.1749C5.62828 90.3909 3.16406 96.9939 3.16406 104.086V111.449" stroke="#126CAB" stroke-width="3" stroke-miterlimit="10" stroke-linecap="round" stroke-linejoin="round"/>
</g>
<g id="g1043">
<path id="path1045" d="M64.9433 16.2485H64.7462C63.6552 16.2485 62.7706 15.3642 62.7706 14.2731C62.7706 11.0427 60.1522 8.42408 56.9218 8.42408H38.3056C30.0207 8.42408 23.3047 15.1401 23.3047 23.425V33.3384C23.3047 34.7945 24.226 36.0913 25.6013 36.5702L29.2963 37.8567C30.5879 38.3064 31.9367 37.3462 31.9346 35.9786L31.9264 28.9881C31.9123 25.5885 34.6234 22.8208 37.982 22.8063L38.0551 22.806C39.0833 22.8016 40.1 22.9612 41.0713 23.2734C42.792 23.8263 44.5752 24.1614 46.3827 24.1537H47.7141C49.5216 24.1614 51.3048 23.8263 53.0255 23.2734C53.9968 22.9612 55.0135 22.8016 56.0417 22.806L56.1148 22.8063C59.4734 22.8208 62.1845 25.5885 62.1704 28.9881L62.1636 35.9791C62.1617 37.3467 63.5105 38.3064 64.8017 37.8567L68.4957 36.5702C69.8708 36.0913 70.7921 34.7948 70.7921 33.3386V22.0975C70.7921 18.8671 68.1734 16.2485 64.9433 16.2485Z" stroke="#126CAB" stroke-width="3" stroke-miterlimit="10" stroke-linecap="round" stroke-linejoin="round"/>
</g>
<g id="g1047">
<path id="path1049" d="M27.8594 46.7641H27.8922C28.0216 51.8627 30.1591 56.7618 33.9974 60.0787C37.0879 62.7491 41.4257 65.073 47.1433 65.1133C52.8602 65.0242 57.1788 62.6634 60.2465 59.9666C63.9817 56.6835 66.0648 51.8941 66.2282 46.903" stroke="#126CAB" stroke-width="3" stroke-miterlimit="10" stroke-linecap="round" stroke-linejoin="round"/>
</g>
<g id="g1051">
<path id="path1053" d="M23.3058 32.5683C21.4877 32.9029 20.1094 34.4929 20.1094 36.4078V43.0842C20.1094 45.2423 21.8587 46.9917 24.0169 46.9917H27.8653V37.3579" stroke="#126CAB" stroke-width="3" stroke-miterlimit="10" stroke-linecap="round" stroke-linejoin="round"/>
</g>
<g id="g1055">
<path id="path1057" d="M66.2266 37.3584V46.9917H70.0748C72.2329 46.9917 73.9823 45.2423 73.9823 43.0844V36.408C73.9823 34.4932 72.6039 32.9029 70.7859 32.5685" stroke="#126CAB" stroke-width="3" stroke-miterlimit="10" stroke-linecap="round" stroke-linejoin="round"/>
</g>
<g id="g1059">
<path id="path1061" d="M60.3105 57.6738H55.8991C54.2161 57.6738 52.8516 56.3095 52.8516 54.6265C52.8516 52.9432 54.2161 51.5789 55.8991 51.5789H60.3105C61.9936 51.5789 63.3579 52.9432 63.3579 54.6265C63.3579 56.3095 61.9936 57.6738 60.3105 57.6738Z" stroke="#126CAB" stroke-width="3" stroke-miterlimit="10" stroke-linecap="round" stroke-linejoin="round"/>
</g>
<g id="g1063">
<path id="path1065" d="M59.5096 72.8254C57.8945 71.9498 56.8281 70.2468 56.8281 68.329V62.4365" stroke="#126CAB" stroke-width="3" stroke-miterlimit="10" stroke-linecap="round" stroke-linejoin="round"/>
</g>
<g id="g1067">
<path id="path1069" d="M37.265 62.418V68.3287C37.265 70.2794 36.1674 71.9611 34.5781 72.8252" stroke="#126CAB" stroke-width="3" stroke-miterlimit="10" stroke-linecap="round" stroke-linejoin="round"/>
</g>
<g id="g1071">
<path id="path1073" d="M118.242 10.3452V6.94297C118.242 4.11969 115.953 1.83102 113.13 1.83102H83.5653C80.7418 1.83102 78.4531 4.11969 78.4531 6.94297V21.7292C78.4531 24.5525 80.7418 26.8412 83.5653 26.8412C85.2141 26.8412 86.5508 28.1778 86.5508 29.8266V38.9708C86.5508 40.1316 88.0796 40.5549 88.6766 39.5593L95.4338 28.2913C95.9731 27.3917 96.9453 26.8412 97.9941 26.8412H113.13C115.953 26.8412 118.242 24.5525 118.242 21.7292V18.5633" stroke="#126CAB" stroke-width="3" stroke-miterlimit="10" stroke-linecap="round" stroke-linejoin="round"/>
</g>
</g>
</g>
</g>
</g>
</g>
</g>
</g>
</svg>
