<svg width="48" height="52" viewBox="0 0 48 52" fill="none" xmlns="http://www.w3.org/2000/svg">
<path d="M46.6464 19.6279L42.2499 19.2042C41.7834 17.3324 41.0302 15.5438 40.0176 13.9015L42.82 10.5184C43.0953 10.1865 43.0724 9.69997 42.7678 9.39534L38.0124 4.63956C37.7078 4.33493 37.2213 4.3125 36.8893 4.58736L33.5038 7.39059C31.8587 6.38536 30.0721 5.63256 28.2036 5.15747L27.7795 0.754841C27.7383 0.326649 27.3782 0 26.948 0H20.4488C20.0186 0 19.6589 0.326649 19.6177 0.754841L19.1932 5.15747C17.3246 5.63215 15.5381 6.38536 13.893 7.39059L10.5074 4.58654C10.1759 4.31169 9.68938 4.33412 9.38434 4.63874L4.62897 9.39493C4.32434 9.69997 4.3015 10.1865 4.57677 10.5184L7.37837 13.9011C6.36498 15.5434 5.61136 17.3324 5.14443 19.2046L0.750369 19.6287C0.322993 19.6703 -0.00202536 20.0304 1.37242e-05 20.4598V27.2016C-0.00243314 27.6306 0.322585 27.9911 0.749961 28.0327L5.14932 28.4568C5.6236 30.3249 6.37599 32.1119 7.38081 33.757L4.57636 37.1422C4.28886 37.4892 4.32842 38.0018 4.66608 38.3007L8.27308 41.491C8.45129 41.6488 8.68863 41.723 8.92557 41.6949C9.16209 41.6663 9.37537 41.5383 9.51158 41.3429L14.6956 33.9046C14.9268 33.5727 14.8868 33.1225 14.6005 32.8362C9.62699 27.8626 9.62658 19.7984 14.6005 14.8244C19.5745 9.85045 27.6388 9.85045 32.6127 14.8244C37.5867 19.7984 37.5867 27.8626 32.6127 32.8362C32.3228 33.1261 32.2861 33.5833 32.5259 33.9156L37.8921 41.3535C38.03 41.5448 38.2424 41.6688 38.4769 41.6949C38.7114 41.721 38.9459 41.6467 39.1225 41.4906L42.7307 38.3015C43.0683 38.003 43.1083 37.49 42.8204 37.1426L40.0168 33.757C41.022 32.1119 41.7748 30.3253 42.2495 28.4568L46.6464 28.0327C47.0738 27.9911 47.3988 27.6306 47.3963 27.2016V20.459C47.3984 20.03 47.0738 19.6695 46.6464 19.6279ZM45.726 26.4427L41.4902 26.8513C41.1305 26.886 40.8344 27.149 40.7573 27.5021C40.2969 29.5905 39.4597 31.5773 38.2873 33.3659C38.0866 33.6726 38.1095 34.0743 38.3432 34.3561L41.0183 37.5854L38.7073 39.6285L34.2859 33.5001C39.4055 27.8524 39.2415 19.0908 33.7937 13.643C28.1767 8.02594 19.0366 8.02594 13.4195 13.643C7.96887 19.0937 7.80778 27.8618 12.9351 33.5086L8.67722 39.6183L6.37803 37.585L9.0528 34.3557C9.28647 34.073 9.3089 33.6718 9.10826 33.3651C7.93542 31.5769 7.0978 29.5901 6.63617 27.5021C6.56032 27.1494 6.26507 26.8864 5.9062 26.8513L1.67037 26.4427V21.2183L5.9062 20.8093C6.26752 20.7742 6.5644 20.5096 6.63984 20.1544C7.08924 18.0656 7.92645 16.08 9.10745 14.2996C9.31053 13.9925 9.28851 13.5888 9.05362 13.3053L6.34785 10.0384L10.0279 6.35803L13.2948 9.06339C13.577 9.29747 13.9786 9.3199 14.2849 9.11885C16.0731 7.94601 18.0599 7.10839 20.1479 6.64717C20.5014 6.56887 20.764 6.27199 20.7987 5.9119L21.2073 1.67076H26.1894L26.5985 5.9119C26.6331 6.27199 26.8958 6.56887 27.2489 6.64717C29.3373 7.10839 31.3241 7.94642 33.1123 9.11926C33.4185 9.32031 33.8202 9.29788 34.1024 9.0638L37.3689 6.35844L41.0489 10.0384L38.3436 13.3053C38.1091 13.5888 38.0875 13.9925 38.2905 14.2992C39.4719 16.0796 40.3092 18.0656 40.759 20.1544C40.8332 20.5092 41.1292 20.7742 41.4897 20.8093L45.726 21.2179V26.4427Z" fill="url(#paint0_linear_844_2788)"/>
<path d="M26.6107 38.5279V25.8465C28.7158 24.6309 30.0978 22.3231 30.0978 19.9448C30.0978 16.6951 28.2394 14.3282 25.1267 13.6141C24.8673 13.5546 24.5957 13.6219 24.3943 13.7952C24.1932 13.9689 24.0864 14.2279 24.1068 14.4929L24.3829 18.0371C23.6855 18.4029 22.8536 18.4033 22.1559 18.0379L22.4527 14.4742C22.4756 14.2001 22.3622 13.9326 22.1493 13.7585C21.9365 13.5843 21.6518 13.526 21.388 13.6027C18.5411 14.4273 16.7676 16.8757 16.7676 19.9934C16.7676 22.8549 18.2691 25.1696 20.7746 26.1728V38.8052C18.9999 39.8529 17.29 41.9788 17.3169 44.6837C17.3169 47.907 19.1544 50.2897 22.2268 51.0585C22.4878 51.1237 22.7639 51.0597 22.9694 50.8864C23.175 50.713 23.2847 50.4516 23.2643 50.1837L22.9894 46.6399C23.6863 46.2741 24.5187 46.2737 25.2164 46.6387L24.9195 50.2029C24.8967 50.4769 25.0101 50.7444 25.2229 50.9186C25.4358 51.0927 25.7205 51.151 25.9843 51.0744C28.8173 50.2535 30.5945 47.8172 30.623 44.7074C30.6235 41.8454 29.1024 39.5311 26.6107 38.5279ZM26.7 48.9522L26.9222 46.2815C26.9459 45.9972 26.8231 45.7207 26.5964 45.5478L26.565 45.5238C25.0945 44.4076 23.0571 44.4211 21.6017 45.5564C21.3831 45.7289 21.2648 45.9993 21.2864 46.277L21.4997 49.0243C19.8917 48.223 18.9925 46.6921 18.9925 44.6755C18.9709 42.4783 20.5181 40.7464 21.9695 40.0662C22.2619 39.9283 22.4474 39.6331 22.4454 39.3097V25.581C22.4474 25.2136 22.2081 24.8886 21.8565 24.7814C19.7478 24.1448 18.4408 22.3101 18.4408 19.9925C18.4408 18.126 19.2711 16.5829 20.6711 15.7241L20.4496 18.3948C20.426 18.6794 20.5491 18.9563 20.7767 19.1288L20.8077 19.1525C22.2762 20.2682 24.3115 20.2564 25.7665 19.1239C25.7739 19.1182 25.782 19.1117 25.789 19.106C25.9969 18.9327 26.1079 18.6692 26.0871 18.3993L25.8709 15.6225C27.5111 16.3912 28.4283 17.9152 28.4283 19.9452C28.4283 21.8374 27.1906 23.7468 25.4183 24.5885C25.1271 24.7267 24.9416 25.0203 24.9416 25.3429V39.1192C24.9416 39.4875 25.183 39.8121 25.5353 39.9185C27.6445 40.5555 28.9539 42.3902 28.9539 44.7C28.936 46.5584 28.0988 48.0962 26.7004 48.9522H26.7Z" fill="url(#paint1_linear_844_2788)"/>
<defs>
<linearGradient id="paint0_linear_844_2788" x1="18.6416" y1="61.1913" x2="63.5551" y2="19.9466" gradientUnits="userSpaceOnUse">
<stop stop-color="#9358F7"/>
<stop offset="0.259732" stop-color="#7B78F2"/>
<stop offset="0.500607" stop-color="#6197EE"/>
<stop offset="0.766547" stop-color="#45B5E9"/>
<stop offset="1" stop-color="#10D7E2"/>
</linearGradient>
<linearGradient id="paint1_linear_844_2788" x1="22.2171" y1="68.6524" x2="44.4424" y2="62.0243" gradientUnits="userSpaceOnUse">
<stop stop-color="#9358F7"/>
<stop offset="0.259732" stop-color="#7B78F2"/>
<stop offset="0.500607" stop-color="#6197EE"/>
<stop offset="0.766547" stop-color="#45B5E9"/>
<stop offset="1" stop-color="#10D7E2"/>
</linearGradient>
</defs>
</svg>
