<svg width="81" height="80" viewBox="0 0 81 80" fill="none" xmlns="http://www.w3.org/2000/svg">
<g id="Group">
<path id="Vector" d="M79.0371 24.5637C78.7159 24.5637 78.4077 24.6914 78.1806 24.9185C77.9534 25.1457 77.8258 25.4538 77.8258 25.7751V32.25H63.6632C62.1374 32.2515 60.6746 32.8582 59.5956 33.937C58.5167 35.0158 57.9098 36.4786 57.9081 38.0044V41.2342H10.7556V18.8461C13.055 18.7053 15.2235 17.728 16.8519 16.0984C18.4804 14.4689 19.4564 12.2999 19.5958 10.0003H43.2001C43.3592 10.0004 43.5168 9.96917 43.6638 9.90832C43.8108 9.84748 43.9444 9.75825 44.0569 9.64575C44.1694 9.53324 44.2586 9.39967 44.3194 9.25266C44.3803 9.10564 44.4115 8.94808 44.4115 8.78898V6.67082C44.4096 4.90229 43.7063 3.20671 42.4558 1.95611C41.2054 0.705501 39.5099 0.00201562 37.7413 0H10.1914C10.1651 0 10.1395 0.00622966 10.1132 0.00761408C7.62505 0.0296786 5.24614 1.03275 3.49338 2.79886C1.74061 4.56497 0.755626 6.95142 0.752441 9.43966V9.49296V42.4227V42.4497V50.6732C0.754091 51.7412 1.1793 52.7651 1.9348 53.52C2.6903 54.275 3.71441 54.6995 4.78248 54.7004H34.6617V68.9717H22.4532C21.299 68.9735 20.1926 69.4329 19.3765 70.249C18.5603 71.0651 18.101 72.1715 18.0992 73.3257V77.5773H13.5043C13.183 77.5773 12.8749 77.7049 12.6478 77.9321C12.4206 78.1592 12.293 78.4674 12.293 78.7886C12.293 79.1099 12.4206 79.418 12.6478 79.6452C12.8749 79.8724 13.183 80 13.5043 80H67.4966C67.8179 80 68.126 79.8724 68.3532 79.6452C68.5804 79.418 68.708 79.1099 68.708 78.7886C68.708 78.4674 68.5804 78.1592 68.3532 77.9321C68.126 77.7049 67.8179 77.5773 67.4966 77.5773H62.9017V73.3257C62.8999 72.1715 62.4406 71.0651 61.6245 70.249C60.8083 69.4329 59.7019 68.9735 58.5477 68.9717H46.3393V54.7004H76.2185C77.2868 54.6993 78.311 54.2745 79.0664 53.5191C79.8218 52.7636 80.2467 51.7394 80.2478 50.6711V25.7772C80.2482 25.618 80.2171 25.4602 80.1565 25.313C80.0958 25.1658 80.0067 25.032 79.8942 24.9193C79.7817 24.8066 79.6482 24.7172 79.5011 24.6562C79.354 24.5951 79.1964 24.5637 79.0371 24.5637ZM60.3309 38.0064C60.332 37.1231 60.6834 36.2762 61.3081 35.6516C61.9328 35.027 62.7798 34.6757 63.6632 34.6748H77.8258V41.2363H60.3309V38.0064ZM41.9873 6.67082V7.57761H19.4366C19.0307 5.58464 17.9912 3.77637 16.4732 2.42273H37.7393C38.8654 2.4242 39.945 2.87226 40.7412 3.66863C41.5375 4.465 41.9861 5.54467 41.9873 6.67082ZM10.1873 2.42689C11.114 2.41768 12.0334 2.59226 12.8922 2.94054C13.7511 3.28882 14.5324 3.80388 15.191 4.45596C15.8496 5.10804 16.3724 5.88419 16.7292 6.73955C17.086 7.59492 17.2697 8.51252 17.2697 9.43931C17.2697 10.3661 17.086 11.2837 16.7292 12.1391C16.3724 12.9944 15.8496 13.7706 15.191 14.4227C14.5324 15.0747 13.7511 15.5898 12.8922 15.9381C12.0334 16.2864 11.114 16.4609 10.1873 16.4517C9.97959 16.4517 9.77193 16.4386 9.56772 16.4206C9.55942 16.4206 9.5518 16.4206 9.54419 16.4206H9.53657C7.80762 16.2573 6.20061 15.4588 5.02615 14.1795C3.85169 12.9002 3.19319 11.2309 3.17794 9.49434V9.43758C3.17794 9.43135 3.17794 9.4265 3.17794 9.42097C3.18471 7.56547 3.92585 5.78812 5.23932 4.4775C6.55279 3.16689 8.33174 2.42962 10.1873 2.42689ZM8.33282 18.6896V41.2314H3.17794V15.7325C4.53235 17.2484 6.34058 18.2857 8.33282 18.6896ZM60.479 73.3257V77.5773H20.5219V73.3257C20.5225 72.8137 20.7261 72.3228 21.0882 71.9607C21.4503 71.5987 21.9412 71.395 22.4532 71.3944H58.5477C59.0598 71.395 59.5507 71.5987 59.9128 71.9607C60.2748 72.3228 60.4785 72.8137 60.479 73.3257ZM43.9165 68.9717H37.0844V54.7004H43.9165V68.9717ZM77.8258 50.6711C77.8254 51.0971 77.656 51.5055 77.3548 51.8067C77.0536 52.108 76.6451 52.2773 76.2192 52.2777H4.78248C4.35649 52.2773 3.94806 52.108 3.64684 51.8067C3.34562 51.5055 3.17623 51.0971 3.17587 50.6711V43.659H77.8258V50.6711Z" fill="#126CAB"/>
<path id="Vector_2" d="M32.1431 15.0805V19.6269C32.1431 19.9482 32.2707 20.2563 32.4979 20.4835C32.725 20.7107 33.0332 20.8383 33.3544 20.8383C33.6757 20.8383 33.9838 20.7107 34.211 20.4835C34.4382 20.2563 34.5658 19.9482 34.5658 19.6269V15.0805C34.5658 14.7592 34.4382 14.4511 34.211 14.2239C33.9838 13.9968 33.6757 13.8691 33.3544 13.8691C33.0332 13.8691 32.725 13.9968 32.4979 14.2239C32.2707 14.4511 32.1431 14.7592 32.1431 15.0805Z" fill="#126CAB"/>
<path id="Vector_3" d="M26.073 14.3192L23.2135 17.855C23.02 18.1056 22.9323 18.422 22.9692 18.7364C23.006 19.0508 23.1645 19.3383 23.4107 19.5373C23.6569 19.7364 23.9712 19.8311 24.2863 19.8013C24.6015 19.7715 24.8925 19.6196 25.097 19.3779L27.9558 15.8421C28.1577 15.5924 28.2522 15.2728 28.2185 14.9534C28.1847 14.6341 28.0255 14.3412 27.7758 14.1393C27.5262 13.9373 27.2065 13.8428 26.8871 13.8766C26.5678 13.9103 26.2749 14.0696 26.073 14.3192Z" fill="#126CAB"/>
<path id="Vector_4" d="M38.9362 14.1418C38.8126 14.2418 38.7099 14.3651 38.6339 14.5048C38.5579 14.6445 38.5102 14.7978 38.4935 14.9559C38.4768 15.1141 38.4914 15.2739 38.5365 15.4264C38.5816 15.5789 38.6562 15.721 38.7563 15.8446L41.6158 19.3804C41.7144 19.5081 41.8375 19.6149 41.978 19.6944C42.1184 19.7738 42.2733 19.8245 42.4336 19.8432C42.5938 19.862 42.7562 19.8486 42.9112 19.8038C43.0663 19.7589 43.2107 19.6836 43.3362 19.5821C43.4617 19.4806 43.5656 19.3551 43.642 19.213C43.7183 19.0708 43.7654 18.9148 43.7806 18.7541C43.7958 18.5935 43.7787 18.4314 43.7304 18.2775C43.6821 18.1235 43.6035 17.9807 43.4993 17.8576L40.6411 14.319C40.5411 14.195 40.4175 14.0921 40.2776 14.016C40.1376 13.94 39.984 13.8923 39.8255 13.8759C39.6671 13.8594 39.507 13.8744 39.3543 13.92C39.2017 13.9657 39.0596 14.041 38.9362 14.1418Z" fill="#126CAB"/>
<path id="Vector_5" d="M10.1888 13.2884C10.95 13.2886 11.6942 13.063 12.3272 12.6401C12.9602 12.2173 13.4536 11.6163 13.745 10.9131C14.0364 10.2098 14.1127 9.43595 13.9643 8.68933C13.8159 7.94272 13.4494 7.25688 12.9112 6.71856C12.373 6.18025 11.6872 5.81363 10.9406 5.66507C10.194 5.51651 9.42013 5.59269 8.71684 5.88396C8.01354 6.17524 7.41242 6.66854 6.98949 7.30146C6.56656 7.93439 6.34082 8.67852 6.34082 9.43975C6.34192 10.46 6.74766 11.4382 7.46904 12.1597C8.19042 12.8812 9.16853 13.2871 10.1888 13.2884ZM10.1888 8.0138C10.4709 8.01366 10.7466 8.09717 10.9812 8.25378C11.2158 8.41038 11.3987 8.63304 11.5067 8.89358C11.6147 9.15413 11.6431 9.44086 11.5881 9.71751C11.5332 9.99417 11.3974 10.2483 11.198 10.4478C10.9987 10.6473 10.7446 10.7832 10.4679 10.8382C10.1913 10.8933 9.90457 10.8651 9.64398 10.7572C9.38338 10.6493 9.16063 10.4665 9.00392 10.232C8.8472 9.99753 8.76355 9.7218 8.76355 9.43975C8.76392 9.0618 8.91417 8.69942 9.18136 8.4321C9.44855 8.16478 9.81086 8.01435 10.1888 8.0138Z" fill="#126CAB"/>
</g>
</svg>
