<svg width="56" height="40" viewBox="0 0 56 40" fill="none" xmlns="http://www.w3.org/2000/svg">
<path d="M24.8261 28.7459C32.3498 28.7459 38.449 22.6467 38.449 15.123C38.449 7.59921 32.3498 1.5 24.8261 1.5C17.3023 1.5 11.2031 7.59921 11.2031 15.123C11.2031 22.6467 17.3023 28.7459 24.8261 28.7459Z" fill="#3393D6" stroke="#1C1F35" stroke-width="2" stroke-linecap="round" stroke-linejoin="round"/>
<path d="M5.3457 37.828C7.73257 34.9832 10.7135 32.6956 14.0791 31.1262C17.4446 29.5567 21.113 28.7434 24.8265 28.7434C28.54 28.7434 32.2085 29.5567 35.574 31.1262C38.9395 32.6956 41.9205 34.9832 44.3074 37.828" stroke="#1C1F35" stroke-width="2" stroke-linecap="round" stroke-linejoin="round"/>
<path d="M51.8906 38.9631L41.6734 38.9631L41.6734 20.7992L51.8906 20.7992L51.8906 38.9631Z" fill="white" stroke="#141414" stroke-linecap="round" stroke-linejoin="round"/>
<path d="M51.8906 27.6106L41.6734 27.6106L41.6734 20.7991L51.8906 20.7991L51.8906 27.6106Z" fill="#3393D6" stroke="black" stroke-linecap="round" stroke-linejoin="round"/>
<path d="M48.4863 25.3401L45.0806 25.3401" stroke="#141414" stroke-linecap="round" stroke-linejoin="round"/>
<path d="M48.4863 31.0159L45.0806 31.0159" stroke="#141414" stroke-linecap="round" stroke-linejoin="round"/>
<path d="M55.2949 28.7461L55.2949 38.4034" stroke="#1C1F35" stroke-linecap="round" stroke-linejoin="round"/>
<path d="M6.7179 22.48C5.84217 21.3258 3.6835 17.4854 5.35352 10.2705" stroke="#1C1F35" stroke-width="1.5" stroke-linecap="round" stroke-linejoin="round"/>
<path d="M35.2417 16.5358C35.1934 17.6962 34.5521 21.1799 29.7051 24.8633" stroke="#1C1F35" stroke-linecap="round" stroke-linejoin="round"/>
</svg>
