<svg width="29" height="37" viewBox="0 0 29 37" fill="none" xmlns="http://www.w3.org/2000/svg">
<g id="Group 12905">
<path id="Vector (Stroke)" fill-rule="evenodd" clip-rule="evenodd" d="M7.12444 12.5067C7.03357 12.8478 7.04064 13.2924 7.17938 13.7551C7.31813 14.2179 7.55682 14.593 7.82036 14.8278C8.08671 15.0651 8.35103 15.1389 8.56313 15.0753C8.77522 15.0117 8.95535 14.8047 9.04719 14.46C9.13806 14.1189 9.13099 13.6743 8.99225 13.2116C8.8535 12.7488 8.61481 12.3737 8.35127 12.1389C8.08492 11.9016 7.8206 11.8278 7.60851 11.8914C7.39641 11.955 7.21628 12.162 7.12444 12.5067ZM6.74024 12.4044C6.85197 11.985 7.10064 11.6286 7.49432 11.5105C7.888 11.3925 8.29174 11.5533 8.61579 11.842C8.94265 12.1333 9.2167 12.5758 9.3731 13.0974C9.5295 13.619 9.54409 14.1393 9.43139 14.5623C9.31966 14.9817 9.07099 15.3381 8.67731 15.4562C8.28364 15.5742 7.87989 15.4134 7.55585 15.1247C7.22898 14.8334 6.95493 14.3909 6.79853 13.8693C6.64213 13.3477 6.62754 12.8274 6.74024 12.4044Z" fill="#126CAB"/>
<path id="Vector" fill-rule="evenodd" clip-rule="evenodd" d="M10.6611 18.7083C14.3038 17.6821 16.2285 15.8622 16.4273 13.2646C17.5328 17.9227 15.6081 19.7346 10.6611 18.7083Z" fill="#126CAB"/>
<path id="Vector (Stroke)_2" fill-rule="evenodd" clip-rule="evenodd" d="M16.383 12.7446L16.512 13.2862C17.064 15.6038 16.8701 17.2531 15.8758 18.1878C14.8845 19.1196 13.1336 19.3056 10.6657 18.7955L10.3135 18.7227L10.6598 18.6255C12.4661 18.1184 13.8382 17.4175 14.7821 16.5292C15.7242 15.6426 16.243 14.5667 16.3403 13.2998L16.383 12.7446ZM16.4512 13.8232C16.2633 14.9164 15.7458 15.8622 14.9013 16.6569C13.9924 17.5122 12.7074 18.1902 11.053 18.6929C13.3212 19.1112 14.8774 18.8865 15.7567 18.06C16.6099 17.2579 16.8564 15.8584 16.4512 13.8232Z" fill="#126CAB"/>
<path id="Vector_2" fill-rule="evenodd" clip-rule="evenodd" d="M1.45134 6.11509C2.75666 4.56299 4.88178 4.20482 7.82671 5.04056C8.161 4.74606 8.14508 4.39585 7.79487 3.96604C7.0865 3.46459 6.37016 3.14621 5.66179 3.01886C7.80283 2.26272 9.79264 2.39007 11.6472 3.39296C11.9098 3.16213 12.077 2.48558 12.1565 1.35534C12.7933 -0.427577 13.4857 -0.451455 14.21 1.2837C14.5284 1.96822 14.7592 2.76416 14.8945 3.67154C16.9639 2.67661 18.4762 3.51235 19.4233 6.17876C20.076 6.05937 20.7446 6.72 21.4211 8.16862C21.2381 8.35965 20.6172 8.50292 19.5587 8.59047C19.7895 9.02028 20.5138 9.64908 21.7395 10.4609C21.9066 10.7236 21.2301 11.042 19.7178 11.4081C19.5427 11.432 19.4791 11.5832 19.5348 11.8379C19.3199 11.8379 19.1686 11.8379 19.0731 11.8459C18.2931 9.59336 16.9321 8.17658 14.99 7.6035C12.658 6.91103 10.1349 7.23737 7.41283 8.59843C6.56119 9.24315 5.86077 10.055 5.43097 10.9703C5.85281 10.7475 6.20302 10.6838 6.48955 10.7714C5.42301 11.1614 4.8977 11.8936 4.91362 12.9682C4.78627 13.7402 5.01709 14.4247 5.61403 15.0297C5.69363 15.1252 5.86873 15.3242 6.13934 15.6346C6.01996 15.7381 5.84485 15.7858 5.61403 15.7779C5.66975 15.348 5.57424 15.1013 5.3275 15.0535C5.27975 14.966 5.1126 15.157 4.83403 15.6425C4.36443 15.9052 3.98239 15.7699 3.70381 15.2287C3.8232 14.7988 3.64014 14.6397 3.16258 14.7352C2.30298 14.8227 1.95278 14.4407 2.11196 13.597C2.29502 13.3741 2.38258 13.0876 2.37462 12.7294C2.27911 12.6816 1.96869 12.8249 1.42747 13.1672C0.957869 12.9443 0.918073 12.5861 1.31604 12.0688C1.89706 11.3285 2.63727 10.6918 3.53667 10.1426C3.27401 9.91174 2.86809 9.91174 2.32686 10.1426C1.87318 10.262 1.47522 10.4689 1.14093 10.7634C1.56277 8.9964 2.86809 7.86616 5.04893 7.3886C4.62709 6.13101 3.4332 5.7012 1.4593 6.10713L1.45134 6.11509Z" fill="#126CAB"/>
<path id="Vector (Stroke)_3" fill-rule="evenodd" clip-rule="evenodd" d="M12.232 8.51571C12.0744 8.39062 11.8222 8.33628 11.4306 8.41133L11.3574 8.01711C11.803 7.9317 12.1905 7.97363 12.4751 8.19957C12.7599 8.42559 12.8927 8.79672 12.918 9.25406L12.5237 9.27652C12.5016 8.87535 12.3895 8.64071 12.232 8.51571Z" fill="#126CAB"/>
<path id="Vector (Stroke)_4" fill-rule="evenodd" clip-rule="evenodd" d="M11.5336 10.8876C11.4428 11.2287 11.4498 11.6732 11.5886 12.136C11.7273 12.5987 11.966 12.9738 12.2295 13.2087C12.4959 13.446 12.7602 13.5198 12.9723 13.4562C13.1844 13.3926 13.3645 13.1856 13.4564 12.8408C13.5472 12.4997 13.5402 12.0552 13.4014 11.5924C13.2627 11.1297 13.024 10.7546 12.7605 10.5197C12.4941 10.2824 12.2298 10.2086 12.0177 10.2722C11.8056 10.3358 11.6255 10.5429 11.5336 10.8876ZM11.1494 10.7852C11.2611 10.3658 11.5098 10.0094 11.9035 9.89138C12.2972 9.77335 12.7009 9.93415 13.025 10.2229C13.3518 10.5141 13.6259 10.9566 13.7823 11.4782C13.9387 11.9999 13.9533 12.5201 13.8406 12.9432C13.7288 13.3626 13.4802 13.719 13.0865 13.837C12.6928 13.9551 12.2891 13.7943 11.965 13.5055C11.6382 13.2143 11.3641 12.7718 11.2077 12.2502C11.0513 11.7285 11.0367 11.2083 11.1494 10.7852Z" fill="#126CAB"/>
<path id="Vector (Stroke)_5" fill-rule="evenodd" clip-rule="evenodd" d="M11.7727 12.0081C11.7567 12.0489 11.7485 12.1145 11.7644 12.1923C11.7803 12.2701 11.8136 12.3272 11.8442 12.3584C11.8541 12.3685 11.8617 12.3743 11.8671 12.3776C11.8708 12.3725 11.8756 12.3641 11.8807 12.351C11.8967 12.3102 11.9049 12.2446 11.889 12.1668C11.8732 12.0891 11.8399 12.0319 11.8092 12.0007C11.7993 11.9906 11.7917 11.9848 11.7863 11.9815C11.7826 11.9867 11.7778 11.995 11.7727 12.0081ZM11.7934 11.974C11.7934 11.974 11.793 11.9743 11.7921 11.9748C11.7929 11.9741 11.7934 11.9739 11.7934 11.974ZM11.7783 11.9776C11.7772 11.9776 11.7767 11.9774 11.7767 11.9774C11.7767 11.9773 11.7772 11.9773 11.7783 11.9776ZM11.86 12.3852C11.86 12.3851 11.8604 12.3848 11.8613 12.3843C11.8605 12.385 11.86 12.3852 11.86 12.3852ZM11.8752 12.3815C11.8762 12.3815 11.8767 12.3817 11.8767 12.3818C11.8767 12.3818 11.8762 12.3818 11.8752 12.3815ZM11.4024 11.8633C11.4493 11.7434 11.5467 11.6199 11.7058 11.5874C11.8649 11.5549 12.0029 11.6304 12.0931 11.7223C12.1849 11.8158 12.2497 11.9456 12.2786 12.0873C12.3075 12.229 12.2988 12.3738 12.251 12.4958C12.2041 12.6157 12.1067 12.7392 11.9476 12.7717C11.7885 12.8042 11.6505 12.7288 11.5603 12.6369C11.4686 12.5433 11.4037 12.4135 11.3748 12.2718C11.3459 12.1302 11.3546 11.9854 11.4024 11.8633Z" fill="#126CAB"/>
<path id="Vector (Stroke)_6" fill-rule="evenodd" clip-rule="evenodd" d="M9.05251 16.0035C8.95327 15.6969 8.9191 15.3005 8.93904 14.8252L9.32809 14.842C9.30908 15.2953 9.34404 15.6379 9.42246 15.8801C9.49983 16.1191 9.61253 16.2421 9.74224 16.2972C9.87803 16.3549 10.0763 16.3573 10.3605 16.2583C10.6429 16.1598 10.9875 15.9688 11.3967 15.6759L11.6212 15.9988C11.197 16.3025 10.8183 16.5165 10.4869 16.632C10.1573 16.7469 9.85131 16.772 9.59184 16.6617C9.32631 16.5489 9.1528 16.3132 9.05251 16.0035Z" fill="#126CAB"/>
<path id="Vector (Stroke)_7" fill-rule="evenodd" clip-rule="evenodd" d="M27.642 6.81618C26.3288 6.76363 25.0761 7.41257 23.8897 8.83378L23.8847 8.8398L23.8846 8.8397C23.1917 9.6063 22.3988 10.2202 21.506 10.6627L21.3291 10.3054C22.1726 9.88738 22.925 9.30622 23.5864 8.57519C24.8221 7.09616 26.1827 6.3588 27.6579 6.41784L27.642 6.81618Z" fill="#126CAB"/>
<path id="Vector (Stroke)_8" fill-rule="evenodd" clip-rule="evenodd" d="M28.087 6.95751C28.0032 6.89445 27.8647 6.83946 27.6518 6.80821L27.7103 6.41504C27.9577 6.45135 28.1705 6.52155 28.3289 6.64082C28.4946 6.76559 28.5904 6.93675 28.6071 7.14215C28.623 7.33826 28.5659 7.55091 28.461 7.77169C28.3553 7.99432 28.1941 8.23982 27.9825 8.50704L27.9781 8.51263L27.9733 8.51789C27.653 8.8676 27.3563 9.15489 27.0985 9.38739C27.0472 9.45221 27.0364 9.49346 27.0354 9.51362C27.0347 9.52807 27.0374 9.55187 27.0746 9.5907C27.1638 9.68397 27.3855 9.79315 27.7999 9.89205L27.8058 9.89346L27.8058 9.89354C28.0306 9.95442 28.2199 10.029 28.3404 10.1307C28.4035 10.1839 28.4619 10.2564 28.4829 10.3515C28.5049 10.4505 28.4794 10.5424 28.4343 10.6174C28.3529 10.7526 28.1895 10.8641 27.9999 10.9623C27.8009 11.0654 27.536 11.172 27.2093 11.2828L27.1966 11.2871L27.1834 11.2897C26.5786 11.4082 26.0832 11.526 25.6955 11.6426C25.3216 11.7552 25.0599 11.8632 24.8979 11.9629C23.9827 12.9857 23.3008 13.7533 22.8511 14.2649C22.6246 14.5225 22.4575 14.7146 22.3493 14.8415C22.2949 14.9052 22.2566 14.9511 22.2333 14.9802L22.2197 14.9975L22.2158 15.0026L22.2147 15.0041L22.2145 15.0044L22.2149 15.0037L22.2167 15.001L22.2167 15.001C22.2177 14.9994 22.2218 14.9928 22.2263 14.9832C22.2285 14.9784 22.2327 14.9689 22.2363 14.9563C22.2391 14.9469 22.2471 14.9178 22.2429 14.8799C22.2378 14.8346 22.2111 14.7615 22.1311 14.7232C22.0681 14.6931 22.012 14.7056 21.9962 14.7095L22.1241 15.0847C21.7719 15.2357 21.4474 15.3772 21.1556 15.5181L20.9805 15.1607C21.2659 15.0229 21.5796 14.8855 21.9121 14.7427C21.9147 14.7394 21.9174 14.736 21.9201 14.7327C21.9474 14.6987 21.9889 14.649 22.0438 14.5847C22.154 14.4555 22.3226 14.2616 22.5495 14.0035C23.0034 13.4872 23.6923 12.7117 24.6172 11.6782L24.635 11.6583L24.6575 11.6437C24.8659 11.5088 25.178 11.3831 25.5794 11.2623C25.9814 11.1413 26.4864 11.0215 27.0926 10.9024C27.4042 10.7963 27.6435 10.6986 27.8147 10.61C27.9701 10.5295 28.0464 10.4677 28.0779 10.4308C28.027 10.3896 27.9123 10.3346 27.7033 10.2778C27.2865 10.178 26.9609 10.0489 26.7844 9.86443C26.6884 9.76416 26.6286 9.63892 26.6356 9.49439C26.6423 9.35665 26.7085 9.23236 26.7979 9.12443L26.8072 9.11317L26.8181 9.10339C27.0687 8.87785 27.3586 8.59792 27.6722 8.25582C27.8706 8.00474 28.0112 7.78709 28.099 7.60221C28.1883 7.41412 28.2162 7.27404 28.2081 7.17406C28.2007 7.08337 28.1635 7.01506 28.087 6.95751ZM28.0963 10.4487C28.0963 10.4487 28.0962 10.4486 28.0961 10.4484L28.0963 10.4487Z" fill="#126CAB"/>
<path id="Vector (Stroke)_9" fill-rule="evenodd" clip-rule="evenodd" d="M20.3798 14.0359C20.6509 13.3401 20.7382 12.7569 20.5974 12.3182C20.5218 12.0829 20.3818 11.8936 20.1808 11.7592C19.9827 11.6268 19.7359 11.5543 19.4536 11.5308L19.4209 11.9236C19.658 11.9434 19.8351 12.002 19.9624 12.0871C20.0867 12.1702 20.1734 12.285 20.2228 12.4389C20.3257 12.7596 20.2697 13.264 19.979 13.9784L19.9426 14.068L19.9911 14.1517C20.5191 15.0633 21.2878 15.8716 22.2822 16.5786L22.4988 16.7325L22.5827 16.4802C22.6503 16.2771 22.6386 16.0309 22.5783 15.7592C22.5173 15.4841 22.4015 15.1613 22.2374 14.7925L21.878 14.9529C22.0366 15.3094 22.1411 15.6054 22.1942 15.8447C22.211 15.9205 22.2222 15.9885 22.2286 16.0495C21.4385 15.4439 20.822 14.7723 20.3798 14.0359Z" fill="#126CAB"/>
<path id="Vector (Stroke)_10" fill-rule="evenodd" clip-rule="evenodd" d="M21.5516 12.8312C21.4614 12.091 21.2371 11.4775 20.8975 10.9631L21.2226 10.7505C21.5987 11.3201 21.8412 11.9918 21.9378 12.7846L21.5516 12.8312Z" fill="#126CAB"/>
<path id="Vector (Stroke)_11" fill-rule="evenodd" clip-rule="evenodd" d="M19.7992 14.3374C19.8767 14.2101 19.9535 14.084 20.0283 13.958L20.3696 14.1608C20.2936 14.2889 20.2157 14.4168 20.1385 14.5436L20.1382 14.5441C20.0747 14.6484 20.0116 14.752 19.9498 14.8552C20.0172 15.2057 19.9275 15.621 19.7224 16.0844C19.4981 16.5913 19.1225 17.1853 18.6018 17.8667L18.5952 17.8753L18.5877 17.8832C17.9926 18.5065 17.5312 18.9979 17.2021 19.3579C16.868 19.7233 16.6809 19.9419 16.6232 20.0267L16.2949 19.8034C16.3723 19.6895 16.5822 19.4473 16.9091 19.0897C17.2396 18.7282 17.7007 18.2371 18.2931 17.6167C18.8011 16.9511 19.1538 16.388 19.3594 15.9236C19.568 15.4523 19.6122 15.1111 19.5471 14.8751L19.5246 14.7935L19.5677 14.7207C19.6437 14.5927 19.7216 14.4647 19.7989 14.3379L19.7992 14.3374Z" fill="#126CAB"/>
<path id="Vector (Stroke)_12" fill-rule="evenodd" clip-rule="evenodd" d="M19.3369 19.5204C20.0367 19.0316 20.9929 17.9977 22.2338 16.3853L22.5447 16.6342C21.3034 18.2471 20.315 19.3259 19.5602 19.8531L19.3369 19.5204Z" fill="#126CAB"/>
<path id="Vector (Stroke)_13" fill-rule="evenodd" clip-rule="evenodd" d="M24.4608 19.1726C24.0355 19.338 23.7823 19.4649 23.6566 19.5629L23.604 19.604L23.537 19.6052C20.4925 19.6602 18.1321 19.833 16.4511 20.1139L16.3848 19.726C18.0825 19.4424 20.4444 19.2694 23.4662 19.213C23.6481 19.0874 23.9327 18.9553 24.3151 18.8066C24.7458 18.6391 25.3215 18.4429 26.0587 18.2065L26.1814 18.5807C25.4462 18.8165 24.8798 19.0097 24.4608 19.1726Z" fill="#126CAB"/>
<path id="Vector (Stroke)_14" fill-rule="evenodd" clip-rule="evenodd" d="M27.3137 19.3586C27.0485 19.1115 26.6158 18.8464 26.002 18.5684L26.1612 18.2065C26.7896 18.4912 27.267 18.777 27.578 19.0668C27.8765 19.345 28.0526 19.6582 28.0061 19.996C28.2221 21.3426 27.9844 22.4041 27.251 23.1482L26.9747 22.868C27.5947 22.239 27.8279 21.3143 27.6155 20.0291L27.6098 19.9944L27.6162 19.9599C27.6449 19.8046 27.5806 19.6074 27.3137 19.3586Z" fill="#126CAB"/>
<path id="Vector (Stroke)_15" fill-rule="evenodd" clip-rule="evenodd" d="M22.4159 21.4141L22.4772 21.4533C22.7011 21.5966 23.0518 21.7151 23.5461 21.7965C24.0374 21.8773 24.6555 21.919 25.4031 21.919H25.5184L25.575 22.0209C25.7717 22.3749 25.9914 22.6007 26.2265 22.7216C26.4582 22.8408 26.7244 22.8684 27.0372 22.7899L27.1319 23.1787C26.7421 23.2765 26.3768 23.248 26.048 23.0788C25.7509 22.926 25.5002 22.6668 25.2901 22.3192C24.5793 22.3152 23.9762 22.2729 23.483 22.1918C23.0039 22.113 22.6152 21.9955 22.3306 21.8309C20.8129 22.0507 19.7288 22.2387 19.0676 22.3869L18.9824 21.9958C19.6689 21.8419 20.788 21.6488 22.3442 21.4244L22.4159 21.4141Z" fill="#126CAB"/>
<path id="Vector (Stroke)_16" fill-rule="evenodd" clip-rule="evenodd" d="M18.9669 23.9863C18.7595 22.4902 18.8744 21.0007 19.297 19.5068L19.6816 19.6156C19.2417 21.1702 19.148 22.714 19.4145 24.265L19.4758 24.6219L19.1411 24.4834C18.1394 24.0688 17.2463 23.9107 16.449 23.9942L16.4366 23.9955L16.4242 23.9952C15.6112 23.9793 14.9656 23.9854 14.4885 24.0129C14.2498 24.0267 14.0564 24.0457 13.9068 24.0692C13.7529 24.0935 13.6606 24.1204 13.6143 24.1429L13.4395 23.7837C13.541 23.7343 13.6815 23.7003 13.8446 23.6746C14.0119 23.6483 14.2196 23.6283 14.4655 23.6141C14.955 23.5859 15.6081 23.5799 16.4198 23.5956C17.2047 23.5157 18.0529 23.6495 18.9669 23.9863Z" fill="#126CAB"/>
<path id="Vector (Stroke)_17" fill-rule="evenodd" clip-rule="evenodd" d="M16.8055 23.7544C16.9045 24.1468 16.9656 24.6665 16.9916 25.3009L16.5608 25.3149C16.5351 24.691 16.4755 24.1979 16.3848 23.8384L16.8055 23.7544Z" fill="#126CAB"/>
<path id="Vector (Stroke)_18" fill-rule="evenodd" clip-rule="evenodd" d="M17.9569 24.1142C17.9159 24.0653 17.8884 24.0617 17.8636 24.0641L17.8248 23.6704C18.0025 23.6531 18.1518 23.7295 18.2617 23.8606C18.3645 23.9833 18.4364 24.1559 18.4891 24.3574C18.5945 24.7608 18.6419 25.357 18.6385 26.1336C18.7605 27.0653 18.8194 27.7541 18.8101 28.1925C18.8057 28.4054 18.7852 28.5896 18.7294 28.7137C18.7011 28.7766 18.648 28.8595 18.5483 28.8965C18.5171 28.9081 18.4866 28.9133 18.4576 28.9139C17.8444 29.6275 17.2265 30.1023 16.6016 30.3105C15.947 30.5286 15.3036 30.4475 14.6876 30.0777C14.1991 29.9198 13.6507 29.5704 13.0454 29.0503C12.4308 28.5222 11.7458 27.8078 10.9916 26.9111C9.86632 25.9635 8.92149 25.2885 8.14746 24.8721L8.33615 24.524C9.14763 24.9605 10.1206 25.6587 11.2611 26.6201L11.2741 26.6311L11.2851 26.6441C12.0356 27.5374 12.7091 28.2389 13.3047 28.7507C13.9028 29.2646 14.4108 29.577 14.8298 29.7077L14.8533 29.715L14.8743 29.7279C15.4036 30.0515 15.9325 30.1163 16.4757 29.9353C17.0291 29.751 17.6159 29.3049 18.2316 28.5673L18.3414 28.4358L18.3903 28.4656C18.4014 28.4035 18.4104 28.312 18.4131 28.1842C18.4217 27.7761 18.366 27.1085 18.243 26.1717L18.2413 26.1584L18.2413 26.145C18.2453 25.3694 18.1973 24.8111 18.1048 24.4571C18.0582 24.2789 18.005 24.1716 17.9569 24.1142ZM18.3633 28.5592C18.3632 28.5592 18.3636 28.5586 18.3642 28.5576C18.3636 28.5588 18.3633 28.5592 18.3633 28.5592Z" fill="#126CAB"/>
<path id="Vector (Stroke)_19" fill-rule="evenodd" clip-rule="evenodd" d="M16.2133 27.6672C15.9711 28.1747 15.5607 28.5806 15.0099 28.908L14.9944 28.9172L14.9776 28.9234C14.5449 29.0814 14.1898 29.1897 13.9144 29.249C13.7767 29.2786 13.6549 29.2968 13.5509 29.302C13.4504 29.307 13.3505 29.3008 13.2656 29.2688L13.3988 28.8811C13.4123 28.8862 13.4519 28.8944 13.5323 28.8904C13.6091 28.8866 13.7095 28.8724 13.8353 28.8453C14.0834 28.7919 14.4147 28.6921 14.8312 28.5404C15.3258 28.2435 15.6654 27.8941 15.8616 27.4829L16.2133 27.6672Z" fill="#126CAB"/>
<path id="Vector (Stroke)_20" fill-rule="evenodd" clip-rule="evenodd" d="M11.9049 19.9554C12.9318 19.8572 14.425 19.7942 16.3812 19.7666L16.3868 20.1601C14.4337 20.1876 12.9533 20.2505 11.9426 20.3472C11.4363 20.3956 11.0546 20.4518 10.7925 20.5144C10.6609 20.5459 10.567 20.5772 10.5051 20.6062C10.4871 20.6146 10.4739 20.6219 10.4644 20.6277C10.4039 21.7422 10.3734 22.653 10.358 23.3601L10.3551 23.4913L10.2324 23.5391C9.38612 23.8688 8.78165 24.291 8.39172 24.8116L8.35303 24.8632L8.29119 24.8821C7.70614 25.0602 7.05983 25.1725 6.36175 25.2285L6.33008 24.8362C6.98166 24.7839 7.57864 24.6816 8.11537 24.5238C8.54109 23.9794 9.16104 23.5521 9.96611 23.2215C9.98283 22.5145 10.0144 21.619 10.074 20.5351L10.0762 20.4943L10.0945 20.4578C10.1463 20.3547 10.2485 20.2915 10.337 20.2501C10.4336 20.2048 10.5566 20.1661 10.7005 20.1317C10.9892 20.0627 11.3923 20.0044 11.9049 19.9554Z" fill="#126CAB"/>
<path id="Vector (Stroke)_21" fill-rule="evenodd" clip-rule="evenodd" d="M7.47012 27.457C7.05577 26.9248 6.7672 26.1094 6.58789 25.0376L6.96714 24.9688C7.142 26.014 7.41547 26.7502 7.76912 27.2044C8.11294 27.646 8.53578 27.827 9.0571 27.7631L9.10208 28.1613C8.44542 28.2418 7.8943 28.0018 7.47012 27.457Z" fill="#126CAB"/>
<path id="Vector (Stroke)_22" fill-rule="evenodd" clip-rule="evenodd" d="M1.14692 23.1307C1.87087 22.8235 2.88176 22.738 4.15874 22.8432L4.18549 22.8454L4.2107 22.8547C4.9877 23.1429 5.57919 23.4604 5.96591 23.8167C6.3578 24.1778 6.55341 24.594 6.49067 25.0586L6.09874 25.0043C6.13885 24.7072 6.02591 24.4138 5.69981 24.1134C5.37222 23.8116 4.84449 23.5189 4.09991 23.2406C2.85911 23.1408 1.93276 23.2321 1.30045 23.5002C0.796437 23.7193 0.517943 24.052 0.428168 24.5001C0.335471 24.9627 0.437432 25.5799 0.775943 26.3701C1.44897 27.6052 2.10865 28.3226 2.74881 28.5996L2.76073 28.6048L2.77188 28.6115C3.13181 28.8274 3.48252 28.9198 3.81895 28.8986C4.1551 28.8775 4.49332 28.742 4.82699 28.4744L5.07244 28.7889C4.68614 29.0986 4.27274 29.2718 3.84344 29.2988C3.41823 29.3255 2.99345 29.2078 2.5815 28.9631C1.81931 28.628 1.10773 27.8105 0.425055 26.5555L0.420612 26.5473L0.416937 26.5388C0.0621411 25.7134 -0.0761364 25.0024 0.0404943 24.4203C0.160335 23.8222 0.542232 23.3933 1.14538 23.1313L1.14692 23.1307L1.14692 23.1307Z" fill="#126CAB"/>
<path id="Vector (Stroke)_23" fill-rule="evenodd" clip-rule="evenodd" d="M6.65683 27.2214C6.59282 26.2502 6.55296 25.5337 6.53704 25.0547L6.13547 25.0677C6.15166 25.5545 6.19202 26.2784 6.25632 27.2537L6.25675 27.2601L6.25761 27.2666C6.38386 28.2161 6.69333 28.9837 7.19231 29.5535C7.13507 29.7241 6.98897 29.9605 6.72292 30.2676C6.42072 30.6164 5.98399 31.0341 5.40808 31.5204C4.92635 31.6231 4.52158 31.6162 4.18695 31.5138C3.84629 31.4096 3.56395 31.2023 3.33885 30.8819C2.85623 30.0973 2.60532 29.3458 2.56727 28.6176L2.16602 28.638C2.20824 29.446 2.48671 30.2621 2.99854 31.0927L3.00152 31.0975L3.00477 31.1021C3.27736 31.4924 3.63279 31.7592 4.06796 31.8923C4.49981 32.0244 4.99546 32.0204 5.54539 31.8962L5.59339 31.8854L5.63086 31.8539C6.23352 31.3472 6.70034 30.9037 7.02838 30.525C7.35027 30.1534 7.561 29.8194 7.61101 29.5333L7.62787 29.4368L7.5604 29.365C7.0911 28.8654 6.7822 28.157 6.65683 27.2214Z" fill="#126CAB"/>
<path id="Vector (Stroke)_24" fill-rule="evenodd" clip-rule="evenodd" d="M4.11324 24.7435C3.61597 23.9204 2.85655 23.4638 1.81738 23.3668L1.85465 22.9751C3.00495 23.0824 3.88058 23.5984 4.44841 24.5319C4.98576 25.2313 5.298 26.0601 5.37193 27.0199L4.97572 27.0498C4.90691 26.1565 4.61751 25.3986 4.12592 24.7621L4.11905 24.7532L4.11324 24.7435Z" fill="#126CAB"/>
<path id="Vector (Stroke)_25" fill-rule="evenodd" clip-rule="evenodd" d="M10.7225 29.5291C9.94923 29.5212 8.83983 29.5606 7.40037 29.6559L7.37402 29.2591C8.81784 29.1635 9.9386 29.1233 10.7265 29.1314M11.7776 30.1802C11.4379 29.7877 11.0478 29.5322 10.7226 29.5291L10.7225 29.5291M11.7776 30.1802C12.1126 30.5672 12.3466 31.0279 12.3912 31.3465L11.7776 30.1802ZM12.7831 31.2747C12.7191 30.8562 12.438 30.3349 12.0789 29.9201C11.7197 29.5052 11.2297 29.1363 10.7266 29.1314M12.7831 31.2747C12.8773 31.5839 12.8428 31.8823 12.672 32.1521C12.6117 32.2474 12.5356 32.3371 12.4452 32.4216C12.8645 32.7846 13.6172 33.066 14.7415 33.242C15.3435 33.164 15.8249 33.0884 16.1864 33.0162C16.5617 32.9412 16.7853 32.8739 16.8837 32.8218L16.9332 32.7955L16.9892 32.7989C17.9218 32.8553 18.6609 33.0214 19.1873 33.3126C19.7231 33.609 20.0418 34.0385 20.1061 34.5975L20.1068 34.6042L20.1067 34.6042C20.1439 35.0668 20.0942 35.4577 19.9231 35.745C19.7448 36.0442 19.4534 36.2011 19.0842 36.2261C17.7042 36.418 15.6517 36.569 12.9305 36.6723L12.9148 36.6729L12.8992 36.6711C11.7451 36.5331 10.9644 36.1085 10.7115 35.3215C10.4913 34.7302 10.4461 34.1849 10.6037 33.697C10.7622 33.2066 11.1163 32.8026 11.639 32.4784L11.6476 32.4731L11.6566 32.4687C12.0063 32.2979 12.2227 32.1176 12.3354 31.9395C12.4425 31.7705 12.4655 31.5893 12.3986 31.3792L12.3935 31.3632L12.3912 31.3465M12.1222 32.6659C12.0352 32.7203 11.9413 32.7721 11.8408 32.8215C11.3809 33.1086 11.1044 33.4427 10.9828 33.8191C10.86 34.199 10.8858 34.6505 11.0863 35.187L11.0898 35.1963L11.0896 35.1963C11.2676 35.756 11.8356 36.1404 12.9311 36.2743C15.6453 36.171 17.6791 36.0203 19.0364 35.8312L19.0439 35.8301L19.0515 35.8297C19.3159 35.8132 19.4795 35.7117 19.5808 35.5417C19.6901 35.3581 19.7439 35.066 19.71 34.6395C19.6619 34.2296 19.4351 33.9044 18.9943 33.6606C18.5517 33.4156 17.8978 33.2569 17.0168 33.1991C16.8541 33.2721 16.5965 33.3398 16.2645 33.4062C15.8848 33.482 15.3839 33.5602 14.7644 33.6401L14.7364 33.6437L14.7086 33.6394C13.5146 33.4554 12.6296 33.1441 12.1222 32.6659Z" fill="#126CAB"/>
<path id="Vector (Stroke)_26" fill-rule="evenodd" clip-rule="evenodd" d="M18.2892 31.6185C18.1199 32.3157 17.7176 32.8478 17.0924 33.2051L16.9072 32.8549C17.4427 32.5489 17.7744 32.1061 17.9165 31.5207C18.0606 30.9269 18.0131 30.1707 17.7531 29.2421L18.1221 29.1304C18.3924 30.0957 18.4563 30.9297 18.2892 31.6185Z" fill="#126CAB"/>
<path id="Vector (Stroke)_27" fill-rule="evenodd" clip-rule="evenodd" d="M12.5693 31.1422C13.751 31.054 14.767 31.2862 15.6037 31.8441L15.3771 32.1644C14.6288 31.6654 13.7077 31.4469 12.6 31.5296L12.5693 31.1422Z" fill="#126CAB"/>
<path id="Vector (Stroke)_28" fill-rule="evenodd" clip-rule="evenodd" d="M6.36209 16.9366C6.3965 16.3952 6.24946 16.0449 5.96943 15.8354L6.20736 15.519C6.70479 15.8911 6.8447 16.5135 6.72041 17.2903L6.68477 17.5131L6.468 17.4487C6.21954 17.3749 6.01376 17.1848 5.84082 16.9244C5.66704 16.6629 5.51362 16.3115 5.37598 15.8795L5.75391 15.7597C5.88592 16.174 6.02595 16.4871 6.1714 16.706C6.2366 16.8041 6.30039 16.8797 6.36209 16.9366Z" fill="#126CAB"/>
<path id="Vector (Stroke)_29" fill-rule="evenodd" clip-rule="evenodd" d="M7.75693 19.6566C7.09411 19.0768 6.62073 18.2796 6.33008 17.2757L6.71782 17.1655C6.9919 18.1121 7.43017 18.8376 8.0239 19.357C8.61719 19.8759 9.37853 20.2003 10.3181 20.3239L10.265 20.7201C9.26027 20.5879 8.42018 20.2368 7.75693 19.6566Z" fill="#126CAB"/>
<path id="Vector_3" fill-rule="evenodd" clip-rule="evenodd" d="M13.4452 18.1067C14.3244 17.5228 14.9319 16.9714 15.2516 16.4524C15.5952 16.3632 15.9469 16.3146 16.2986 16.2983C16.4025 16.6065 16.4105 16.8173 16.3226 16.9471C16.0268 17.9608 15.2595 18.5446 14.0127 18.6987C13.3973 18.8041 13.2135 18.6014 13.4452 18.1067Z" fill="#126CAB"/>
<path id="Vector (Stroke)_30" fill-rule="evenodd" clip-rule="evenodd" d="M7.3254 13.4412C7.30946 13.482 7.30123 13.5476 7.31711 13.6254C7.33299 13.7032 7.3663 13.7603 7.39693 13.7916C7.40681 13.8016 7.41448 13.8074 7.41988 13.8107C7.42355 13.8056 7.42834 13.7972 7.43348 13.7841C7.44942 13.7433 7.45765 13.6777 7.44177 13.5999C7.42589 13.5222 7.39258 13.465 7.36195 13.4338C7.35207 13.4237 7.3444 13.4179 7.339 13.4146C7.33533 13.4198 7.33054 13.4281 7.3254 13.4412ZM7.34614 13.4071C7.34617 13.4071 7.34576 13.4075 7.34485 13.4079C7.34566 13.4072 7.34612 13.407 7.34614 13.4071ZM7.33099 13.4107C7.32998 13.4107 7.32947 13.4105 7.32947 13.4105C7.32948 13.4104 7.32998 13.4104 7.33099 13.4107ZM7.41274 13.8183C7.41271 13.8182 7.41312 13.8179 7.41403 13.8174C7.41322 13.8181 7.41276 13.8183 7.41274 13.8183ZM7.42789 13.8146C7.4289 13.8147 7.42941 13.8148 7.42941 13.8149C7.4294 13.8149 7.4289 13.8149 7.42789 13.8146ZM6.95512 13.2964C7.00202 13.1765 7.0994 13.053 7.25854 13.0205C7.41768 12.988 7.55567 13.0635 7.64581 13.1554C7.73759 13.2489 7.80241 13.3787 7.83134 13.5204C7.86026 13.6621 7.85151 13.8069 7.80376 13.9289C7.75686 14.0488 7.65948 14.1723 7.50034 14.2048C7.3412 14.2373 7.20321 14.1619 7.11307 14.07C7.02129 13.9764 6.95647 13.8466 6.92754 13.7049C6.89862 13.5633 6.90737 13.4185 6.95512 13.2964Z" fill="#126CAB"/>
</g>
</svg>
