<svg width="16" height="18" viewBox="0 0 16 18" fill="none" xmlns="http://www.w3.org/2000/svg">
<g id="instagram logo" clip-path="url(#clip0_694_354)">
<path id="Vector" d="M8.00331 4.95703C5.73189 4.95703 3.89975 6.76055 3.89975 8.99648C3.89975 11.2324 5.73189 13.0359 8.00331 13.0359C10.2747 13.0359 12.1069 11.2324 12.1069 8.99648C12.1069 6.76055 10.2747 4.95703 8.00331 4.95703ZM8.00331 11.6227C6.53546 11.6227 5.33546 10.4449 5.33546 8.99648C5.33546 7.54805 6.53189 6.37031 8.00331 6.37031C9.47474 6.37031 10.6712 7.54805 10.6712 8.99648C10.6712 10.4449 9.47117 11.6227 8.00331 11.6227ZM13.2319 4.7918C13.2319 5.31563 12.8033 5.73399 12.2747 5.73399C11.7426 5.73399 11.3176 5.31211 11.3176 4.7918C11.3176 4.27149 11.7462 3.84961 12.2747 3.84961C12.8033 3.84961 13.2319 4.27149 13.2319 4.7918ZM15.9497 5.74805C15.889 4.48594 15.5962 3.36797 14.6569 2.44688C13.7212 1.52578 12.5855 1.2375 11.3033 1.17422C9.98188 1.10039 6.02117 1.10039 4.69975 1.17422C3.42118 1.23399 2.28546 1.52227 1.34618 2.44336C0.406892 3.36445 0.117606 4.48242 0.0533203 5.74453C-0.0216797 7.04531 -0.0216797 10.9441 0.0533203 12.2449C0.114035 13.507 0.406892 14.625 1.34618 15.5461C2.28546 16.4672 3.4176 16.7555 4.69975 16.8187C6.02117 16.8926 9.98188 16.8926 11.3033 16.8187C12.5855 16.759 13.7212 16.4707 14.6569 15.5461C15.5926 14.625 15.8855 13.507 15.9497 12.2449C16.0247 10.9441 16.0247 7.04883 15.9497 5.74805ZM14.2426 13.6406C13.964 14.3297 13.4247 14.8605 12.7212 15.1383C11.6676 15.5496 9.1676 15.4547 8.00331 15.4547C6.83903 15.4547 4.33546 15.5461 3.28546 15.1383C2.58546 14.8641 2.04618 14.3332 1.76403 13.6406C1.34618 12.6035 1.44261 10.1426 1.44261 8.99648C1.44261 7.85039 1.34975 5.38594 1.76403 4.35234C2.0426 3.66328 2.58189 3.13242 3.28546 2.85469C4.33903 2.44336 6.83903 2.53828 8.00331 2.53828C9.1676 2.53828 11.6712 2.44688 12.7212 2.85469C13.4212 3.12891 13.9605 3.65977 14.2426 4.35234C14.6605 5.38945 14.564 7.85039 14.564 8.99648C14.564 10.1426 14.6605 12.607 14.2426 13.6406Z" fill="#0E0F1D"/>
</g>
<defs>
<clipPath id="clip0_694_354">
<rect width="16" height="18" fill="white"/>
</clipPath>
</defs>
</svg>
