<svg width="21" height="20" viewBox="0 0 21 20" fill="none" xmlns="http://www.w3.org/2000/svg">
    <path
        d="M20.7364 5.90309C20.7252 5.06334 20.568 4.23193 20.2718 3.44606C20.015 2.78318 19.6227 2.18117 19.12 1.67849C18.6173 1.17581 18.0153 0.783514 17.3524 0.526666C16.5767 0.235455 15.7571 0.0779923 14.9287 0.0609825C13.862 0.0133053 13.5239 0 10.8162 0C8.10863 0 7.76158 7.43489e-08 6.70271 0.0609825C5.87463 0.0781174 5.05546 0.235578 4.28004 0.526666C3.61706 0.783335 3.01496 1.17557 2.51226 1.67827C2.00955 2.18097 1.61732 2.78308 1.36065 3.44606C1.06886 4.22124 0.911735 5.04059 0.896076 5.86872C0.848398 6.93647 0.833984 7.27464 0.833984 9.98226C0.833984 12.6899 0.833984 13.0358 0.896076 14.0958C0.912707 14.9252 1.06904 15.7434 1.36065 16.5207C1.61775 17.1835 2.01027 17.7853 2.51315 18.2878C3.01602 18.7903 3.61818 19.1824 4.28115 19.439C5.05445 19.7419 5.87376 19.9106 6.70382 19.9379C7.77156 19.9856 8.10974 20 10.8174 20C13.525 20 13.872 20 14.9309 19.9379C15.7593 19.9216 16.5789 19.7645 17.3547 19.4733C18.0174 19.2162 18.6192 18.8238 19.1219 18.3211C19.6245 17.8185 20.0169 17.2166 20.2741 16.5539C20.5657 15.7778 20.722 14.9595 20.7386 14.1291C20.7863 13.0624 20.8007 12.7242 20.8007 10.0155C20.7985 7.30791 20.7985 6.96419 20.7364 5.90309ZM10.8096 15.1026C7.97779 15.1026 5.68375 12.8085 5.68375 9.97672C5.68375 7.14492 7.97779 4.85087 10.8096 4.85087C12.1691 4.85087 13.4728 5.39091 14.4341 6.3522C15.3954 7.31348 15.9354 8.61726 15.9354 9.97672C15.9354 11.3362 15.3954 12.64 14.4341 13.6012C13.4728 14.5625 12.1691 15.1026 10.8096 15.1026ZM16.1395 5.85653C15.9824 5.85667 15.827 5.82586 15.6819 5.76584C15.5368 5.70582 15.405 5.61779 15.294 5.50677C15.1829 5.39575 15.0949 5.26393 15.0349 5.11885C14.9749 4.97377 14.9441 4.81828 14.9442 4.66127C14.9442 4.50438 14.9751 4.34903 15.0351 4.20408C15.0952 4.05913 15.1832 3.92743 15.2941 3.81649C15.4051 3.70555 15.5368 3.61755 15.6817 3.55751C15.8267 3.49747 15.982 3.46657 16.1389 3.46657C16.2958 3.46657 16.4511 3.49747 16.5961 3.55751C16.741 3.61755 16.8727 3.70555 16.9837 3.81649C17.0946 3.92743 17.1826 4.05913 17.2427 4.20408C17.3027 4.34903 17.3336 4.50438 17.3336 4.66127C17.3336 5.3221 16.7992 5.85653 16.1395 5.85653Z"
        fill="#999999" />
    <path
        d="M10.8101 13.3058C12.649 13.3058 14.1397 11.815 14.1397 9.97612C14.1397 8.13721 12.649 6.64648 10.8101 6.64648C8.9712 6.64648 7.48047 8.13721 7.48047 9.97612C7.48047 11.815 8.9712 13.3058 10.8101 13.3058Z"
        fill="#999999" />
</svg>