<svg width="16" height="15" viewBox="0 0 16 15" fill="none" xmlns="http://www.w3.org/2000/svg">
<g id="linkedin logo" clip-path="url(#clip0_694_358)">
<path id="Vector" d="M3.63269 14.9999V4.87947H0.202386V14.9999H3.63269ZM1.91798 3.49686C3.11419 3.49686 3.85877 2.71972 3.85877 1.74856C3.83648 0.7555 3.11423 -6.48499e-05 1.94068 -6.48499e-05C0.767312 -6.48499e-05 0 0.755515 0 1.74856C0 2.71977 0.744398 3.49686 1.89559 3.49686H1.91787H1.91798ZM5.53135 14.9999H8.96165V9.34818C8.96165 9.0457 8.98394 8.74354 9.07452 8.52732C9.32251 7.92298 9.88693 7.29706 10.8345 7.29706C12.0758 7.29706 12.5724 8.22514 12.5724 9.58564V14.9999H16.0025V9.19689C16.0025 6.08827 14.3101 4.64187 12.0532 4.64187C10.2027 4.64187 9.39021 5.6562 8.93883 6.34705H8.96173V4.87925H5.53143C5.57644 5.82891 5.53143 14.9997 5.53143 14.9997L5.53135 14.9999Z" fill="#0E0F1D"/>
</g>
<defs>
<clipPath id="clip0_694_358">
<rect width="16" height="15" fill="white"/>
</clipPath>
</defs>
</svg>
