<svg width="290" height="83" viewBox="0 0 290 83" fill="none" xmlns="http://www.w3.org/2000/svg">
<path fill-rule="evenodd" clip-rule="evenodd" d="M12.5907 22.0974C12.4301 22.7 12.4426 23.4855 12.6877 24.3031C12.9329 25.1208 13.3546 25.7835 13.8203 26.1984C14.2909 26.6178 14.7579 26.7481 15.1326 26.6357C15.5074 26.5234 15.8256 26.1576 15.9879 25.5485C16.1485 24.9459 16.136 24.1604 15.8908 23.3428C15.6457 22.5251 15.224 21.8624 14.7583 21.4475C14.2877 21.0281 13.8207 20.8978 13.4459 21.0102C13.0712 21.1225 12.7529 21.4883 12.5907 22.0974ZM11.9118 21.9165C12.1092 21.1755 12.5486 20.5458 13.2442 20.3372C13.9398 20.1287 14.6531 20.4128 15.2257 20.923C15.8032 21.4376 16.2874 22.2194 16.5637 23.141C16.8401 24.0627 16.8659 24.9819 16.6667 25.7294C16.4693 26.4704 16.03 27.1001 15.3344 27.3087C14.6388 27.5172 13.9254 27.2331 13.3529 26.7229C12.7754 26.2083 12.2912 25.4266 12.0148 24.5049C11.7385 23.5832 11.7127 22.664 11.9118 21.9165Z" fill="#126CAB"/>
<path fill-rule="evenodd" clip-rule="evenodd" d="M18.8428 33.0545C25.2788 31.2413 28.6796 28.0258 29.0309 23.4362C30.9842 31.6663 27.5835 34.8677 18.8428 33.0545Z" fill="#126CAB"/>
<path fill-rule="evenodd" clip-rule="evenodd" d="M28.9526 22.5176L29.1805 23.4745C30.1559 27.5695 29.8132 30.4835 28.0563 32.135C26.3049 33.7814 23.2112 34.11 18.8509 33.2087L18.2285 33.0801L18.8405 32.9083C22.0319 32.0124 24.4562 30.7739 26.124 29.2044C27.7886 27.638 28.7052 25.737 28.8772 23.4986L28.9526 22.5176ZM29.0731 24.4233C28.7411 26.3548 27.8268 28.0259 26.3346 29.4301C24.7287 30.9414 22.4583 32.1392 19.5351 33.0275C23.5428 33.7665 26.2924 33.3695 27.8459 31.9091C29.3535 30.492 29.789 28.0192 29.0731 24.4233Z" fill="#126CAB"/>
<path fill-rule="evenodd" clip-rule="evenodd" d="M2.55966 10.8045C4.86599 8.06221 8.62079 7.42936 13.8241 8.906C14.4147 8.38566 14.3866 7.76688 13.7678 7.00746C12.5162 6.12147 11.2506 5.55894 9.99896 5.33393C13.7819 3.99792 17.2976 4.22293 20.5743 5.9949C21.0384 5.58707 21.3337 4.39169 21.4743 2.3947C22.5994 -0.755472 23.8228 -0.797662 25.1026 2.26813C25.6651 3.47758 26.0729 4.8839 26.312 6.48712C29.9684 4.72921 32.6403 6.20585 34.3138 10.9171C35.467 10.7061 36.6483 11.8734 37.8436 14.4329C37.5202 14.7704 36.4232 15.0235 34.5529 15.1782C34.9607 15.9376 36.2404 17.0486 38.4061 18.4831C38.7014 18.9472 37.5061 19.5097 34.8341 20.1566C34.5248 20.1988 34.4122 20.466 34.5107 20.916C34.131 20.916 33.8638 20.916 33.695 20.9301C32.3169 16.9502 29.9121 14.4469 26.4807 13.4344C22.3603 12.2109 17.9023 12.7875 13.0928 15.1923C11.5881 16.3314 10.3505 17.7659 9.59114 19.3831C10.3365 18.9894 10.9552 18.8769 11.4615 19.0316C9.57707 19.7207 8.64892 21.0145 8.67704 22.913C8.45204 24.2772 8.85986 25.4866 9.91459 26.5554C10.0552 26.7242 10.3646 27.0758 10.8427 27.6242C10.6318 27.8071 10.3224 27.8914 9.91459 27.8774C10.013 27.118 9.84427 26.682 9.40832 26.5976C9.32394 26.4429 9.02862 26.7804 8.53642 27.6383C7.7067 28.1024 7.03168 27.8633 6.53948 26.907C6.75042 26.1476 6.42697 25.8663 5.5832 26.0351C4.0644 26.1898 3.44563 25.5147 3.72689 24.024C4.05033 23.6303 4.20503 23.124 4.19096 22.4911C4.02221 22.4068 3.47375 22.6599 2.51747 23.2646C1.68776 22.8708 1.61744 22.238 2.32059 21.3239C3.34719 20.016 4.65504 18.8909 6.24416 17.9206C5.78008 17.5127 5.06287 17.5127 4.10659 17.9206C3.305 18.1315 2.60185 18.4972 2.01121 19.0175C2.75654 15.8955 5.06287 13.8985 8.91612 13.0547C8.17078 10.8327 6.06134 10.0733 2.57372 10.7905L2.55966 10.8045Z" fill="#126CAB"/>
<path fill-rule="evenodd" clip-rule="evenodd" d="M21.6127 15.0463C21.3343 14.8253 20.8885 14.7292 20.1967 14.8618L20.0674 14.1653C20.8547 14.0144 21.5393 14.0885 22.0422 14.4877C22.5454 14.887 22.78 15.5428 22.8246 16.3508L22.128 16.3905C22.0889 15.6817 21.891 15.2671 21.6127 15.0463Z" fill="#126CAB"/>
<path fill-rule="evenodd" clip-rule="evenodd" d="M20.3748 19.2368C20.2143 19.8394 20.2268 20.6249 20.4719 21.4425C20.7171 22.2602 21.1388 22.9229 21.6044 23.3378C22.0751 23.7572 22.5421 23.8875 22.9168 23.7751C23.2916 23.6628 23.6098 23.297 23.7721 22.6879C23.9326 22.0853 23.9202 21.2998 23.675 20.4822C23.4299 19.6645 23.0081 19.0018 22.5425 18.5869C22.0719 18.1675 21.6049 18.0372 21.2301 18.1495C20.8554 18.2619 20.5371 18.6277 20.3748 19.2368ZM19.696 19.0559C19.8934 18.3149 20.3328 17.6852 21.0284 17.4766C21.7239 17.2681 22.4373 17.5522 23.0099 18.0624C23.5874 18.577 24.0716 19.3587 24.3479 20.2804C24.6243 21.2021 24.6501 22.1213 24.4509 22.8688C24.2535 23.6098 23.8141 24.2395 23.1186 24.4481C22.423 24.6566 21.7096 24.3725 21.1371 23.8623C20.5596 23.3477 20.0753 22.5659 19.799 21.6443C19.5227 20.7226 19.4969 19.8034 19.696 19.0559Z" fill="#126CAB"/>
<path fill-rule="evenodd" clip-rule="evenodd" d="M20.7994 21.2165C20.7712 21.2885 20.7567 21.4044 20.7847 21.5418C20.8128 21.6793 20.8716 21.7802 20.9258 21.8354C20.9432 21.8532 20.9568 21.8635 20.9663 21.8693C20.9728 21.8602 20.9813 21.8455 20.9903 21.8223C21.0185 21.7503 21.0331 21.6343 21.005 21.4969C20.9769 21.3594 20.9181 21.2585 20.864 21.2033C20.8465 21.1855 20.833 21.1753 20.8234 21.1694C20.8169 21.1785 20.8085 21.1933 20.7994 21.2165ZM20.836 21.1561C20.8361 21.1562 20.8354 21.1568 20.8338 21.1576C20.8352 21.1564 20.836 21.156 20.836 21.1561ZM20.8093 21.1626C20.8075 21.1625 20.8066 21.1622 20.8066 21.1621C20.8066 21.162 20.8075 21.1621 20.8093 21.1626ZM20.9537 21.8826C20.9537 21.8825 20.9544 21.8819 20.956 21.8811C20.9546 21.8823 20.9538 21.8827 20.9537 21.8826ZM20.9805 21.8761C20.9823 21.8762 20.9832 21.8765 20.9832 21.8766C20.9832 21.8767 20.9823 21.8767 20.9805 21.8761ZM20.1452 20.9605C20.228 20.7487 20.4001 20.5305 20.6813 20.4731C20.9624 20.4157 21.2063 20.549 21.3655 20.7114C21.5277 20.8767 21.6422 21.106 21.6933 21.3563C21.7444 21.6067 21.729 21.8625 21.6446 22.0782C21.5617 22.29 21.3897 22.5082 21.1085 22.5656C20.8273 22.623 20.5835 22.4897 20.4242 22.3274C20.2621 22.162 20.1475 21.9327 20.0964 21.6824C20.0453 21.4321 20.0608 21.1762 20.1452 20.9605Z" fill="#126CAB"/>
<path fill-rule="evenodd" clip-rule="evenodd" d="M15.9894 28.276C15.8141 27.7344 15.7537 27.034 15.7889 26.1942L16.4763 26.2239C16.4427 27.0248 16.5045 27.6301 16.6431 28.0581C16.7798 28.4804 16.9789 28.6976 17.2081 28.795C17.448 28.897 17.7983 28.9012 18.3004 28.7262C18.7995 28.5523 19.4084 28.2148 20.1312 27.6972L20.5279 28.2677C19.7784 28.8044 19.1093 29.1826 18.5238 29.3866C17.9414 29.5895 17.4008 29.6339 16.9423 29.4391C16.4732 29.2397 16.1666 28.8234 15.9894 28.276Z" fill="#126CAB"/>
<path fill-rule="evenodd" clip-rule="evenodd" d="M48.8347 12.0444C46.5145 11.9516 44.3012 13.0982 42.2049 15.6093L42.196 15.6199L42.1958 15.6197C40.9716 16.9742 39.5707 18.0588 37.9932 18.8406L37.6807 18.2095C39.171 17.4708 40.5005 16.444 41.669 15.1524C43.8523 12.5391 46.2563 11.2363 48.8629 11.3406L48.8347 12.0444Z" fill="#126CAB"/>
<path fill-rule="evenodd" clip-rule="evenodd" d="M49.6276 12.2933C49.4796 12.1819 49.2348 12.0847 48.8586 12.0295L48.962 11.3348C49.3992 11.399 49.775 11.523 50.0549 11.7337C50.3478 11.9542 50.5171 12.2566 50.5465 12.6195C50.5746 12.966 50.4737 13.3417 50.2885 13.7318C50.1017 14.1252 49.8168 14.5589 49.4429 15.0311L49.4351 15.041L49.4266 15.0502C48.8608 15.6681 48.3365 16.1757 47.8811 16.5865C47.7904 16.7011 47.7714 16.774 47.7696 16.8096C47.7684 16.8351 47.7731 16.8772 47.8388 16.9458C47.9965 17.1106 48.3882 17.3035 49.1203 17.4782L49.1307 17.4807L49.1307 17.4809C49.5279 17.5884 49.8624 17.7202 50.0754 17.8999C50.1868 17.9938 50.2899 18.122 50.3272 18.29C50.3659 18.465 50.321 18.6273 50.2412 18.7599C50.0974 18.9988 49.8087 19.1957 49.4738 19.3692C49.1221 19.5514 48.6541 19.7397 48.0769 19.9355L48.0544 19.9431L48.031 19.9477C46.9624 20.1571 46.0872 20.3652 45.4022 20.5713C44.7414 20.7701 44.2791 20.9609 43.9928 21.1371C42.3758 22.9443 41.171 24.3005 40.3764 25.2044C39.9762 25.6596 39.681 25.9991 39.4898 26.2233C39.3937 26.3359 39.326 26.417 39.2848 26.4683L39.2608 26.4988L39.2539 26.508L39.252 26.5105L39.2517 26.511L39.2524 26.5099L39.2555 26.505L39.2556 26.505C39.2573 26.5022 39.2646 26.4905 39.2725 26.4735C39.2764 26.4651 39.2838 26.4483 39.2903 26.426C39.295 26.4095 39.3093 26.3581 39.3018 26.2911C39.2928 26.211 39.2456 26.0819 39.1043 26.0143C38.993 25.961 38.8938 25.983 38.866 25.9899L39.092 26.6529C38.4697 26.9197 37.8962 27.1698 37.3807 27.4188L37.0713 26.7873C37.5757 26.5437 38.1298 26.301 38.7174 26.0487C38.722 26.0428 38.7267 26.0369 38.7315 26.0309C38.7796 25.9709 38.8531 25.8831 38.95 25.7695C39.1447 25.5412 39.4427 25.1986 39.8435 24.7426C40.6455 23.8304 41.8628 22.4602 43.4969 20.6341L43.5284 20.5989L43.5681 20.5732C43.9363 20.3348 44.4878 20.1126 45.1971 19.8992C45.9073 19.6855 46.7995 19.4738 47.8706 19.2634C48.4211 19.0759 48.8441 18.9034 49.1465 18.7466C49.421 18.6044 49.5558 18.4952 49.6115 18.4301C49.5215 18.3573 49.3189 18.2601 48.9496 18.1597C48.2131 17.9835 47.6379 17.7554 47.326 17.4294C47.1565 17.2522 47.0507 17.031 47.0632 16.7756C47.075 16.5322 47.192 16.3126 47.3499 16.1219L47.3664 16.102L47.3856 16.0847C47.8285 15.6862 48.3407 15.1916 48.8947 14.5872C49.2452 14.1436 49.4936 13.759 49.6487 13.4324C49.8065 13.1 49.8559 12.8525 49.8415 12.6759C49.8285 12.5156 49.7627 12.395 49.6276 12.2933ZM49.644 18.4618C49.644 18.4618 49.6438 18.4616 49.6436 18.4612L49.644 18.4618Z" fill="#126CAB"/>
<path fill-rule="evenodd" clip-rule="evenodd" d="M36.0057 24.8C36.4848 23.5706 36.639 22.5402 36.3902 21.765C36.2567 21.3492 36.0094 21.0149 35.6542 20.7774C35.3042 20.5434 34.868 20.4153 34.3693 20.3737L34.3115 21.0678C34.7304 21.1027 35.0433 21.2063 35.2682 21.3566C35.4878 21.5035 35.6411 21.7063 35.7284 21.9782C35.9102 22.5449 35.8112 23.4361 35.2977 24.6984L35.2332 24.8567L35.3189 25.0046C36.2519 26.6151 37.61 28.0433 39.3671 29.2925L39.7497 29.5645L39.8981 29.1187C40.0175 28.7598 39.9967 28.3248 39.8903 27.8448C39.7824 27.3587 39.5778 26.7883 39.2879 26.1367L38.6529 26.4202C38.9331 27.0501 39.1178 27.5731 39.2116 27.9959C39.2413 28.1297 39.2611 28.25 39.2723 28.3577C37.8764 27.2877 36.7871 26.101 36.0057 24.8Z" fill="#126CAB"/>
<path fill-rule="evenodd" clip-rule="evenodd" d="M38.0699 22.6716C37.9106 21.3638 37.5142 20.2797 36.9141 19.3709L37.4885 18.9953C38.1531 20.0017 38.5816 21.1885 38.7522 22.5893L38.0699 22.6716Z" fill="#126CAB"/>
<path fill-rule="evenodd" clip-rule="evenodd" d="M34.9894 25.3324C35.1264 25.1075 35.2621 24.8846 35.3942 24.662L35.9973 25.0204C35.863 25.2467 35.7254 25.4727 35.589 25.6967L35.5884 25.6976C35.4762 25.8819 35.3648 26.0648 35.2556 26.2473C35.3747 26.8666 35.2162 27.6002 34.8538 28.4191C34.4574 29.3147 33.7938 30.3643 32.8739 31.5681L32.8622 31.5834L32.8488 31.5973C31.7974 32.6985 30.9821 33.5668 30.4006 34.2029C29.8103 34.8485 29.4798 35.2348 29.3779 35.3846L28.7979 34.99C28.9345 34.7889 29.3054 34.3609 29.8831 33.7291C30.467 33.0904 31.2818 32.2226 32.3283 31.1264C33.2259 29.9504 33.8492 28.9555 34.2124 28.1349C34.5809 27.3022 34.6591 26.6993 34.544 26.2823L34.5042 26.1382L34.5805 26.0097C34.7148 25.7833 34.8524 25.5573 34.9888 25.3333L34.9894 25.3324Z" fill="#126CAB"/>
<path fill-rule="evenodd" clip-rule="evenodd" d="M34.1592 34.49C35.3956 33.6263 37.085 31.7996 39.2775 28.9505L39.8269 29.3904C37.6337 32.2402 35.8873 34.1463 34.5538 35.0777L34.1592 34.49Z" fill="#126CAB"/>
<path fill-rule="evenodd" clip-rule="evenodd" d="M43.2205 33.8753C42.469 34.1676 42.0216 34.3917 41.7996 34.5649L41.7066 34.6375L41.5882 34.6396C36.209 34.7368 32.0384 35.0421 29.0683 35.5383L28.9512 34.853C31.9508 34.3519 36.1241 34.0464 41.4631 33.9467C41.7845 33.7247 42.2874 33.4913 42.963 33.2285C43.7239 32.9326 44.7412 32.5859 46.0437 32.1684L46.2606 32.8295C44.9615 33.246 43.9607 33.5874 43.2205 33.8753Z" fill="#126CAB"/>
<path fill-rule="evenodd" clip-rule="evenodd" d="M48.2669 34.204C47.7984 33.7673 47.0337 33.299 45.9492 32.8077L46.2306 32.1684C47.3409 32.6713 48.1844 33.1763 48.7339 33.6883C49.2612 34.1798 49.5724 34.7332 49.4902 35.3302C49.8719 37.7094 49.452 39.5849 48.156 40.8997L47.668 40.4046C48.7635 39.2932 49.1755 37.6594 48.8002 35.3886L48.7901 35.3273L48.8014 35.2662C48.8521 34.9919 48.7385 34.6434 48.2669 34.204Z" fill="#126CAB"/>
<path fill-rule="evenodd" clip-rule="evenodd" d="M39.6154 37.8358L39.7237 37.9051C40.1193 38.1583 40.7388 38.3677 41.6123 38.5114C42.4802 38.6542 43.5725 38.728 44.8934 38.728H45.0971L45.1971 38.908C45.5446 39.5334 45.9327 39.9323 46.3482 40.146C46.7576 40.3567 47.2279 40.4053 47.7805 40.2667L47.9478 40.9537C47.2591 41.1264 46.6136 41.076 46.0328 40.7772C45.5079 40.5071 45.0649 40.0492 44.6936 39.435C43.4378 39.4279 42.3722 39.3532 41.5007 39.2099C40.6542 39.0706 39.9675 38.863 39.4646 38.5723C36.783 38.9606 34.8676 39.2927 33.6993 39.5546L33.5488 38.8637C34.7618 38.5917 36.7391 38.2506 39.4886 37.854L39.6154 37.8358Z" fill="#126CAB"/>
<path fill-rule="evenodd" clip-rule="evenodd" d="M33.5084 42.3799C33.142 39.7365 33.3449 37.1049 34.0918 34.4654L34.7712 34.6575C33.994 37.4043 33.8285 40.1319 34.2993 42.8725L34.4076 43.503L33.8163 43.2583C32.0464 42.5257 30.4684 42.2464 29.0596 42.3939L29.0378 42.3962L29.0159 42.3958C27.5794 42.3676 26.4387 42.3783 25.5957 42.427C25.174 42.4513 24.8322 42.4849 24.5679 42.5265C24.296 42.5693 24.133 42.6169 24.0511 42.6567L23.7422 42.022C23.9216 41.9348 24.1698 41.8747 24.458 41.8293C24.7537 41.7827 25.1206 41.7474 25.555 41.7224C26.4199 41.6725 27.5738 41.6619 29.0081 41.6897C30.3948 41.5486 31.8936 41.7848 33.5084 42.3799Z" fill="#126CAB"/>
<path fill-rule="evenodd" clip-rule="evenodd" d="M29.6945 41.9711C29.8694 42.6644 29.9773 43.5826 30.0234 44.7035L29.2621 44.7283C29.2168 43.626 29.1114 42.7547 28.9512 42.1195L29.6945 41.9711Z" fill="#126CAB"/>
<path fill-rule="evenodd" clip-rule="evenodd" d="M31.7333 42.607C31.6609 42.5206 31.6124 42.5142 31.5684 42.5185L31.5 41.8228C31.8139 41.7922 32.0776 41.9273 32.2718 42.159C32.4535 42.3756 32.5805 42.6806 32.6736 43.0367C32.8599 43.7494 32.9436 44.8028 32.9376 46.175C33.1532 47.8211 33.2572 49.0382 33.2409 49.8128C33.233 50.189 33.1969 50.5144 33.0983 50.7336C33.0483 50.8448 32.9543 50.9912 32.7782 51.0567C32.7231 51.0772 32.6693 51.0864 32.618 51.0875C31.5346 52.3482 30.4428 53.1872 29.3388 53.555C28.182 53.9404 27.0453 53.797 25.9569 53.1437C25.0939 52.8647 24.1248 52.2473 23.0553 51.3283C21.9695 50.3953 20.7591 49.1331 19.4266 47.5488C17.4384 45.8745 15.769 44.6818 14.4014 43.9461L14.7348 43.331C16.1685 44.1023 17.8876 45.3358 19.9028 47.0345L19.9258 47.0539L19.9452 47.077C21.2712 48.6553 22.4611 49.8947 23.5136 50.799C24.5704 51.7071 25.4678 52.259 26.2082 52.4899L26.2497 52.5028L26.2869 52.5255C27.222 53.0974 28.1566 53.2119 29.1162 52.8921C30.0941 52.5664 31.1309 51.7782 32.2187 50.475L32.4126 50.2427L32.4991 50.2954C32.5187 50.1855 32.5347 50.0239 32.5394 49.7982C32.5546 49.0771 32.4562 47.8975 32.2388 46.2422L32.2358 46.2188L32.2359 46.1951C32.2429 44.8248 32.1581 43.8382 31.9946 43.2129C31.9123 42.898 31.8183 42.7084 31.7333 42.607ZM32.4513 50.4607C32.4513 50.4607 32.4518 50.4597 32.453 50.4579C32.452 50.4599 32.4514 50.4608 32.4513 50.4607Z" fill="#126CAB"/>
<path fill-rule="evenodd" clip-rule="evenodd" d="M28.6447 48.8838C28.2168 49.7805 27.4917 50.4977 26.5184 51.0762L26.4911 51.0924L26.4614 51.1033C25.6969 51.3825 25.0694 51.5739 24.5828 51.6785C24.3396 51.7308 24.1244 51.7631 23.9406 51.7722C23.763 51.7811 23.5864 51.7701 23.4365 51.7136L23.6718 51.0286C23.6956 51.0375 23.7657 51.0521 23.9076 51.045C24.0435 51.0382 24.2208 51.0131 24.4431 50.9653C24.8815 50.8711 25.4667 50.6946 26.2027 50.4267C27.0767 49.902 27.6766 49.2847 28.0233 48.5582L28.6447 48.8838Z" fill="#126CAB"/>
<path fill-rule="evenodd" clip-rule="evenodd" d="M21.0306 35.2587C22.8451 35.0852 25.4833 34.9738 28.9398 34.9251L28.9496 35.6204C25.4986 35.669 22.883 35.7802 21.0973 35.9509C20.2027 36.0364 19.5283 36.1358 19.0652 36.2465C18.8327 36.302 18.6668 36.3573 18.5573 36.4086C18.5256 36.4235 18.5023 36.4363 18.4855 36.4466C18.3786 38.4157 18.3246 40.0249 18.2974 41.2743L18.2923 41.5061L18.0756 41.5905C16.5803 42.1731 15.5123 42.9191 14.8233 43.8389L14.755 43.9302L14.6457 43.9634C13.612 44.2782 12.47 44.4766 11.2366 44.5755L11.1807 43.8824C12.3319 43.7901 13.3867 43.6093 14.335 43.3304C15.0872 42.3686 16.1826 41.6135 17.6051 41.0295C17.6346 39.7802 17.6903 38.198 17.7956 36.2829L17.7996 36.2109L17.8319 36.1464C17.9234 35.9641 18.104 35.8526 18.2604 35.7793C18.431 35.6994 18.6484 35.631 18.9025 35.5703C19.4128 35.4484 20.125 35.3453 21.0306 35.2587Z" fill="#126CAB"/>
<path fill-rule="evenodd" clip-rule="evenodd" d="M13.2014 48.5131C12.4693 47.5728 11.9594 46.132 11.6426 44.2383L12.3127 44.1167C12.6216 45.9634 13.1048 47.2643 13.7297 48.0668C14.3371 48.847 15.0842 49.1668 16.0053 49.0539L16.0848 49.7575C14.9246 49.8997 13.9508 49.4756 13.2014 48.5131Z" fill="#126CAB"/>
<path fill-rule="evenodd" clip-rule="evenodd" d="M2.02646 40.8696C3.30557 40.3269 5.09168 40.1758 7.34793 40.3616L7.39521 40.3655L7.43974 40.382C8.8126 40.8912 9.85769 41.4522 10.541 42.0818C11.2334 42.7197 11.579 43.4551 11.4682 44.2761L10.7757 44.18C10.8465 43.6552 10.647 43.1367 10.0708 42.6059C9.49199 42.0726 8.55957 41.5555 7.244 41.0638C5.05168 40.8874 3.41492 41.0489 2.29772 41.5224C1.4072 41.9096 0.915136 42.4975 0.756516 43.2891C0.592734 44.1065 0.772885 45.1971 1.37099 46.5933C2.56013 48.7755 3.7257 50.0431 4.85678 50.5325L4.87784 50.5417L4.89754 50.5535C5.53349 50.9349 6.15316 51.0982 6.74758 51.0608C7.34152 51.0235 7.93909 50.7841 8.52864 50.3113L8.96233 50.8669C8.27979 51.4142 7.54937 51.7202 6.79084 51.7678C6.03955 51.8151 5.28903 51.6071 4.56116 51.1748C3.21448 50.5827 1.95721 49.1382 0.751015 46.9208L0.743166 46.9064L0.736673 46.8913C0.109795 45.4329 -0.134523 44.1766 0.0715481 43.1482C0.28329 42.0914 0.958052 41.3336 2.02374 40.8708L2.02645 40.8696L2.02646 40.8696Z" fill="#126CAB"/>
<path fill-rule="evenodd" clip-rule="evenodd" d="M11.7618 48.097C11.6487 46.3809 11.5783 45.115 11.5502 44.2686L10.8407 44.2916C10.8692 45.1518 10.9406 46.4308 11.0542 48.1539L11.0549 48.1654L11.0564 48.1767C11.2795 49.8544 11.8263 51.2107 12.7079 52.2174C12.6068 52.5189 12.3487 52.9365 11.8786 53.4791C11.3446 54.0955 10.573 54.8335 9.55545 55.6927C8.70429 55.8742 7.98912 55.8619 7.39788 55.6811C6.79598 55.497 6.29711 55.1307 5.89939 54.5646C5.04667 53.1783 4.60334 51.8505 4.5361 50.5639L3.82715 50.5999C3.90175 52.0274 4.39377 53.4695 5.29811 54.9369L5.30337 54.9455L5.30912 54.9537C5.79074 55.6433 6.41874 56.1147 7.18763 56.3498C7.95065 56.5832 8.82641 56.5762 9.79806 56.3567L9.88286 56.3376L9.94907 56.2819C11.0139 55.3867 11.8387 54.603 12.4183 53.934C12.987 53.2775 13.3594 52.6873 13.4477 52.1818L13.4775 52.0113L13.3583 51.8844C12.5291 51.0016 11.9833 49.75 11.7618 48.097Z" fill="#126CAB"/>
<path fill-rule="evenodd" clip-rule="evenodd" d="M7.26839 43.7184C6.38978 42.264 5.04798 41.4572 3.21191 41.2859L3.27776 40.5938C5.31019 40.7833 6.85732 41.695 7.86058 43.3445C8.81001 44.5802 9.3617 46.0446 9.49232 47.7404L8.79228 47.7932C8.6707 46.2148 8.15936 44.8758 7.29079 43.7511L7.27865 43.7353L7.26839 43.7184Z" fill="#126CAB"/>
<path fill-rule="evenodd" clip-rule="evenodd" d="M18.9408 52.1732C17.5745 52.1593 15.6143 52.2289 13.071 52.3973L13.0244 51.6961C15.5754 51.5272 17.5557 51.4563 18.9477 51.4705M20.805 53.3236C20.2047 52.6302 19.5156 52.1787 18.941 52.1732L18.9408 52.1732M20.805 53.3236C21.3969 54.0074 21.8103 54.8214 21.889 55.3842L20.805 53.3236ZM22.5816 55.2575C22.4685 54.5181 21.9718 53.597 21.3373 52.864C20.7027 52.1309 19.8369 51.4791 18.9479 51.4705M22.5816 55.2575C22.748 55.8038 22.6871 56.331 22.3853 56.8076C22.2787 56.9761 22.1443 57.1346 21.9845 57.2838C22.7254 57.9253 24.0553 58.4225 26.0418 58.7334C27.1053 58.5956 27.956 58.4619 28.5946 58.3344C29.2578 58.2019 29.653 58.0831 29.8267 57.9909L29.9142 57.9445L30.0131 57.9505C31.661 58.0502 32.9669 58.3436 33.8969 58.8582C34.8435 59.3819 35.4068 60.1407 35.5203 61.1284L35.5216 61.1403L35.5214 61.1403C35.5872 61.9576 35.4993 62.6483 35.1969 63.1559C34.882 63.6845 34.367 63.9618 33.7148 64.006C31.2765 64.3449 27.6499 64.6118 22.8419 64.7944L22.8142 64.7954L22.7867 64.7921C20.7476 64.5483 19.3682 63.7981 18.9213 62.4077C18.5323 61.3628 18.4524 60.3995 18.7309 59.5373C19.0108 58.6709 19.6365 57.9571 20.5601 57.3843L20.5752 57.3749L20.5911 57.3671C21.2091 57.0653 21.5914 56.7467 21.7906 56.4321C21.9797 56.1334 22.0205 55.8133 21.9022 55.4421L21.8932 55.4137L21.889 55.3842M21.4137 57.7155C21.2601 57.8116 21.0942 57.9031 20.9167 57.9904C20.104 58.4978 19.6154 59.088 19.4006 59.7531C19.1837 60.4243 19.2293 61.2221 19.5836 62.17L19.5897 62.1863L19.5893 62.1865C19.9038 63.1753 20.9074 63.8544 22.8431 64.0911C27.6387 63.9085 31.2322 63.6424 33.6303 63.3082L33.6436 63.3063L33.657 63.3055C34.124 63.2763 34.4132 63.0971 34.5922 62.7966C34.7853 62.4723 34.8804 61.9562 34.8205 61.2027C34.7355 60.4783 34.3348 59.9038 33.556 59.4729C32.7738 59.0402 31.6186 58.7598 30.0619 58.6577C29.7744 58.7866 29.3193 58.9063 28.7326 59.0235C28.0618 59.1575 27.1769 59.2957 26.0823 59.4368L26.0328 59.4431L25.9836 59.4355C23.874 59.1104 22.3103 58.5605 21.4137 57.7155Z" fill="#126CAB"/>
<path fill-rule="evenodd" clip-rule="evenodd" d="M32.3128 55.8649C32.0138 57.0967 31.3029 58.0369 30.1982 58.6682L29.8711 58.0495C30.8172 57.5089 31.4033 56.7265 31.6544 55.6922C31.909 54.643 31.825 53.3068 31.3656 51.666L32.0176 51.4687C32.4952 53.1743 32.6082 54.6479 32.3128 55.8649Z" fill="#126CAB"/>
<path fill-rule="evenodd" clip-rule="evenodd" d="M22.2119 55.0244C24.2997 54.8685 26.0949 55.2787 27.5732 56.2645L27.1729 56.8304C25.8508 55.9488 24.2233 55.5627 22.2662 55.7089L22.2119 55.0244Z" fill="#126CAB"/>
<path fill-rule="evenodd" clip-rule="evenodd" d="M11.2394 29.9241C11.3002 28.9676 11.0404 28.3486 10.5456 27.9785L10.966 27.4195C11.8449 28.0769 12.0921 29.1767 11.8725 30.5491L11.8095 30.9427L11.4265 30.8289C10.9875 30.6985 10.6239 30.3626 10.3184 29.9027C10.0113 29.4405 9.74027 28.8197 9.49707 28.0564L10.1648 27.8448C10.3981 28.5768 10.6455 29.1299 10.9025 29.5168C11.0177 29.6901 11.1304 29.8236 11.2394 29.9241Z" fill="#126CAB"/>
<path fill-rule="evenodd" clip-rule="evenodd" d="M13.7017 34.731C12.5306 33.7067 11.6942 32.298 11.1807 30.5244L11.8658 30.3296C12.35 32.0021 13.1244 33.284 14.1734 34.2016C15.2217 35.1186 16.5669 35.6916 18.227 35.91L18.1332 36.61C16.3579 36.3765 14.8736 35.7561 13.7017 34.731Z" fill="#126CAB"/>
<path fill-rule="evenodd" clip-rule="evenodd" d="M23.7596 31.9932C25.313 30.9615 26.3862 29.9872 26.9511 29.0702C27.5583 28.9126 28.1797 28.8266 28.801 28.798C28.9846 29.3425 28.9987 29.715 28.8434 29.9442C28.3209 31.7352 26.9652 32.7669 24.7622 33.0391C23.6748 33.2254 23.35 32.8672 23.7596 31.9932Z" fill="#126CAB"/>
<path fill-rule="evenodd" clip-rule="evenodd" d="M12.9488 23.7485C12.9206 23.8205 12.9061 23.9364 12.9342 24.0738C12.9622 24.2113 13.0211 24.3122 13.0752 24.3674C13.0926 24.3852 13.1062 24.3955 13.1157 24.4013C13.1222 24.3922 13.1307 24.3775 13.1398 24.3542C13.1679 24.2823 13.1825 24.1663 13.1544 24.0289C13.1264 23.8914 13.0675 23.7905 13.0134 23.7353C12.9959 23.7175 12.9824 23.7073 12.9728 23.7014C12.9663 23.7105 12.9579 23.7253 12.9488 23.7485ZM12.9855 23.6881C12.9855 23.6882 12.9848 23.6888 12.9832 23.6896C12.9846 23.6884 12.9854 23.688 12.9855 23.6881ZM12.9587 23.6946C12.9569 23.6945 12.956 23.6942 12.956 23.6941C12.956 23.694 12.9569 23.6941 12.9587 23.6946ZM13.1031 24.4146C13.1031 24.4145 13.1038 24.4139 13.1054 24.4131C13.104 24.4143 13.1032 24.4147 13.1031 24.4146ZM13.1299 24.4081C13.1317 24.4082 13.1326 24.4085 13.1326 24.4086C13.1326 24.4087 13.1317 24.4087 13.1299 24.4081ZM12.2946 23.4925C12.3774 23.2807 12.5495 23.0625 12.8307 23.0051C13.1118 22.9477 13.3557 23.081 13.5149 23.2434C13.6771 23.4087 13.7916 23.638 13.8427 23.8883C13.8938 24.1386 13.8784 24.3945 13.794 24.6102C13.7111 24.822 13.5391 25.0402 13.2579 25.0976C12.9767 25.155 12.7329 25.0217 12.5737 24.8594C12.4115 24.694 12.297 24.4647 12.2458 24.2144C12.1947 23.9641 12.2102 23.7082 12.2946 23.4925Z" fill="#126CAB"/>
<path fill-rule="evenodd" clip-rule="evenodd" d="M73.1377 39.7949V13.9795H80.7602C82.9846 13.9795 84.8281 14.5248 86.2186 15.6856C87.6128 16.8496 88.3142 18.3841 88.3142 20.2336C88.3142 21.7483 87.9019 23.0935 87.0607 24.2406C86.5753 24.9025 85.9846 25.4507 85.2948 25.8864C86.2913 26.2412 87.1527 26.796 87.8658 27.558C88.9889 28.7464 89.5287 30.2823 89.5287 32.104C89.5287 34.3776 88.7033 36.2588 87.0478 37.6885C85.4081 39.1046 83.3528 39.7949 80.9312 39.7949H73.1377ZM87.3967 27.999C86.63 27.1795 85.6658 26.6187 84.5042 26.3168C84.1697 26.2298 83.8189 26.1643 83.4518 26.1203C83.444 26.1194 83.4362 26.1184 83.4285 26.1175V26.0491C83.4312 26.0482 83.434 26.0473 83.4368 26.0464C83.7885 25.9307 84.1201 25.794 84.4314 25.6364C85.2874 25.2029 85.9907 24.6107 86.5414 23.8598C87.294 22.8335 87.6703 21.6248 87.6703 20.2336C87.6703 18.5688 87.0489 17.2176 85.806 16.1799C84.563 15.1423 82.8811 14.6234 80.7602 14.6234H73.7816V39.151H80.9312C83.2232 39.151 85.1218 38.501 86.627 37.2011C88.1321 35.9012 88.8847 34.2022 88.8847 32.104C88.8847 30.4164 88.3887 29.0481 87.3967 27.999ZM84.0508 34.8667L84.0537 34.8641C84.8256 34.2052 85.2304 33.3003 85.2304 32.0698C85.2304 30.784 84.8033 29.9101 84.0138 29.3305C83.1872 28.7237 81.8692 28.3693 79.9563 28.3693H77.2991V35.9072H80.5549C82.147 35.9072 83.2822 35.5309 84.0508 34.8667ZM76.6551 36.5512V27.7253H79.9563C83.9017 27.7253 85.8744 29.1735 85.8744 32.0698C85.8744 33.461 85.4068 34.5557 84.4718 35.3539C83.5482 36.1521 82.2426 36.5512 80.5549 36.5512H76.6551ZM79.5971 25.1426C81.1707 25.1426 82.4079 24.7663 83.3087 24.0137C84.2095 23.2497 84.66 22.1778 84.66 20.7981C84.66 18.4149 83.0921 17.2233 79.9563 17.2233H76.6551V25.1426H79.5971ZM77.2991 24.4987H79.5971C81.0703 24.4987 82.1435 24.1473 82.8942 23.521C83.6246 22.9005 84.016 22.0229 84.016 20.7981C84.016 19.7604 83.6839 19.0777 83.0944 18.6297C82.4715 18.1563 81.4609 17.8672 79.9563 17.8672H77.2991V24.4987Z" fill="#126CAB"/>
<path fill-rule="evenodd" clip-rule="evenodd" d="M53.0566 39.7949V13.9795H60.6791C62.9035 13.9795 64.7471 14.5248 66.1376 15.6856C67.5317 16.8496 68.2332 18.3841 68.2332 20.2336C68.2332 21.7483 67.8208 23.0935 66.9796 24.2406C66.4942 24.9025 65.9036 25.4507 65.2138 25.8864C66.2101 26.2412 67.0715 26.7959 67.7846 27.5577C68.9078 28.7462 69.4476 30.2822 69.4476 32.104C69.4476 34.3776 68.6222 36.2588 66.9668 37.6885C65.327 39.1046 63.2717 39.7949 60.8502 39.7949H53.0566ZM64.4231 26.3168C64.0887 26.2298 63.7379 26.1643 63.3707 26.1203C63.3629 26.1194 63.3552 26.1184 63.3474 26.1175V26.0491C63.3502 26.0482 63.353 26.0473 63.3557 26.0464C63.7075 25.9307 64.039 25.794 64.3504 25.6364C65.2064 25.2029 65.9097 24.6107 66.4604 23.8598C67.213 22.8335 67.5893 21.6248 67.5893 20.2336C67.5893 18.5688 66.9678 17.2176 65.7249 16.1799C64.482 15.1423 62.8001 14.6234 60.6791 14.6234H53.7006V39.151H60.8502C63.1421 39.151 65.0407 38.501 66.5459 37.2011C68.0511 35.9012 68.8037 34.2022 68.8037 32.104C68.8037 30.4164 68.3076 29.0481 67.3156 27.999C66.5489 27.1795 65.5848 26.6187 64.4231 26.3168ZM63.9697 34.8667L63.9727 34.8641C64.7446 34.2052 65.1494 33.3003 65.1494 32.0698C65.1494 30.784 64.7222 29.9101 63.9327 29.3305C63.1061 28.7237 61.7881 28.3693 59.8752 28.3693H57.218V35.9072H60.4739C62.0659 35.9072 63.2011 35.5309 63.9697 34.8667ZM56.5741 36.5512V27.7253H59.8752C63.8206 27.7253 65.7933 29.1735 65.7933 32.0698C65.7933 33.461 65.3258 34.5557 64.3908 35.3539C63.4671 36.1521 62.1615 36.5512 60.4739 36.5512H56.5741ZM56.5741 25.1426V17.2233H59.8752C63.011 17.2233 64.5789 18.4149 64.5789 20.7981C64.5789 22.1778 64.1285 23.2497 63.2277 24.0137C62.3268 24.7663 61.0896 25.1426 59.516 25.1426H56.5741ZM62.813 23.521C63.5435 22.9006 63.935 22.0229 63.935 20.7981C63.935 19.7604 63.6028 19.0777 63.0134 18.6297C62.3905 18.1563 61.3798 17.8672 59.8752 17.8672H57.218V24.4987H59.516C60.9892 24.4987 62.0624 24.1473 62.813 23.521Z" fill="#126CAB"/>
<path d="M152.532 39.1503V14.6227H163.992V16.1792H154.226V26.0142H163.291V27.5536H154.226V37.6109H164.557V39.1503H152.532Z" fill="#126CAB"/>
<path d="M144.61 39.1503V21.7381C144.61 21.3162 144.673 20.1132 144.798 18.1291H144.73C144.377 19.0527 144.08 19.7654 143.841 20.2671L135.117 39.1503H134.57L125.813 20.3698C125.528 19.7654 125.26 18.9957 125.009 18.0607H124.923C125.003 19.1554 125.043 20.2443 125.043 21.3276V39.1503H123.35V14.6227H124.923L134.074 34.3782C134.131 34.4922 134.194 34.6462 134.262 34.84C134.331 35.0339 134.405 35.2277 134.485 35.4216C134.599 35.718 134.718 36.0487 134.844 36.4136H134.946L135.134 35.8663C135.146 35.8207 135.34 35.279 135.716 34.2414L144.73 14.6227H146.235V39.1503H144.61Z" fill="#126CAB"/>
<path d="M115.346 39.1503V14.6227H117.039V39.1503H115.346Z" fill="#126CAB"/>
<path d="M104.076 16.1792V39.1503H102.4V16.1792H95.3184V14.6227H111.157V16.1792H104.076Z" fill="#126CAB"/>
<path d="M55.4941 76.4141C54.4395 76.9609 53.1276 77.2344 51.5586 77.2344C49.5273 77.2344 47.8997 76.5931 46.6758 75.3105C45.4518 74.028 44.8398 72.3451 44.8398 70.2617C44.8398 68.0221 45.5267 66.2122 46.9004 64.832C48.2806 63.4518 50.0221 62.7617 52.125 62.7617C53.4792 62.7617 54.6022 62.9538 55.4941 63.3379V65.6426C54.5501 65.0827 53.5085 64.8027 52.3691 64.8027C50.8522 64.8027 49.6217 65.2878 48.6777 66.2578C47.7402 67.2279 47.2715 68.5234 47.2715 70.1445C47.2715 71.6875 47.7109 72.918 48.5898 73.8359C49.4688 74.7474 50.6243 75.2031 52.0566 75.2031C53.3783 75.2031 54.5241 74.8906 55.4941 74.2656V76.4141ZM63.4141 77.2344C61.3958 77.2344 59.778 76.5801 58.5605 75.2715C57.3496 73.9629 56.7441 72.2604 56.7441 70.1641C56.7441 67.9115 57.3626 66.1146 58.5996 64.7734C59.8366 63.4323 61.5163 62.7617 63.6387 62.7617C65.6048 62.7617 67.1868 63.4128 68.3848 64.7148C69.5892 66.0169 70.1914 67.7194 70.1914 69.8223C70.1914 72.1074 69.5762 73.9141 68.3457 75.2422C67.1152 76.5703 65.4714 77.2344 63.4141 77.2344ZM63.5215 64.8027C62.2389 64.8027 61.194 65.2812 60.3867 66.2383C59.5859 67.1953 59.1855 68.4551 59.1855 70.0176C59.1855 71.5736 59.5762 72.8268 60.3574 73.7773C61.1387 74.7279 62.1608 75.2031 63.4238 75.2031C64.765 75.2031 65.8229 74.7507 66.5977 73.8457C67.3724 72.9408 67.7598 71.6745 67.7598 70.0469C67.7598 68.3737 67.3822 67.0814 66.627 66.1699C65.8783 65.2585 64.8431 64.8027 63.5215 64.8027ZM66.666 61.707H65.1035L63.5312 59.6465L61.998 61.707H60.4844L62.6719 58.5039H64.4688L66.666 61.707ZM84.6348 77H82.0957L75.4062 66.707C75.237 66.4466 75.097 66.1764 74.9863 65.8965H74.9277C74.9798 66.196 75.0059 66.8372 75.0059 67.8203V77H72.7598V62.9961H75.4648L81.9297 73.0449C82.2031 73.4616 82.3789 73.748 82.457 73.9043H82.4961C82.431 73.5332 82.3984 72.9049 82.3984 72.0195V62.9961H84.6348V77ZM99.0391 76.043C97.5807 76.8372 95.9564 77.2344 94.166 77.2344C92.0957 77.2344 90.4193 76.5898 89.1367 75.3008C87.8542 74.0117 87.2129 72.306 87.2129 70.1836C87.2129 68.0156 87.9128 66.2383 89.3125 64.8516C90.7188 63.4583 92.5026 62.7617 94.6641 62.7617C96.2201 62.7617 97.5286 62.9896 98.5898 63.4453V65.8379C97.5156 65.1217 96.2363 64.7637 94.752 64.7637C93.2611 64.7637 92.0371 65.2552 91.0801 66.2383C90.1296 67.2214 89.6543 68.4941 89.6543 70.0566C89.6543 71.6647 90.0645 72.931 90.8848 73.8555C91.7051 74.7734 92.8184 75.2324 94.2246 75.2324C95.1882 75.2324 96.0215 75.0469 96.7246 74.6758V71.3457H93.7754V69.3926H99.0391V76.043ZM116.549 64.9688H112.525V77H110.201V64.9688H106.188V62.9961H116.549V64.9688ZM128.688 62.9961L124.098 71.9121V77H121.773V71.9609L117.301 62.9961H119.947L122.701 69.002C122.734 69.0736 122.831 69.3438 122.994 69.8125H123.023C123.082 69.6042 123.189 69.334 123.346 69.002L126.227 62.9961H128.688ZM144.967 64.9688H140.943V77H138.619V64.9688H134.605V62.9961H144.967V64.9688ZM158.893 77H156.354L149.664 66.707C149.495 66.4466 149.355 66.1764 149.244 65.8965H149.186C149.238 66.196 149.264 66.8372 149.264 67.8203V77H147.018V62.9961H149.723L156.188 73.0449C156.461 73.4616 156.637 73.748 156.715 73.9043H156.754C156.689 73.5332 156.656 72.9049 156.656 72.0195V62.9961H158.893V77ZM173.619 77H171.285V70.9258H164.693V77H162.369V62.9961H164.693V68.8848H171.285V62.9961H173.619V77ZM188.326 77H185.992V70.9258H179.4V77H177.076V62.9961H179.4V68.8848H185.992V62.9961H188.326V77ZM208.268 62.9961L203.238 77H200.641L195.699 62.9961H198.238L201.695 73.6211C201.806 73.9596 201.891 74.3535 201.949 74.8027H201.988C202.034 74.4316 202.128 74.0312 202.271 73.6016L205.807 62.9961H208.268ZM212.506 77H210.113V62.9961H212.506V77ZM214.596 59.1484C214.596 59.9036 214.426 60.5221 214.088 61.0039C213.756 61.4792 213.303 61.7168 212.73 61.7168C212.262 61.7168 211.725 61.5605 211.119 61.248C210.611 60.9551 210.217 60.8086 209.938 60.8086C209.391 60.8086 209.117 61.1699 209.117 61.8926H207.994C207.994 61.1178 208.16 60.4993 208.492 60.0371C208.824 59.5684 209.29 59.334 209.889 59.334C210.331 59.334 210.842 59.5 211.422 59.832C211.891 60.1185 212.298 60.2617 212.643 60.2617C213.17 60.2617 213.434 59.8906 213.434 59.1484H214.596ZM227.838 77H225.299L218.609 66.707C218.44 66.4466 218.3 66.1764 218.189 65.8965H218.131C218.183 66.196 218.209 66.8372 218.209 67.8203V77H215.963V62.9961H218.668L225.133 73.0449C225.406 73.4616 225.582 73.748 225.66 73.9043H225.699C225.634 73.5332 225.602 72.9049 225.602 72.0195V62.9961H227.838V77ZM242.564 77H240.23V70.9258H233.639V77H231.314V62.9961H233.639V68.8848H240.23V62.9961H242.564V77ZM251.529 77V70.9844H249.947V68.9824H251.529V62.9961H255.572C260.735 62.9961 263.316 65.2715 263.316 69.8223C263.316 71.9967 262.6 73.7383 261.168 75.0469C259.736 76.349 257.815 77 255.406 77H251.529ZM253.844 64.9688V68.9824H256.842V70.9844H253.844V75.0371H255.699C257.333 75.0371 258.603 74.5879 259.508 73.6895C260.419 72.791 260.875 71.515 260.875 69.8613C260.875 66.5996 259.179 64.9688 255.787 64.9688H253.844ZM277.389 77H274.84L273.58 73.4355H268.072L266.861 77H264.322L269.566 62.9961H272.184L277.389 77ZM272.965 71.541L271.021 65.9551C270.963 65.7728 270.901 65.4798 270.836 65.0762H270.797C270.738 65.4473 270.673 65.7402 270.602 65.9551L268.678 71.541H272.965ZM271.002 80.3984C270.67 80.3984 270.383 80.2878 270.143 80.0664C269.908 79.8451 269.791 79.5781 269.791 79.2656C269.791 78.9531 269.911 78.6895 270.152 78.4746C270.4 78.2663 270.683 78.1621 271.002 78.1621C271.334 78.1621 271.617 78.2663 271.852 78.4746C272.086 78.6895 272.203 78.9531 272.203 79.2656C272.203 79.5781 272.086 79.8451 271.852 80.0664C271.617 80.2878 271.334 80.3984 271.002 80.3984ZM288.307 64.9688H284.283V77H281.959V64.9688H277.945V62.9961H288.307V64.9688Z" fill="#126CAB"/>
</svg>
