<svg width="18" height="14" viewBox="0 0 18 14" fill="none" xmlns="http://www.w3.org/2000/svg">
<g id="Twitter logo" clip-path="url(#clip0_694_362)">
<path id="Vector" d="M18 1.70478C17.326 1.98925 16.611 2.17598 15.879 2.25875C16.6415 1.82335 17.227 1.13386 17.5027 0.312353C16.7778 0.722161 15.9847 1.0109 15.1577 1.16608C14.484 0.482363 13.5243 0.0550613 12.4621 0.0550613C10.4226 0.0550613 8.76909 1.6303 8.76909 3.57315C8.76909 3.84893 8.80179 4.1174 8.86472 4.37496C5.79558 4.2282 3.07448 2.8276 1.25304 0.699061C0.935227 1.21867 0.753117 1.82308 0.753117 2.46775C0.753117 3.68836 1.40513 4.76515 2.39597 5.39609C1.80953 5.37859 1.23599 5.2277 0.723234 4.956C0.723023 4.97073 0.723023 4.98547 0.723023 5.00027C0.723023 6.70486 1.99596 8.12683 3.68529 8.45003C3.14148 8.59093 2.57107 8.61155 2.01762 8.51032C2.48752 9.90804 3.85137 10.9252 5.46729 10.9536C4.20342 11.8972 2.61105 12.4597 0.880945 12.4597C0.58282 12.4597 0.288914 12.443 0 12.4105C1.63427 13.4087 3.57539 13.9911 5.66086 13.9911C12.4535 13.9911 16.1679 8.63023 16.1679 3.98116C16.1679 3.82856 16.1644 3.67684 16.1573 3.52599C16.8802 3.02807 17.5042 2.41136 18 1.70478Z" fill="#0E0F1D"/>
</g>
<defs>
<clipPath id="clip0_694_362">
<rect width="18" height="14" fill="white"/>
</clipPath>
</defs>
</svg>
