<svg width="21" height="20" viewBox="0 0 21 20" fill="none" xmlns="http://www.w3.org/2000/svg">
    <circle cx="10.834" cy="10" r="10" fill="#00AAA1" />
    <path
        d="M17.1971 7.44042C16.7622 7.62294 16.2949 7.74629 15.8045 7.80179C16.3051 7.51776 16.6896 7.06799 16.8706 6.5321C16.3946 6.79943 15.8739 6.98778 15.3309 7.08901C14.8886 6.643 14.2585 6.36426 13.5611 6.36426C12.222 6.36426 11.1364 7.39183 11.1364 8.6592C11.1364 8.8391 11.1579 9.01424 11.1992 9.18225C9.18408 9.08651 7.39751 8.17286 6.20161 6.78436C5.99294 7.12331 5.87338 7.51759 5.87338 7.93812C5.87338 8.73436 6.30146 9.43679 6.95202 9.84837C6.56698 9.83695 6.19041 9.73852 5.85376 9.56128C5.85362 9.57089 5.85362 9.5805 5.85362 9.59016C5.85362 10.7021 6.68939 11.6297 7.79854 11.8405C7.4415 11.9324 7.06698 11.9459 6.7036 11.8799C7.01212 12.7916 7.90758 13.4551 8.96854 13.4737C8.13873 14.0892 7.09324 14.4561 5.9573 14.4561C5.76157 14.4561 5.5686 14.4453 5.37891 14.4241C6.45191 15.0752 7.72639 15.4552 9.09563 15.4552C13.5555 15.4552 15.9942 11.9581 15.9942 8.92536C15.9942 8.82582 15.9919 8.72685 15.9872 8.62844C16.4619 8.30364 16.8716 7.90134 17.1971 7.44042Z"
        fill="white" />
</svg>