<svg width="501" height="500" viewBox="0 0 501 500" fill="none" xmlns="http://www.w3.org/2000/svg">
    <g clip-path="url(#clip0_2055_1549)">
        <path d="M450.399 398.49H417.279V398.74H450.399V398.49Z" fill="#EBEBEB" />
        <path d="M331.719 401.21H323.029V401.46H331.719V401.21Z" fill="#EBEBEB" />
        <path d="M416.28 389.21H397.09V389.46H416.28V389.21Z" fill="#EBEBEB" />
        <path d="M96.1509 390.89H52.9609V391.14H96.1509V390.89Z" fill="#EBEBEB" />
        <path d="M111.391 390.89H105.061V391.14H111.391V390.89Z" fill="#EBEBEB" />
        <path d="M225.651 395.11H131.971V395.36H225.651V395.11Z" fill="#EBEBEB" />
        <path
            d="M238.9 337.8H45.7998C44.2855 337.8 42.8331 337.198 41.7623 336.128C40.6914 335.057 40.0898 333.604 40.0898 332.09V60.66C40.103 59.1543 40.7104 57.7147 41.7798 56.6547C42.8492 55.5947 44.2941 54.9999 45.7998 55H238.9C239.65 55 240.392 55.1477 241.085 55.4346C241.778 55.7216 242.407 56.1422 242.937 56.6724C243.468 57.2026 243.888 57.8321 244.175 58.5249C244.462 59.2176 244.61 59.9602 244.61 60.71V332.09C244.61 332.84 244.462 333.582 244.175 334.275C243.888 334.968 243.468 335.597 242.937 336.128C242.407 336.658 241.778 337.078 241.085 337.365C240.392 337.652 239.65 337.8 238.9 337.8ZM45.7998 55.2C44.3526 55.2026 42.9653 55.7787 41.942 56.8021C40.9186 57.8255 40.3425 59.2127 40.3398 60.66V332.09C40.3425 333.537 40.9186 334.924 41.942 335.948C42.9653 336.971 44.3526 337.547 45.7998 337.55H238.9C240.347 337.547 241.734 336.971 242.758 335.948C243.781 334.924 244.357 333.537 244.36 332.09V60.66C244.357 59.2127 243.781 57.8255 242.758 56.8021C241.734 55.7787 240.347 55.2026 238.9 55.2H45.7998Z"
            fill="#EBEBEB" />
        <path
            d="M455.201 337.8H262.101C260.586 337.8 259.134 337.198 258.063 336.128C256.992 335.057 256.391 333.604 256.391 332.09V60.66C256.404 59.1543 257.011 57.7147 258.081 56.6547C259.15 55.5947 260.595 54.9999 262.101 55H455.201C456.715 55 458.167 55.6016 459.238 56.6724C460.309 57.7433 460.911 59.1956 460.911 60.71V332.09C460.911 333.604 460.309 335.057 459.238 336.128C458.167 337.198 456.715 337.8 455.201 337.8ZM262.101 55.2C260.653 55.2026 259.266 55.7787 258.243 56.8021C257.219 57.8255 256.643 59.2127 256.641 60.66V332.09C256.643 333.537 257.219 334.924 258.243 335.948C259.266 336.971 260.653 337.547 262.101 337.55H455.201C456.648 337.547 458.035 336.971 459.059 335.948C460.082 334.924 460.658 333.537 460.661 332.09V60.66C460.658 59.2127 460.082 57.8255 459.059 56.8021C458.035 55.7787 456.648 55.2026 455.201 55.2H262.101Z"
            fill="#EBEBEB" />
        <path d="M500.5 382.4H0.5V382.65H500.5V382.4Z" fill="#EBEBEB" />
        <path
            d="M404.91 91.3301H378.02C369.493 91.3301 362.58 98.2428 362.58 106.77V133.66C362.58 142.187 369.493 149.1 378.02 149.1H404.91C413.437 149.1 420.35 142.187 420.35 133.66V106.77C420.35 98.2428 413.437 91.3301 404.91 91.3301Z"
            fill="#F0F0F0" />
        <path
            d="M398.651 112.05C398.651 116.97 396.151 120.95 391.231 120.95C386.311 120.95 383.811 116.95 383.811 112.05C383.811 107.15 386.311 103.14 391.231 103.14C396.151 103.14 398.651 107.13 398.651 112.05Z"
            fill="#FAFAFA" />
        <path
            d="M391.23 137.28H404.96V129.12C404.96 124.61 398.81 120.95 391.23 120.95C383.65 120.95 377.5 124.61 377.5 129.12V137.28H391.23Z"
            fill="#FAFAFA" />
        <path
            d="M151.99 110.7H133.21C127.256 110.7 122.43 115.526 122.43 121.48V140.26C122.43 146.214 127.256 151.04 133.21 151.04H151.99C157.943 151.04 162.77 146.214 162.77 140.26V121.48C162.77 115.526 157.943 110.7 151.99 110.7Z"
            fill="#E6E6E6" />
        <path
            d="M141.78 133.05C142.386 132.208 143.087 131.44 143.87 130.76C144.404 130.288 144.899 129.773 145.35 129.22C145.659 128.811 145.824 128.312 145.82 127.8C145.831 127.45 145.755 127.103 145.597 126.791C145.44 126.478 145.207 126.21 144.92 126.01C144.212 125.546 143.376 125.318 142.53 125.36C141.644 125.339 140.767 125.542 139.98 125.95C139.234 126.352 138.591 126.92 138.1 127.61L134.41 125.45C135.269 124.154 136.465 123.116 137.87 122.45C139.491 121.698 141.264 121.332 143.05 121.38C145.035 121.286 147.001 121.806 148.68 122.87C149.353 123.324 149.901 123.94 150.271 124.662C150.642 125.384 150.824 126.189 150.8 127C150.817 127.755 150.674 128.504 150.38 129.2C150.137 129.785 149.799 130.325 149.38 130.8C148.98 131.24 148.47 131.74 147.84 132.31C147.237 132.823 146.685 133.392 146.19 134.01C145.835 134.489 145.652 135.074 145.67 135.67H141.06C141.023 134.743 141.275 133.828 141.78 133.05ZM141.29 142.52C141.015 142.266 140.798 141.956 140.653 141.611C140.509 141.266 140.439 140.894 140.45 140.52C140.442 140.158 140.512 139.798 140.655 139.465C140.799 139.132 141.012 138.833 141.28 138.59C141.866 138.087 142.613 137.81 143.385 137.81C144.158 137.81 144.904 138.087 145.49 138.59C145.757 138.834 145.968 139.133 146.11 139.466C146.251 139.799 146.319 140.158 146.31 140.52C146.321 140.894 146.252 141.266 146.107 141.611C145.962 141.956 145.745 142.266 145.47 142.52C144.899 143.041 144.154 143.33 143.38 143.33C142.607 143.33 141.861 143.041 141.29 142.52Z"
            fill="#FAFAFA" />
        <path
            d="M402.141 248.79H416.671C418.885 248.79 421.009 249.67 422.575 251.236C424.141 252.802 425.021 254.926 425.021 257.14V271.67C425.021 273.882 424.142 276.003 422.578 277.567C421.014 279.131 418.893 280.01 416.681 280.01H402.141C399.929 280.01 397.808 279.131 396.244 277.567C394.679 276.003 393.801 273.882 393.801 271.67V257.14C393.801 254.928 394.679 252.807 396.244 251.243C397.808 249.679 399.929 248.8 402.141 248.8V248.79Z"
            fill="#EBEBEB" />
        <path
            d="M408.761 266.09C409.231 265.439 409.774 264.846 410.381 264.32C410.797 263.953 411.181 263.551 411.531 263.12C411.769 262.807 411.896 262.423 411.891 262.03C411.901 261.759 411.842 261.491 411.72 261.249C411.597 261.008 411.415 260.801 411.191 260.65C410.645 260.285 409.996 260.106 409.341 260.14C408.67 260.12 408.006 260.269 407.408 260.573C406.811 260.877 406.299 261.327 405.921 261.88L403.061 260.21C403.721 259.198 404.649 258.388 405.741 257.87C406.993 257.29 408.361 257.006 409.741 257.04C411.279 256.965 412.803 257.371 414.101 258.2C414.624 258.552 415.048 259.032 415.335 259.593C415.622 260.155 415.762 260.78 415.741 261.41C415.752 261.993 415.643 262.571 415.421 263.11C415.232 263.564 414.968 263.983 414.641 264.35C414.266 264.762 413.869 265.153 413.451 265.52C412.987 265.919 412.559 266.357 412.171 266.83C411.902 267.206 411.762 267.658 411.771 268.12H408.211C408.179 267.403 408.372 266.693 408.761 266.09ZM408.381 273.42C408.172 273.227 408.007 272.991 407.897 272.729C407.786 272.467 407.733 272.184 407.741 271.9C407.735 271.62 407.788 271.341 407.896 271.083C408.005 270.825 408.166 270.592 408.371 270.4C408.825 270.012 409.403 269.799 410.001 269.799C410.598 269.799 411.176 270.012 411.631 270.4C411.837 270.591 412 270.823 412.11 271.082C412.221 271.34 412.275 271.619 412.271 271.9C412.277 272.185 412.222 272.468 412.11 272.73C411.998 272.992 411.831 273.228 411.621 273.42C411.407 273.629 411.153 273.792 410.875 273.9C410.596 274.008 410.299 274.059 410.001 274.05C409.702 274.057 409.406 274.005 409.128 273.897C408.85 273.789 408.596 273.627 408.381 273.42Z"
            fill="#FAFAFA" />
        <path
            d="M117.611 171.2H98.8308C92.8772 171.2 88.0508 176.026 88.0508 181.98V200.76C88.0508 206.714 92.8772 211.54 98.8308 211.54H117.611C123.564 211.54 128.391 206.714 128.391 200.76V181.98C128.391 176.026 123.564 171.2 117.611 171.2Z"
            fill="#EBEBEB" />
        <path
            d="M108.22 180C107.021 180 105.834 180.236 104.727 180.695C103.62 181.154 102.614 181.827 101.767 182.675C100.92 183.523 100.249 184.529 99.791 185.637C99.3332 186.745 99.0983 187.932 99.0996 189.13C99.0996 194.13 103.18 206.25 108.22 206.25C113.26 206.25 117.34 194.16 117.34 189.13C117.341 187.932 117.106 186.745 116.648 185.637C116.191 184.529 115.519 183.523 114.672 182.675C113.825 181.827 112.819 181.154 111.712 180.695C110.605 180.236 109.418 180 108.22 180ZM108.22 191.88C107.676 191.88 107.144 191.719 106.692 191.417C106.24 191.114 105.887 190.685 105.679 190.182C105.471 189.68 105.416 189.127 105.522 188.594C105.629 188.06 105.89 187.57 106.275 187.185C106.66 186.801 107.15 186.539 107.683 186.433C108.217 186.327 108.769 186.381 109.272 186.589C109.774 186.797 110.204 187.15 110.506 187.602C110.808 188.054 110.97 188.586 110.97 189.13C110.959 189.852 110.665 190.542 110.15 191.049C109.636 191.556 108.942 191.84 108.22 191.84V191.88Z"
            fill="#FAFAFA" />
        <path
            d="M112.249 246.44C112.542 244.588 112.542 242.702 112.249 240.85L109.439 240.48C109.212 239.448 108.877 238.442 108.439 237.48L110.499 235.53C109.643 233.862 108.533 232.338 107.209 231.01L104.709 232.37C103.936 231.67 103.092 231.053 102.189 230.53L102.709 227.74C101.048 226.885 99.2629 226.298 97.419 226L96.209 228.55C95.699 228.5 95.209 228.47 94.649 228.47C94.089 228.47 93.589 228.47 93.079 228.55L91.869 226C90.0154 226.292 88.2198 226.876 86.549 227.73L87.069 230.52C86.1665 231.043 85.3219 231.66 84.549 232.36L82.049 231C80.7254 232.328 79.6155 233.852 78.759 235.52L80.819 237.47C80.3809 238.432 80.0457 239.438 79.819 240.47L77.019 240.84C76.7124 242.691 76.7124 244.579 77.019 246.43L79.819 246.8C80.0457 247.832 80.3809 248.838 80.819 249.8L78.759 251.75C79.6136 253.419 80.7237 254.944 82.049 256.27L84.549 254.91C85.3219 255.61 86.1665 256.227 87.069 256.75L86.549 259.54C88.2198 260.394 90.0154 260.978 91.869 261.27L93.079 258.72C93.589 258.77 94.079 258.8 94.649 258.8C95.219 258.8 95.649 258.8 96.209 258.72L97.419 261.27C99.2726 260.978 101.068 260.394 102.739 259.54L102.219 256.75C103.122 256.227 103.966 255.61 104.739 254.91L107.239 256.27C108.563 254.942 109.673 253.418 110.529 251.75L108.499 249.78C108.936 248.818 109.271 247.812 109.499 246.78L112.249 246.44ZM94.649 249.87C93.416 249.872 92.2101 249.508 91.1841 248.824C90.158 248.14 89.358 247.168 88.8852 246.029C88.4124 244.89 88.2882 243.636 88.5283 242.427C88.7683 241.218 89.3619 240.107 90.2338 239.235C91.1056 238.363 92.2167 237.769 93.4261 237.529C94.6355 237.289 95.889 237.413 97.0278 237.886C98.1666 238.359 99.1395 239.159 99.8233 240.185C100.507 241.211 100.871 242.417 100.869 243.65C100.866 245.299 100.21 246.879 99.0443 248.045C97.8784 249.211 96.2979 249.867 94.649 249.87Z"
            fill="#EBEBEB" />
        <path
            d="M121.27 266.56C121.342 266.097 121.379 265.629 121.38 265.16C121.38 264.691 121.343 264.223 121.27 263.76L119.86 263.58C119.753 263.068 119.593 262.568 119.38 262.09L120.38 261.09C119.952 260.252 119.396 259.486 118.73 258.82L117.48 259.5C117.092 259.152 116.67 258.844 116.22 258.58L116.48 257.19C115.646 256.761 114.748 256.467 113.82 256.32L113.22 257.6C112.96 257.6 112.7 257.6 112.44 257.6C112.18 257.6 111.91 257.6 111.65 257.6L111.05 256.32C110.123 256.467 109.225 256.761 108.39 257.19L108.65 258.58C108.201 258.844 107.779 259.152 107.39 259.5L106.14 258.82C105.475 259.486 104.918 260.252 104.49 261.09L105.49 262.09C105.278 262.568 105.117 263.068 105.01 263.58L103.61 263.76C103.533 264.223 103.496 264.691 103.5 265.16C103.497 265.629 103.534 266.097 103.61 266.56L105.01 266.74C105.117 267.249 105.278 267.745 105.49 268.22L104.49 269.22C104.919 270.055 105.476 270.817 106.14 271.48L107.39 270.8C107.774 271.154 108.196 271.463 108.65 271.72L108.39 273.11C109.225 273.539 110.123 273.833 111.05 273.98L111.65 272.7C112.172 272.753 112.698 272.753 113.22 272.7L113.82 273.98C114.748 273.833 115.646 273.539 116.48 273.11L116.22 271.72C116.674 271.463 117.097 271.154 117.48 270.8L118.73 271.48C119.395 270.817 119.952 270.055 120.38 269.22L119.38 268.22C119.592 267.745 119.753 267.249 119.86 266.74L121.27 266.56ZM112.47 268.27C111.855 268.27 111.254 268.088 110.743 267.746C110.231 267.404 109.832 266.918 109.597 266.35C109.362 265.782 109.3 265.157 109.42 264.553C109.54 263.95 109.836 263.396 110.271 262.961C110.706 262.526 111.26 262.23 111.864 262.11C112.467 261.99 113.092 262.051 113.661 262.287C114.229 262.522 114.714 262.921 115.056 263.432C115.398 263.944 115.58 264.545 115.58 265.16C115.578 265.979 115.253 266.764 114.677 267.346C114.101 267.928 113.319 268.26 112.5 268.27H112.47Z"
            fill="#E0E0E0" />
        <path
            d="M430.239 246.38C430.617 246.102 430.974 245.798 431.309 245.47C431.64 245.137 431.944 244.78 432.219 244.4L431.359 243.28C431.644 242.844 431.878 242.378 432.059 241.89H433.479C433.77 240.999 433.919 240.067 433.919 239.13L432.549 238.73C432.529 238.209 432.448 237.692 432.309 237.19L433.479 236.39C433.196 235.496 432.767 234.654 432.209 233.9L430.879 234.37C430.717 234.167 430.543 233.974 430.359 233.79C430.169 233.6 429.979 233.43 429.779 233.26L430.249 231.93C429.489 231.382 428.649 230.953 427.759 230.66L426.959 231.83C426.451 231.701 425.932 231.62 425.409 231.59L425.009 230.23C424.072 230.227 423.14 230.376 422.249 230.67V232.08C421.763 232.268 421.297 232.506 420.859 232.79L419.729 231.93C418.964 232.49 418.289 233.164 417.729 233.93L418.589 235.05C418.307 235.492 418.07 235.961 417.879 236.45H416.469C416.18 237.341 416.031 238.273 416.029 239.21L417.389 239.61C417.419 240.13 417.499 240.646 417.629 241.15L416.459 241.96C416.753 242.85 417.181 243.69 417.729 244.45L419.059 243.97C419.229 244.17 419.399 244.37 419.589 244.56C419.779 244.75 419.969 244.92 420.169 245.08L419.699 246.41C420.454 246.968 421.295 247.397 422.189 247.68L422.989 246.51C423.492 246.649 424.008 246.73 424.529 246.75L424.929 248.12C425.87 248.119 426.805 247.971 427.699 247.68V246.26C428.186 246.075 428.651 245.841 429.089 245.56L430.239 246.38ZM422.809 241.38C422.375 240.945 422.079 240.391 421.959 239.788C421.839 239.184 421.901 238.559 422.136 237.991C422.372 237.423 422.77 236.937 423.282 236.596C423.793 236.254 424.394 236.072 425.009 236.072C425.624 236.072 426.225 236.254 426.737 236.596C427.248 236.937 427.647 237.423 427.882 237.991C428.118 238.559 428.18 239.184 428.06 239.788C427.94 240.391 427.644 240.945 427.209 241.38C426.92 241.67 426.577 241.899 426.199 242.056C425.821 242.212 425.416 242.292 425.007 242.291C424.598 242.29 424.193 242.208 423.816 242.05C423.439 241.892 423.097 241.661 422.809 241.37V241.38Z"
            fill="#F0F0F0" />
        <path
            d="M250.499 423.71C357.582 423.71 444.389 418.642 444.389 412.39C444.389 406.138 357.582 401.07 250.499 401.07C143.417 401.07 56.6094 406.138 56.6094 412.39C56.6094 418.642 143.417 423.71 250.499 423.71Z"
            fill="#F5F5F5" />
        <path d="M286.061 113.76V98.1799L293.721 97.0999V112.68L286.061 113.76Z" fill="#263238" />
        <path d="M260.59 122.44L254.85 113.3L259.74 109.8L265.47 118.93L260.59 122.44Z" fill="#263238" />
        <path d="M314.301 112.06L320.041 101.32L324.921 103.45L319.191 114.2L314.301 112.06Z" fill="#263238" />
        <g opacity="0.5">
            <path d="M286.061 113.76V98.1799L293.721 97.0999V112.68L286.061 113.76Z" fill="white" />
            <path d="M260.59 122.44L254.85 113.3L259.74 109.8L265.47 118.93L260.59 122.44Z" fill="white" />
            <path d="M314.299 112.06L320.039 101.32L324.919 103.45L319.189 114.2L314.299 112.06Z" fill="white" />
        </g>
        <path
            d="M294.809 99.61L284.969 101C284.612 101.066 284.244 101.051 283.894 100.956C283.543 100.861 283.218 100.689 282.943 100.452C282.667 100.215 282.448 99.9195 282.302 99.5869C282.156 99.2542 282.087 98.893 282.099 98.53C282.122 97.736 282.421 96.9748 282.945 96.3778C283.469 95.7808 284.185 95.3854 284.969 95.26L294.809 93.88C295.165 93.8142 295.532 93.829 295.882 93.9232C296.232 94.0174 296.556 94.1888 296.831 94.4246C297.107 94.6605 297.326 94.9549 297.472 95.2863C297.619 95.6177 297.689 95.9777 297.679 96.34C297.654 97.1334 297.355 97.8936 296.831 98.4902C296.307 99.0868 295.593 99.4827 294.809 99.61Z"
            fill="#263238" />
        <path
            d="M261.331 109.55L254.041 114.79C253.889 114.917 253.713 115.011 253.524 115.067C253.334 115.122 253.135 115.139 252.939 115.114C252.743 115.09 252.554 115.025 252.384 114.925C252.214 114.824 252.067 114.69 251.951 114.53C251.758 114.163 251.709 113.738 251.813 113.337C251.916 112.936 252.165 112.588 252.511 112.36L259.811 107.13C259.961 107.002 260.136 106.907 260.325 106.85C260.514 106.794 260.712 106.777 260.908 106.801C261.104 106.826 261.292 106.891 261.461 106.992C261.631 107.093 261.777 107.229 261.891 107.39C262.083 107.755 262.131 108.179 262.028 108.578C261.924 108.977 261.676 109.324 261.331 109.55Z"
            fill="#263238" />
        <path
            d="M325.74 104.71L318.44 101.53C318.265 101.442 318.112 101.318 317.988 101.167C317.864 101.016 317.773 100.841 317.72 100.653C317.668 100.465 317.655 100.268 317.682 100.075C317.709 99.8814 317.777 99.6959 317.88 99.5299C318.062 99.1557 318.376 98.8619 318.762 98.7051C319.148 98.5482 319.578 98.5393 319.97 98.6799L327.26 101.87C327.436 101.956 327.592 102.078 327.718 102.229C327.843 102.38 327.935 102.555 327.988 102.744C328.041 102.933 328.054 103.131 328.024 103.325C327.995 103.519 327.925 103.705 327.82 103.87C327.637 104.242 327.324 104.533 326.94 104.688C326.556 104.843 326.129 104.851 325.74 104.71Z"
            fill="#263238" />
        <path opacity="0.7"
            d="M294.809 99.61L284.969 101C284.612 101.066 284.244 101.051 283.894 100.956C283.543 100.861 283.218 100.689 282.943 100.452C282.667 100.215 282.448 99.9195 282.302 99.5869C282.156 99.2542 282.087 98.893 282.099 98.53C282.122 97.736 282.421 96.9748 282.945 96.3778C283.469 95.7808 284.185 95.3854 284.969 95.26L294.809 93.88C295.165 93.8142 295.532 93.829 295.882 93.9232C296.232 94.0174 296.556 94.1888 296.831 94.4246C297.107 94.6605 297.326 94.9549 297.472 95.2863C297.619 95.6177 297.689 95.9777 297.679 96.34C297.654 97.1334 297.355 97.8936 296.831 98.4902C296.307 99.0868 295.593 99.4827 294.809 99.61Z"
            fill="white" />
        <path opacity="0.7"
            d="M261.331 109.55L254.041 114.79C253.889 114.917 253.713 115.011 253.524 115.067C253.334 115.122 253.135 115.139 252.939 115.114C252.743 115.09 252.554 115.025 252.384 114.925C252.214 114.824 252.067 114.69 251.951 114.53C251.758 114.163 251.709 113.738 251.813 113.337C251.916 112.936 252.165 112.588 252.511 112.36L259.811 107.13C259.961 107.002 260.136 106.907 260.325 106.85C260.514 106.794 260.712 106.777 260.908 106.801C261.104 106.826 261.292 106.891 261.461 106.992C261.631 107.093 261.777 107.229 261.891 107.39C262.083 107.755 262.131 108.179 262.028 108.578C261.924 108.977 261.676 109.324 261.331 109.55Z"
            fill="white" />
        <path opacity="0.7"
            d="M325.74 104.71L318.44 101.53C318.265 101.442 318.112 101.318 317.988 101.167C317.864 101.016 317.773 100.841 317.72 100.653C317.668 100.465 317.655 100.268 317.682 100.075C317.709 99.8814 317.777 99.6959 317.88 99.5299C318.062 99.1557 318.376 98.8619 318.762 98.7051C319.148 98.5482 319.578 98.5393 319.97 98.6799L327.26 101.87C327.436 101.956 327.592 102.078 327.718 102.229C327.843 102.38 327.935 102.555 327.988 102.744C328.041 102.933 328.054 103.131 328.024 103.325C327.995 103.519 327.925 103.705 327.82 103.87C327.637 104.242 327.324 104.533 326.94 104.688C326.556 104.843 326.129 104.851 325.74 104.71Z"
            fill="white" />
        <path
            d="M289.89 211.3C263.26 215.04 241.67 196.49 241.67 169.86C241.67 143.23 263.26 118.6 289.89 114.86C316.52 111.12 338.11 129.67 338.11 156.3L344.69 155.38C344.69 125.11 320.15 104.03 289.89 108.28C259.63 112.53 235.09 140.52 235.09 170.78C235.09 201.04 259.62 222.13 289.89 217.88V211.3Z"
            fill="#407BFF" />
        <path d="M270.729 197.236L267.131 203.976L268.542 204.729L272.141 197.99L270.729 197.236Z" fill="#263238" />
        <path d="M311.218 121.422L307.619 128.161L309.031 128.915L312.629 122.175L311.218 121.422Z" fill="#263238" />
        <path d="M252.017 145.652L251.377 147.118L257.609 149.839L258.249 148.373L252.017 145.652Z" fill="#263238" />
        <path d="M269.143 128.54L267.783 129.388L271.371 135.142L272.731 134.294L269.143 128.54Z" fill="#263238" />
        <path d="M257.478 185.385L251.238 189.862L252.171 191.162L258.411 186.685L257.478 185.385Z" fill="#263238" />
        <path d="M327.603 135.026L321.363 139.503L322.296 140.803L328.536 136.326L327.603 135.026Z" fill="#263238" />
        <path d="M255.18 166.343L245.584 167.691L246.029 170.86L255.625 169.511L255.18 166.343Z" fill="#263238" />
        <path d="M291.489 119H288.289V128.6H291.489V119Z" fill="#263238" />
        <path d="M291.489 197.56H288.289V207.16H291.489V197.56Z" fill="#263238" />
        <path
            d="M277.5 152.68C277.127 153.055 276.918 153.562 276.918 154.09C276.918 154.618 277.127 155.125 277.5 155.5L288.24 164.72L291.05 161.51L280.32 152.28C280.109 152.119 279.868 152.002 279.612 151.935C279.355 151.868 279.088 151.853 278.826 151.89C278.563 151.927 278.311 152.016 278.083 152.152C277.856 152.288 277.657 152.467 277.5 152.68Z"
            fill="#407BFF" />
        <path opacity="0.4"
            d="M277.5 152.68C277.127 153.055 276.918 153.562 276.918 154.09C276.918 154.618 277.127 155.125 277.5 155.5L288.24 164.72L291.05 161.51L280.32 152.28C280.109 152.119 279.868 152.002 279.612 151.935C279.355 151.868 279.088 151.853 278.826 151.89C278.563 151.927 278.311 152.016 278.083 152.152C277.856 152.288 277.657 152.467 277.5 152.68Z"
            fill="white" />
        <path d="M349.379 153.92L341.369 164.65L333.369 156.17L349.379 153.92Z" fill="#407BFF" />
        <path
            d="M308.159 141.94C307.948 141.779 307.708 141.662 307.451 141.595C307.195 141.528 306.928 141.513 306.665 141.55C306.403 141.587 306.151 141.676 305.923 141.812C305.695 141.947 305.497 142.127 305.339 142.34L290.799 158.92C290.02 158.822 289.229 158.919 288.497 159.204C287.766 159.489 287.117 159.951 286.609 160.55C284.969 162.43 284.969 165.1 286.609 166.55C288.249 168 290.929 167.55 292.609 165.71C293.127 165.133 293.49 164.434 293.665 163.679C293.84 162.923 293.821 162.136 293.609 161.39L308.149 144.8C308.34 144.614 308.492 144.392 308.596 144.147C308.701 143.902 308.755 143.638 308.756 143.372C308.757 143.106 308.704 142.842 308.602 142.596C308.499 142.35 308.349 142.127 308.159 141.94Z"
            fill="#407BFF" />
        <path
            d="M310.79 202.26L323.29 200.5L322.18 206.27L299.65 209.44L300.55 204.85L314.11 192.32C315.385 191.167 316.532 189.88 317.53 188.48C318.151 187.6 318.499 186.557 318.53 185.48C318.557 185.044 318.467 184.609 318.27 184.219C318.073 183.829 317.777 183.498 317.41 183.26C316.413 182.733 315.26 182.581 314.16 182.83C312.93 183.005 311.753 183.445 310.71 184.12C309.586 184.83 308.605 185.746 307.82 186.82L303.19 184.11C304.485 182.195 306.194 180.596 308.19 179.43C310.333 178.148 312.715 177.317 315.19 176.99C317.008 176.686 318.869 176.771 320.65 177.24C322.083 177.611 323.361 178.427 324.3 179.57C325.178 180.696 325.638 182.093 325.6 183.52C325.582 185.425 325.054 187.289 324.07 188.92C322.603 191.198 320.814 193.252 318.76 195.02L310.79 202.26Z"
            fill="#263238" />
        <path
            d="M353.08 195.68L348.2 196.37L346.96 202.79L340.25 203.73L341.5 197.3L325.5 199.56L326.39 194.8L343.9 173.46L351.43 172.41L335.1 192.6L342.93 191.5L344.03 185.77L350.45 184.87L349.34 190.59L354.23 189.91L353.08 195.68Z"
            fill="#263238" />
        <path d="M372.72 163.38L378.93 162.5L357.08 205.62L350.92 206.48L372.72 163.38Z" fill="#263238" />
        <path
            d="M401.071 165.43L400.181 170.02L384.281 197.54L376.631 198.62L391.891 172.33L382.241 173.69L381.241 178.69L375.121 179.55L377.201 168.8L401.071 165.43Z"
            fill="#263238" />
        <path
            d="M303.071 239C302.123 238.895 301.205 238.602 300.371 238.14L301.831 235.14C302.571 235.572 303.385 235.864 304.231 236C305.135 236.145 306.057 236.145 306.961 236C307.798 235.916 308.603 235.635 309.311 235.18C309.564 235.03 309.776 234.818 309.926 234.565C310.076 234.311 310.161 234.024 310.171 233.73C310.182 233.511 310.12 233.294 309.995 233.113C309.871 232.932 309.69 232.798 309.481 232.73C308.771 232.491 308.036 232.33 307.291 232.25C306.462 232.128 305.64 231.958 304.831 231.74C304.2 231.556 303.628 231.212 303.171 230.74C302.676 230.165 302.428 229.417 302.481 228.66C302.477 227.631 302.78 226.625 303.351 225.77C303.987 224.845 304.842 224.092 305.841 223.58C307.005 222.97 308.268 222.574 309.571 222.41C310.564 222.261 311.572 222.237 312.571 222.34C313.404 222.408 314.217 222.629 314.971 222.99L313.621 225.93C313.015 225.602 312.354 225.388 311.671 225.3C310.918 225.2 310.154 225.2 309.401 225.3C308.537 225.39 307.709 225.692 306.991 226.18C306.73 226.335 306.512 226.552 306.357 226.812C306.202 227.072 306.114 227.367 306.101 227.67C306.093 227.824 306.123 227.978 306.19 228.118C306.256 228.258 306.356 228.379 306.481 228.47C306.761 228.684 307.086 228.831 307.431 228.9C307.811 228.98 308.351 229.07 309.051 229.17C309.875 229.262 310.69 229.415 311.491 229.63C312.112 229.817 312.673 230.162 313.121 230.63C313.361 230.902 313.544 231.219 313.659 231.562C313.774 231.906 313.819 232.269 313.791 232.63C313.801 233.667 313.494 234.682 312.911 235.54C312.263 236.461 311.402 237.213 310.401 237.73C309.221 238.378 307.934 238.808 306.601 239C305.431 239.17 304.242 239.17 303.071 239Z"
            fill="#263238" />
        <path
            d="M321.441 224L320.771 227.47L327.981 226.47L327.431 229.35L320.201 230.35L319.491 234.05L327.961 232.86L327.361 235.86L315.361 237.55L318.461 221.55L330.201 219.9L329.601 222.9L321.441 224Z"
            fill="#263238" />
        <path
            d="M344.551 226.45C343.735 227.622 342.605 228.541 341.291 229.1L343.991 233.51L340.201 234.05L337.761 230.05L334.701 230.48L333.831 234.95L330.221 235.46L333.321 219.46L339.651 218.57C341.169 218.233 342.758 218.461 344.121 219.21C344.657 219.572 345.088 220.071 345.369 220.654C345.65 221.237 345.771 221.884 345.721 222.53C345.747 223.926 345.338 225.296 344.551 226.45ZM341.101 225.89C341.43 225.567 341.69 225.178 341.862 224.75C342.034 224.321 342.115 223.862 342.101 223.4C342.131 223.098 342.076 222.793 341.944 222.519C341.812 222.246 341.606 222.014 341.351 221.85C340.684 221.524 339.926 221.432 339.201 221.59L336.361 221.99L335.271 227.54L338.331 227.11C339.36 227.008 340.33 226.58 341.101 225.89Z"
            fill="#263238" />
        <path
            d="M364.55 215.1L354.73 232L351.2 232.49L347.58 217.49L351.29 216.97L353.79 227.68L360.79 215.62L364.55 215.1Z"
            fill="#263238" />
        <path d="M365.83 214.92L369.45 214.41L366.35 230.41L362.73 230.92L365.83 214.92Z" fill="#263238" />
        <path
            d="M374.101 228.71C373.011 228.359 372.068 227.656 371.421 226.71C370.778 225.695 370.454 224.511 370.491 223.31C370.483 221.595 370.899 219.905 371.701 218.39C372.511 216.859 373.681 215.547 375.111 214.57C376.602 213.541 378.316 212.88 380.111 212.64C381.338 212.437 382.594 212.505 383.791 212.84C384.774 213.102 385.632 213.704 386.211 214.54L383.611 217.03C383.178 216.478 382.594 216.063 381.931 215.834C381.268 215.606 380.553 215.573 379.871 215.74C378.784 215.886 377.752 216.306 376.871 216.96C376.021 217.612 375.335 218.454 374.871 219.42C374.391 220.404 374.145 221.485 374.151 222.58C374.114 223.087 374.198 223.595 374.396 224.063C374.595 224.53 374.901 224.944 375.291 225.27C375.756 225.586 376.281 225.802 376.834 225.905C377.386 226.008 377.954 225.996 378.501 225.87C380.13 225.645 381.608 224.795 382.621 223.5L384.751 225.37C383.957 226.382 382.966 227.223 381.839 227.843C380.712 228.463 379.471 228.85 378.191 228.98C376.826 229.218 375.423 229.125 374.101 228.71Z"
            fill="#263238" />
        <path
            d="M392.361 214.08L391.691 217.54L398.901 216.54L398.351 219.41L391.121 220.41L390.411 224.1L398.881 222.91L398.281 225.91L386.281 227.6L389.391 211.6L401.101 210L400.501 213L392.361 214.08Z"
            fill="#263238" />
        <path
            d="M196.969 144.47C186.279 144.47 177.619 150.78 177.619 158.56C177.619 164.21 182.209 169.08 188.819 171.32C188.111 174.565 186.892 177.677 185.209 180.54C187.608 180.183 189.894 179.286 191.895 177.915C193.896 176.545 195.559 174.738 196.759 172.63H196.969C207.659 172.63 216.319 166.33 216.319 158.55C216.319 150.77 207.659 144.47 196.969 144.47Z"
            fill="#407BFF" />
        <path opacity="0.7"
            d="M196.969 144.47C186.279 144.47 177.619 150.78 177.619 158.56C177.619 164.21 182.209 169.08 188.819 171.32C188.111 174.565 186.892 177.677 185.209 180.54C187.608 180.183 189.894 179.286 191.895 177.915C193.896 176.545 195.559 174.738 196.759 172.63H196.969C207.659 172.63 216.319 166.33 216.319 158.55C216.319 150.77 207.659 144.47 196.969 144.47Z"
            fill="white" />
        <path
            d="M188.439 161.27C189.527 161.27 190.409 160.388 190.409 159.3C190.409 158.212 189.527 157.33 188.439 157.33C187.351 157.33 186.469 158.212 186.469 159.3C186.469 160.388 187.351 161.27 188.439 161.27Z"
            fill="#263238" />
        <path
            d="M198.809 159.3C198.809 159.696 198.691 160.082 198.472 160.411C198.252 160.74 197.939 160.996 197.574 161.148C197.209 161.299 196.806 161.339 196.418 161.262C196.03 161.184 195.674 160.994 195.394 160.714C195.115 160.435 194.924 160.078 194.847 159.69C194.77 159.302 194.809 158.9 194.961 158.535C195.112 158.169 195.369 157.857 195.697 157.637C196.026 157.417 196.413 157.3 196.809 157.3C197.339 157.3 197.848 157.511 198.223 157.886C198.598 158.261 198.809 158.77 198.809 159.3Z"
            fill="#263238" />
        <path
            d="M205.24 161.27C206.328 161.27 207.21 160.388 207.21 159.3C207.21 158.212 206.328 157.33 205.24 157.33C204.152 157.33 203.27 158.212 203.27 159.3C203.27 160.388 204.152 161.27 205.24 161.27Z"
            fill="#263238" />
        <path
            d="M372.499 360.05C372.499 360.05 372.629 346.7 367.769 348.46C362.909 350.22 372.499 360.05 372.499 360.05Z"
            fill="#407BFF" />
        <path d="M377.72 347.69C377.72 347.69 384.16 337.01 378.34 335.48C372.52 333.95 377.72 347.69 377.72 347.69Z"
            fill="#407BFF" />
        <path d="M403.17 340.15C403.17 340.15 416.54 339.46 413.52 334.45C410.5 329.44 403.17 340.15 403.17 340.15Z"
            fill="#407BFF" />
        <path d="M382.02 343.7C382.02 343.7 396.02 340.54 393.4 348.4C390.78 356.26 382.02 343.7 382.02 343.7Z"
            fill="#407BFF" />
        <path
            d="M371.849 372.12C371.849 372.12 366.499 360 363.499 364.31C360.499 368.62 371.849 372.12 371.849 372.12Z"
            fill="#407BFF" />
        <path
            d="M387.109 341.18C387.109 341.18 401.369 337.44 396.929 332.18C392.489 326.92 387.109 341.18 387.109 341.18Z"
            fill="#407BFF" />
        <path
            d="M397.891 339.71C397.891 339.71 409.171 345.25 403.971 348.87C398.771 352.49 397.891 339.71 397.891 339.71Z"
            fill="#407BFF" />
        <path d="M373.91 354.68C373.91 354.68 381.72 345.28 384.13 352.11C386.54 358.94 373.91 354.68 373.91 354.68Z"
            fill="#407BFF" />
        <g opacity="0.4">
            <path
                d="M371.849 372.12C371.849 372.12 366.499 360 363.499 364.31C360.499 368.62 371.849 372.12 371.849 372.12Z"
                fill="white" />
            <path
                d="M387.109 341.18C387.109 341.18 401.369 337.44 396.929 332.18C392.489 326.92 387.109 341.18 387.109 341.18Z"
                fill="white" />
            <path
                d="M397.889 339.71C397.889 339.71 409.169 345.25 403.969 348.87C398.769 352.49 397.889 339.71 397.889 339.71Z"
                fill="white" />
            <path
                d="M373.908 354.68C373.908 354.68 381.718 345.28 384.128 352.11C386.538 358.94 373.908 354.68 373.908 354.68Z"
                fill="white" />
        </g>
        <path d="M371.77 366.88C371.77 366.88 377.37 354.88 381.88 360.93C386.39 366.98 371.77 366.88 371.77 366.88Z"
            fill="#407BFF" />
        <path
            d="M371.859 379.5C370.162 371.68 370.406 363.564 372.569 355.86C377.149 340.86 391.199 337.33 405.399 339.6C406.529 339.78 406.029 341.48 404.909 341.3C397.369 340.1 388.909 339.98 382.339 344.54C377.639 347.83 374.979 353.06 373.699 358.54C372.198 365.297 372.16 372.297 373.589 379.07C373.819 380.19 372.099 380.63 371.859 379.51V379.5Z"
            fill="#407BFF" />
        <g opacity="0.3">
            <path
                d="M371.859 379.5C370.162 371.68 370.406 363.564 372.569 355.86C377.149 340.86 391.199 337.33 405.399 339.6C406.529 339.78 406.029 341.48 404.909 341.3C397.369 340.1 388.909 339.98 382.339 344.54C377.639 347.83 374.979 353.06 373.699 358.54C372.198 365.297 372.16 372.297 373.589 379.07C373.819 380.19 372.099 380.63 371.859 379.51V379.5Z"
                fill="black" />
        </g>
        <path d="M360.731 356C360.731 356 353.731 339.68 349.191 343.94C344.651 348.2 360.731 356 360.731 356Z"
            fill="#407BFF" />
        <path
            d="M360.129 338.64C360.129 338.64 361.789 322.83 354.349 323.51C346.909 324.19 360.129 338.64 360.129 338.64Z"
            fill="#407BFF" />
        <path
            d="M385.119 318.36C385.119 318.36 399.969 311.69 393.869 306.91C387.769 302.13 385.119 318.36 385.119 318.36Z"
            fill="#407BFF" />
        <path d="M362.91 331.91C362.91 331.91 377.2 321.91 378.37 332.67C379.54 343.43 362.91 331.91 362.91 331.91Z"
            fill="#407BFF" />
        <path d="M366.43 370.94C366.43 370.94 353.84 358.56 352.71 365.1C351.58 371.64 366.43 370.94 366.43 370.94Z"
            fill="#407BFF" />
        <path
            d="M367.359 326.62C367.359 326.62 381.619 315.84 373.759 311.37C365.899 306.9 367.359 326.62 367.359 326.62Z"
            fill="#407BFF" />
        <path
            d="M378.869 320.13C378.869 320.13 394.659 321.96 390.649 328.63C386.639 335.3 378.869 320.13 378.869 320.13Z"
            fill="#407BFF" />
        <path d="M359.5 348.81C359.5 348.81 363.4 333.96 369.78 341.23C376.16 348.5 359.5 348.81 359.5 348.81Z"
            fill="#407BFF" />
        <g opacity="0.4">
            <path d="M366.43 370.94C366.43 370.94 353.84 358.56 352.71 365.1C351.58 371.64 366.43 370.94 366.43 370.94Z"
                fill="white" />
            <path
                d="M367.359 326.62C367.359 326.62 381.619 315.84 373.759 311.37C365.899 306.9 367.359 326.62 367.359 326.62Z"
                fill="white" />
            <path
                d="M378.869 320.13C378.869 320.13 394.659 321.96 390.649 328.63C386.639 335.3 378.869 320.13 378.869 320.13Z"
                fill="white" />
            <path d="M359.5 348.81C359.5 348.81 363.4 333.96 369.78 341.23C376.16 348.5 359.5 348.81 359.5 348.81Z"
                fill="white" />
        </g>
        <path d="M363.561 364.6C363.561 364.6 363.561 347.53 371.901 352.94C380.241 358.35 363.561 364.6 363.561 364.6Z"
            fill="#407BFF" />
        <path
            d="M370.35 379.92C364.49 371.35 359.97 360.92 358.61 350.84C355.87 330.6 369.97 320.15 387.36 316.71C388.74 316.44 389.07 318.71 387.71 319.01C378.48 320.83 368.71 324.4 363.71 332.8C360.1 338.85 359.84 346.38 361.29 353.6C363.219 362.556 366.881 371.049 372.07 378.6C372.154 378.714 372.214 378.844 372.248 378.982C372.282 379.119 372.289 379.262 372.267 379.403C372.246 379.543 372.197 379.677 372.124 379.799C372.05 379.92 371.954 380.026 371.84 380.11C371.725 380.194 371.596 380.255 371.458 380.289C371.32 380.323 371.177 380.329 371.037 380.308C370.897 380.286 370.762 380.238 370.641 380.164C370.519 380.091 370.414 379.994 370.33 379.88L370.35 379.92Z"
            fill="#407BFF" />
        <g opacity="0.3">
            <path
                d="M370.35 379.92C364.49 371.35 359.97 360.92 358.61 350.84C355.87 330.6 369.97 320.15 387.36 316.71C388.74 316.44 389.07 318.71 387.71 319.01C378.48 320.83 368.71 324.4 363.71 332.8C360.1 338.85 359.84 346.38 361.29 353.6C363.219 362.556 366.881 371.049 372.07 378.6C372.154 378.714 372.214 378.844 372.248 378.982C372.282 379.119 372.289 379.262 372.267 379.403C372.246 379.543 372.197 379.677 372.124 379.799C372.05 379.92 371.954 380.026 371.84 380.11C371.725 380.194 371.596 380.255 371.458 380.289C371.32 380.323 371.177 380.329 371.037 380.308C370.897 380.286 370.762 380.238 370.641 380.164C370.519 380.091 370.414 379.994 370.33 379.88L370.35 379.92Z"
                fill="black" />
        </g>
        <path d="M359.07 360.29C359.07 360.29 362.39 349.22 365.95 351.92C369.51 354.62 359.07 360.29 359.07 360.29Z"
            fill="#407BFF" />
        <path d="M357.91 348.73C357.91 348.73 355.34 338.24 360.54 338.48C365.74 338.72 357.91 348.73 357.91 348.73Z"
            fill="#407BFF" />
        <path d="M338.82 336C338.82 336 327.95 332 331.74 328.63C335.53 325.26 338.82 336 338.82 336Z" fill="#407BFF" />
        <path
            d="M355.389 344.32C355.389 344.32 344.609 338.11 344.779 345.32C344.949 352.53 355.389 344.32 355.389 344.32Z"
            fill="#407BFF" />
        <path d="M356.5 370.42C356.5 370.42 364.08 361.81 365.45 366.13C366.82 370.45 356.5 370.42 356.5 370.42Z"
            fill="#407BFF" />
        <path d="M351.83 340.93C351.83 340.93 341.01 334.17 346.03 330.93C351.05 327.69 351.83 340.93 351.83 340.93Z"
            fill="#407BFF" />
        <path d="M343.29 337C343.29 337 332.55 338.68 335.92 343C339.29 347.32 343.29 337 343.29 337Z" fill="#407BFF" />
        <path
            d="M359.269 355.48C359.269 355.48 355.269 345.7 351.479 350.73C347.689 355.76 359.269 355.48 359.269 355.48Z"
            fill="#407BFF" />
        <g opacity="0.4">
            <path d="M356.5 370.42C356.5 370.42 364.08 361.81 365.45 366.13C366.82 370.45 356.5 370.42 356.5 370.42Z"
                fill="white" />
            <path
                d="M351.83 340.93C351.83 340.93 341.01 334.17 346.03 330.93C351.05 327.69 351.83 340.93 351.83 340.93Z"
                fill="white" />
            <path d="M343.29 337C343.29 337 332.55 338.68 335.92 343C339.29 347.32 343.29 337 343.29 337Z"
                fill="white" />
            <path
                d="M359.271 355.48C359.271 355.48 355.271 345.7 351.481 350.73C347.691 355.76 359.271 355.48 359.271 355.48Z"
                fill="white" />
        </g>
        <path d="M357.89 366.11C357.89 366.11 356.36 354.74 351.07 358.59C345.78 362.44 357.89 366.11 357.89 366.11Z"
            fill="#407BFF" />
        <path
            d="M354.579 376.51C357.993 370.488 359.875 363.72 360.059 356.8C360.129 343.24 349.439 336.7 337.119 334.92C336.119 334.78 336.119 336.32 337.119 336.46C343.659 337.4 350.709 339.46 354.929 344.94C357.929 348.86 358.829 353.87 358.479 358.72C357.982 364.692 356.212 370.489 353.289 375.72C352.809 376.58 354.119 377.39 354.609 376.52L354.579 376.51Z"
            fill="#407BFF" />
        <g opacity="0.3">
            <path
                d="M354.579 376.51C357.993 370.488 359.875 363.72 360.059 356.8C360.129 343.24 349.439 336.7 337.119 334.92C336.119 334.78 336.119 336.32 337.119 336.46C343.659 337.4 350.709 339.46 354.929 344.94C357.929 348.86 358.829 353.87 358.479 358.72C357.982 364.692 356.212 370.489 353.289 375.72C352.809 376.58 354.119 377.39 354.609 376.52L354.579 376.51Z"
                fill="black" />
        </g>
        <path
            d="M385.7 373.7L381.83 402.89C381.588 404.705 380.695 406.371 379.318 407.577C377.94 408.784 376.171 409.449 374.34 409.45H350.27C348.439 409.449 346.67 408.784 345.293 407.577C343.915 406.371 343.022 404.705 342.78 402.89L338.91 373.7H385.7Z"
            fill="#407BFF" />
        <path opacity="0.3"
            d="M385.7 373.7L381.83 402.89C381.588 404.705 380.695 406.371 379.318 407.577C377.94 408.784 376.171 409.449 374.34 409.45H350.27C348.439 409.449 346.67 408.784 345.293 407.577C343.915 406.371 343.022 404.705 342.78 402.89L338.91 373.7H385.7Z"
            fill="white" />
        <path d="M168.369 317.63H161.799V360.81H168.369V317.63Z" fill="#263238" />
        <path opacity="0.5" d="M168.369 317.63H161.799V360.81H168.369V317.63Z" fill="white" />
        <path
            d="M185.05 393.15L169.66 390.37V359.47C169.661 359.242 169.617 359.017 169.531 358.806C169.444 358.596 169.317 358.404 169.156 358.244C168.995 358.083 168.804 357.955 168.593 357.869C168.383 357.782 168.157 357.738 167.93 357.74H162.24C162.012 357.738 161.785 357.782 161.574 357.869C161.363 357.955 161.171 358.082 161.01 358.243C160.848 358.404 160.72 358.595 160.632 358.805C160.545 359.016 160.5 359.242 160.5 359.47V390.37L145.12 393.15C144.04 393.342 143.062 393.909 142.358 394.75C141.654 395.591 141.269 396.653 141.27 397.75L165.08 395.6L188.9 397.75C188.898 396.654 188.512 395.593 187.808 394.752C187.105 393.911 186.128 393.344 185.05 393.15Z"
            fill="#263238" />
        <path
            d="M146.27 402.42C146.27 403.409 145.976 404.376 145.427 405.198C144.877 406.02 144.097 406.661 143.183 407.039C142.269 407.418 141.264 407.517 140.294 407.324C139.324 407.131 138.433 406.655 137.734 405.955C137.035 405.256 136.559 404.365 136.366 403.395C136.173 402.425 136.272 401.42 136.65 400.507C137.029 399.593 137.669 398.812 138.492 398.263C139.314 397.713 140.281 397.42 141.27 397.42C142.596 397.42 143.867 397.947 144.805 398.884C145.743 399.822 146.27 401.094 146.27 402.42Z"
            fill="#407BFF" />
        <path
            d="M193.9 402.42C193.9 403.409 193.607 404.376 193.058 405.198C192.508 406.02 191.727 406.661 190.814 407.039C189.9 407.418 188.895 407.517 187.925 407.324C186.955 407.131 186.064 406.655 185.365 405.955C184.666 405.256 184.189 404.365 183.996 403.395C183.804 402.425 183.903 401.42 184.281 400.507C184.659 399.593 185.3 398.812 186.123 398.263C186.945 397.713 187.911 397.42 188.9 397.42C189.557 397.42 190.207 397.549 190.814 397.801C191.42 398.052 191.972 398.42 192.436 398.884C192.9 399.349 193.269 399.9 193.52 400.507C193.771 401.113 193.9 401.763 193.9 402.42Z"
            fill="#407BFF" />
        <path
            d="M168.99 402.42C168.99 405.18 167.85 407.42 165.08 407.42C162.31 407.42 161.18 405.18 161.18 402.42C161.18 399.66 162.32 397.42 165.08 397.42C167.84 397.42 168.99 399.66 168.99 402.42Z"
            fill="#407BFF" />
        <g opacity="0.5">
            <path d="M169.809 390.39V396.03L171.669 396.2V390.73L169.809 390.39Z" fill="black" />
            <path d="M158.539 390.72V396.19L160.399 396.03V390.39L158.539 390.72Z" fill="black" />
        </g>
        <path
            d="M122.19 278.3C121.775 278.3 121.366 278.392 120.991 278.568C120.615 278.744 120.283 279.001 120.018 279.319C119.753 279.638 119.561 280.011 119.456 280.412C119.351 280.813 119.335 281.232 119.41 281.64L125.51 314.51C125.785 316.003 126.575 317.353 127.743 318.325C128.91 319.297 130.381 319.829 131.9 319.83H228.03C228.596 319.83 229.158 319.718 229.681 319.501C230.205 319.284 230.68 318.965 231.081 318.564C231.481 318.163 231.798 317.686 232.014 317.162C232.23 316.638 232.341 316.077 232.34 315.51C232.34 313.884 231.694 312.325 230.544 311.175C229.395 310.026 227.835 309.38 226.21 309.38H171.36C169.906 309.38 168.494 308.894 167.348 307.999C166.203 307.104 165.39 305.851 165.04 304.44L160.13 284.62C159.683 282.817 158.646 281.215 157.183 280.069C155.721 278.924 153.917 278.301 152.06 278.3H122.19Z"
            fill="#263238" />
        <path
            d="M135.17 304.44L130.26 284.62C129.813 282.817 128.776 281.215 127.313 280.069C125.851 278.924 124.047 278.301 122.19 278.3C121.775 278.3 121.366 278.392 120.991 278.568C120.615 278.744 120.283 279.001 120.018 279.319C119.753 279.638 119.561 280.011 119.456 280.412C119.351 280.813 119.335 281.232 119.41 281.64L125.51 314.51C125.785 316.003 126.575 317.353 127.743 318.325C128.91 319.297 130.381 319.829 131.9 319.83H198.15C198.717 319.831 199.28 319.72 199.804 319.504C200.329 319.287 200.806 318.969 201.207 318.567C201.609 318.166 201.927 317.689 202.143 317.165C202.36 316.64 202.471 316.078 202.47 315.51C202.467 313.885 201.82 312.327 200.671 311.178C199.522 310.029 197.965 309.382 196.34 309.38H141.5C140.044 309.384 138.628 308.9 137.481 308.004C136.333 307.108 135.519 305.853 135.17 304.44Z"
            fill="#263238" />
        <path opacity="0.2"
            d="M135.17 304.44L130.26 284.62C129.813 282.817 128.776 281.215 127.313 280.069C125.851 278.924 124.047 278.301 122.19 278.3C121.775 278.3 121.366 278.392 120.991 278.568C120.615 278.744 120.283 279.001 120.018 279.319C119.753 279.638 119.561 280.011 119.456 280.412C119.351 280.813 119.335 281.232 119.41 281.64L125.51 314.51C125.785 316.003 126.575 317.353 127.743 318.325C128.91 319.297 130.381 319.829 131.9 319.83H198.15C198.717 319.831 199.28 319.72 199.804 319.504C200.329 319.287 200.806 318.969 201.207 318.567C201.609 318.166 201.927 317.689 202.143 317.165C202.36 316.64 202.471 316.078 202.47 315.51C202.467 313.885 201.82 312.327 200.671 311.178C199.522 310.029 197.965 309.382 196.34 309.38H141.5C140.044 309.384 138.628 308.9 137.481 308.004C136.333 307.108 135.519 305.853 135.17 304.44Z"
            fill="white" />
        <path d="M175.779 184.25C175.779 184.25 186.719 187.51 181.609 195.6L176.859 188.68L175.779 184.25Z"
            fill="#263238" />
        <path d="M215.189 225.95L219.959 218.95L224.679 220.45L225.539 222.35L219.659 230.76L215.189 225.95Z"
            fill="#DBB178" />
        <path
            d="M222.259 227.78C217.479 235.28 209.939 246.22 207.059 245.57C198.599 243.68 186.969 235.67 180.999 226.87C180.098 225.542 179.728 223.925 179.964 222.337C180.199 220.75 181.022 219.309 182.269 218.3V218.24C182.92 217.708 183.67 217.311 184.475 217.069C185.279 216.828 186.124 216.747 186.96 216.833C187.796 216.918 188.607 217.168 189.346 217.567C190.086 217.966 190.739 218.508 191.269 219.16C191.379 219.29 191.479 219.43 191.579 219.57C196.869 227.16 203.579 234.36 204.679 234.97C205.969 235.71 209.319 232.54 216.409 223.58L222.259 227.78Z"
            fill="#407BFF" />
        <path opacity="0.6"
            d="M222.259 227.78C217.479 235.28 209.939 246.22 207.059 245.57C198.599 243.68 186.969 235.67 180.999 226.87C180.098 225.542 179.728 223.925 179.964 222.337C180.199 220.75 181.022 219.309 182.269 218.3V218.24C182.92 217.708 183.67 217.311 184.475 217.069C185.279 216.828 186.124 216.747 186.96 216.833C187.796 216.918 188.607 217.168 189.346 217.567C190.086 217.966 190.739 218.508 191.269 219.16C191.379 219.29 191.479 219.43 191.579 219.57C196.869 227.16 203.579 234.36 204.679 234.97C205.969 235.71 209.319 232.54 216.409 223.58L222.259 227.78Z"
            fill="white" />
        <path
            d="M222.369 221.73L231.819 223.58L227.419 215.66C227.419 215.66 221.699 215.66 219.959 218.95L222.369 221.73Z"
            fill="#DBB178" />
        <path opacity="0.2"
            d="M195 240.1C188.15 235.42 187.24 224.44 187.24 224.44L183.36 222.67L181.5 227.61C185.217 232.547 189.789 236.778 195 240.1Z"
            fill="black" />
        <path d="M238.5 220.19L234.46 213.75L227.43 215.66L231.82 223.58L238.5 220.19Z" fill="#DBB178" />
        <path
            d="M186.019 264.14L152.499 266.34C152.499 266.34 152.259 257.34 151.089 249.05C150.726 246.165 150.152 243.311 149.369 240.51C148.499 237.65 147.369 234.44 146.069 230.71C145.899 230.25 145.729 229.79 145.539 229.31C145.099 228.15 144.649 226.94 144.139 225.68V225.62C143.687 224.389 143.736 223.029 144.276 221.833C144.817 220.638 145.806 219.703 147.029 219.23C147.26 219.14 147.497 219.07 147.739 219.02C149.869 218.57 152.019 218.16 154.199 217.82L156.079 217.54C161.099 216.792 166.157 216.338 171.229 216.18C173.859 216.18 176.669 216.26 179.069 216.37L181.069 216.47C183.609 216.62 185.369 216.78 185.369 216.78C185.369 216.78 186.469 217 187.119 222.89C187.134 223.225 187.168 223.559 187.219 223.89C187.299 225.11 187.369 226.65 187.399 228.5C187.499 236.06 187.049 248.75 186.019 264.14Z"
            fill="#407BFF" />
        <path opacity="0.6"
            d="M186.019 264.14L152.499 266.34C152.499 266.34 152.259 257.34 151.089 249.05C150.726 246.165 150.152 243.311 149.369 240.51C148.499 237.65 147.369 234.44 146.069 230.71C145.899 230.25 145.729 229.79 145.539 229.31C145.099 228.15 144.649 226.94 144.139 225.68V225.62C143.687 224.389 143.736 223.029 144.276 221.833C144.817 220.638 145.806 219.703 147.029 219.23C147.26 219.14 147.497 219.07 147.739 219.02C149.869 218.57 152.019 218.16 154.199 217.82L156.079 217.54C161.099 216.792 166.157 216.338 171.229 216.18C173.859 216.18 176.669 216.26 179.069 216.37L181.069 216.47C183.609 216.62 185.369 216.78 185.369 216.78C185.369 216.78 186.469 217 187.119 222.89C187.134 223.225 187.168 223.559 187.219 223.89C187.299 225.11 187.369 226.65 187.399 228.5C187.499 236.06 187.049 248.75 186.019 264.14Z"
            fill="white" />
        <path
            d="M157.25 217.38L165.61 228.52L171.61 223.38L179.41 227.14L175.19 216.23C173.89 216.23 172.55 216.23 171.26 216.23C166.572 216.357 161.895 216.741 157.25 217.38Z"
            fill="#407BFF" />
        <path opacity="0.9"
            d="M157.25 217.38L165.61 228.52L171.61 223.38L179.41 227.14L175.19 216.23C173.89 216.23 172.55 216.23 171.26 216.23C166.572 216.357 161.895 216.741 157.25 217.38Z"
            fill="white" />
        <path d="M231.239 398.57H224.109L227.359 344.75H240.699L231.239 398.57Z" fill="#DBB178" />
        <path
            d="M223.319 397.89C223.239 397.21 231.749 396.57 231.749 396.57C231.749 396.57 237.669 401.13 242.869 401.57C248.069 402.01 245.679 405.46 240.049 406.24L226.119 408.24C222.119 408.83 224.139 405 223.319 397.89Z"
            fill="#263238" />
        <path
            d="M236.02 398.18C234.935 398.116 233.863 397.911 232.83 397.57C232.789 397.56 232.751 397.539 232.72 397.51C232.7 397.441 232.7 397.368 232.72 397.3C232.72 397.21 233.19 395.1 234.28 394.48C234.444 394.38 234.626 394.317 234.816 394.295C235.006 394.272 235.198 394.291 235.38 394.35C235.91 394.51 236.05 394.81 236.06 395.02C236.06 395.45 235.65 395.93 235.06 396.37C235.629 396.21 236.231 396.21 236.8 396.37C236.924 396.417 237.037 396.488 237.133 396.579C237.23 396.67 237.307 396.779 237.36 396.9C237.444 397.057 237.48 397.236 237.464 397.413C237.448 397.591 237.381 397.76 237.27 397.9C236.907 398.154 236.458 398.254 236.02 398.18ZM233.73 397.28C235.01 397.61 236.51 397.83 236.84 397.47C236.92 397.4 236.9 397.25 236.84 397.07C236.816 397.011 236.779 396.958 236.733 396.915C236.686 396.872 236.631 396.84 236.57 396.82C235.599 396.705 234.615 396.864 233.73 397.28ZM234.89 394.78C234.742 394.78 234.596 394.821 234.47 394.9C233.901 395.396 233.499 396.056 233.32 396.79C234.42 396.16 235.52 395.37 235.52 395.03C235.52 394.97 235.4 394.89 235.21 394.82C235.106 394.791 234.998 394.778 234.89 394.78Z"
            fill="#407BFF" />
        <path opacity="0.2" d="M226.789 354.16L238.979 354.53L240.699 344.75H227.359L226.789 354.16Z" fill="black" />
        <path d="M197.019 399.48L190.189 398.57L200.999 338.98L214.479 342.83L197.019 399.48Z" fill="#DBB178" />
        <path
            d="M189.3 397.62C189.3 396.92 197.82 397.62 197.82 397.62C197.82 397.62 202.99 403.01 208.06 404.22C213.13 405.43 210.26 408.5 204.58 408.42L190.5 408.25C186.43 408.21 189.03 404.8 189.3 397.62Z"
            fill="#263238" />
        <path
            d="M202.3 399.84C201.054 399.686 199.846 399.314 198.73 398.74L198.66 398.68C198.655 398.669 198.652 398.657 198.652 398.645C198.652 398.633 198.655 398.621 198.66 398.61C198.645 398.579 198.637 398.544 198.637 398.51C198.637 398.475 198.645 398.441 198.66 398.41C198.66 398.33 199.44 396.33 200.66 395.86C200.832 395.781 201.02 395.74 201.21 395.74C201.399 395.74 201.587 395.781 201.76 395.86C202.26 396.11 202.35 396.41 202.33 396.62C202.33 397.05 201.79 397.46 201.16 397.8C201.747 397.728 202.343 397.822 202.88 398.07C202.995 398.131 203.095 398.216 203.175 398.32C203.254 398.423 203.31 398.543 203.34 398.67C203.404 398.833 203.416 399.011 203.375 399.181C203.334 399.351 203.241 399.504 203.11 399.62C202.875 399.788 202.587 399.866 202.3 399.84ZM199.63 398.56C200.85 399.08 202.3 399.56 202.63 399.22C202.71 399.16 202.73 399.02 202.63 398.82C202.614 398.76 202.587 398.705 202.549 398.657C202.511 398.608 202.464 398.569 202.41 398.54C201.497 398.303 200.539 398.31 199.63 398.56ZM201.03 396.26C200.92 396.264 200.811 396.287 200.71 396.33C200.08 396.729 199.587 397.312 199.3 398C200.52 397.55 201.67 396.9 201.69 396.58C201.69 396.52 201.59 396.42 201.42 396.34C201.313 396.286 201.198 396.253 201.08 396.24L201.03 396.26Z"
            fill="#407BFF" />
        <path opacity="0.2" d="M214.479 342.83L200.999 338.98L198.869 350.73L211.349 352.98L214.479 342.83Z"
            fill="black" />
        <path
            d="M223.83 349.37L240.98 350.27C245.37 330.05 249.75 307.76 248.88 302.87C247.23 293.5 234.5 283.96 185.08 275.87L162.08 310.43C162.08 310.43 195.72 308.86 226.38 308.86C226.37 308.88 224.66 328.12 223.83 349.37Z"
            fill="#407BFF" />
        <path opacity="0.1"
            d="M223.83 349.37L240.98 350.27C245.37 330.05 249.75 307.76 248.88 302.87C247.23 293.5 234.5 283.96 185.08 275.87L162.08 310.43C162.08 310.43 195.72 308.86 226.38 308.86C226.37 308.88 224.66 328.12 223.83 349.37Z"
            fill="black" />
        <path d="M222.68 346.68L223.19 351.17L241.98 351.81L242.9 347.68L222.68 346.68Z" fill="#407BFF" />
        <path
            d="M174.129 216.21H171.229C167.069 216.34 162.919 216.68 158.789 217.21C160.589 219.36 166.199 222.71 169.959 222.71C175.209 222.67 174.039 218.77 174.129 216.21Z"
            fill="#DBB178" />
        <path
            d="M197.169 345.89L214.699 348.74C221.819 328.81 228.939 307.6 228.819 302.82C228.579 293.3 226.489 288.36 192.059 280.68C192.059 280.68 190.229 278.01 186.059 264.18L152.499 266.38C152.499 266.38 137.189 294.58 149.039 306.62C151.659 309.3 156.809 310.5 162.039 310.45C162.039 310.45 174.139 310.51 204.039 309.11C204.049 309.11 200.499 326.17 197.169 345.89Z"
            fill="#407BFF" />
        <path d="M196.469 342.83L216.779 346.26L214.849 350.53L196.379 347.5L196.469 342.83Z" fill="#407BFF" />
        <path opacity="0.1" d="M222.68 346.68L223.19 351.17L241.98 351.81L242.9 347.68L222.68 346.68Z" fill="black" />
        <path
            d="M171.59 213.32C171.204 215.789 171.306 218.31 171.89 220.74L162.7 219.39C162.502 219.361 162.314 219.286 162.149 219.172C161.985 219.058 161.849 218.908 161.752 218.732C161.655 218.557 161.6 218.362 161.591 218.162C161.582 217.962 161.619 217.763 161.7 217.58C162.96 214.72 163.46 208.96 163.77 206.31C163.94 204.71 164.01 203.25 164.02 202.23C164.03 201.21 164.02 200.83 164.02 200.83L168.13 202.71L174.84 205.78C173.293 208.067 172.191 210.625 171.59 213.32Z"
            fill="#DBB178" />
        <path opacity="0.2"
            d="M174.86 205.78C173.298 208.065 172.179 210.622 171.56 213.32C168.207 211.99 165.438 209.508 163.75 206.32C163.93 204.72 164 203.26 164.01 202.24C165.47 202.39 166.83 202.54 168.13 202.72L174.86 205.78Z"
            fill="black" />
        <path
            d="M175.351 199.22C175.081 202.29 176.651 204.77 178.851 204.77C181.051 204.77 183.061 202.29 183.331 199.22C183.601 196.15 182.031 193.66 179.831 193.66C177.631 193.66 175.621 196.15 175.351 199.22Z"
            fill="#407BFF" />
        <path opacity="0.5"
            d="M174.96 199.22C174.69 202.29 176.26 204.77 178.46 204.77C180.66 204.77 182.66 202.29 182.93 199.22C183.2 196.15 181.63 193.66 179.43 193.66C177.23 193.66 175.22 196.15 174.96 199.22Z"
            fill="black" />
        <path
            d="M159.57 193.82C161.21 201.34 161.78 205.82 166.22 209.25C167.651 210.387 169.367 211.109 171.18 211.34C172.994 211.57 174.835 211.298 176.505 210.555C178.175 209.812 179.61 208.625 180.652 207.124C181.695 205.623 182.306 203.864 182.42 202.04C183.01 195.04 180.23 183.91 172.31 181.78C170.608 181.272 168.801 181.221 167.073 181.632C165.345 182.043 163.755 182.902 162.464 184.122C161.173 185.342 160.226 186.881 159.717 188.583C159.209 190.285 159.159 192.092 159.57 193.82Z"
            fill="#DBB178" />
        <path
            d="M157.83 201.67C159.048 203.14 160.737 204.143 162.61 204.51C164.98 204.91 165.52 202.72 164.31 200.59C163.23 198.68 160.68 196.17 158.56 196.73C156.44 197.29 156.3 199.82 157.83 201.67Z"
            fill="#DBB178" />
        <path
            d="M171.439 194.56C171.539 195.18 171.939 195.64 172.349 195.56C172.759 195.48 172.999 194.97 172.909 194.36C172.819 193.75 172.409 193.28 171.999 193.36C171.589 193.44 171.349 193.94 171.439 194.56Z"
            fill="#263238" />
        <path
            d="M178.499 193.73C178.589 194.35 178.999 194.81 179.399 194.73C179.799 194.65 180.059 194.14 179.969 193.52C179.879 192.9 179.459 192.45 179.059 192.52C178.659 192.59 178.349 193.11 178.499 193.73Z"
            fill="#263238" />
        <path
            d="M176.27 194.3C177.304 196.102 178.572 197.759 180.04 199.23C179.657 199.582 179.201 199.845 178.705 200.001C178.209 200.156 177.685 200.2 177.17 200.13L176.27 194.3Z"
            fill="#C0854B" />
        <path
            d="M168.93 192.57C168.871 192.583 168.81 192.583 168.75 192.57C168.708 192.547 168.67 192.516 168.64 192.478C168.609 192.44 168.587 192.396 168.574 192.35C168.561 192.303 168.557 192.254 168.564 192.206C168.57 192.158 168.586 192.112 168.61 192.07C168.879 191.56 169.27 191.124 169.748 190.801C170.226 190.478 170.777 190.279 171.35 190.22C171.398 190.216 171.446 190.221 171.491 190.236C171.537 190.252 171.578 190.276 171.614 190.308C171.649 190.34 171.678 190.378 171.698 190.422C171.718 190.465 171.729 190.512 171.73 190.56C171.734 190.608 171.729 190.656 171.714 190.702C171.699 190.748 171.675 190.79 171.643 190.827C171.611 190.863 171.573 190.893 171.529 190.914C171.486 190.935 171.439 190.947 171.39 190.95C170.939 191.001 170.508 191.162 170.134 191.421C169.761 191.679 169.457 192.026 169.25 192.43C169.213 192.478 169.164 192.516 169.108 192.54C169.052 192.564 168.991 192.575 168.93 192.57Z"
            fill="#263238" />
        <path
            d="M181.09 191C181.03 191.002 180.971 190.988 180.918 190.96C180.865 190.932 180.821 190.891 180.79 190.84C180.536 190.445 180.195 190.113 179.792 189.87C179.39 189.627 178.938 189.48 178.47 189.44C178.383 189.426 178.305 189.381 178.248 189.314C178.191 189.247 178.16 189.163 178.16 189.075C178.16 188.987 178.191 188.903 178.248 188.836C178.305 188.769 178.383 188.724 178.47 188.71C179.057 188.749 179.627 188.925 180.134 189.223C180.641 189.522 181.071 189.935 181.39 190.43C181.444 190.51 181.465 190.608 181.449 190.703C181.432 190.799 181.378 190.884 181.3 190.94C181.236 190.978 181.164 190.999 181.09 191Z"
            fill="#263238" />
        <path
            d="M161.039 203.71C161.039 203.71 165.819 198.82 163.479 186.82C163.479 186.82 167.329 190.09 176.269 187.67C176.269 187.67 170.979 188.19 168.559 185.67C168.559 185.67 173.489 187.96 181.459 185.67C181.459 185.67 180.039 177.6 171.459 177.19C171.459 177.19 174.229 174.86 176.899 175.31C176.899 175.31 174.169 172.96 167.239 177.53L164.499 178.65C164.499 178.65 156.779 175.87 152.499 182.41C149.089 187.58 150.799 203.86 161.039 203.71Z"
            fill="#263238" />
        <path
            d="M178.57 201.5C178.57 201.5 176.15 200.89 169.33 200.74C170.09 202.81 171.54 204.52 175.04 204.56C175.476 204.608 175.918 204.566 176.337 204.436C176.756 204.305 177.143 204.09 177.475 203.802C177.806 203.515 178.075 203.162 178.263 202.766C178.452 202.37 178.556 201.939 178.57 201.5Z"
            fill="#263238" />
        <path
            d="M173.5 202.91C174.845 202.861 176.17 203.235 177.29 203.98C176.636 204.398 175.866 204.598 175.09 204.55C173.752 204.606 172.43 204.231 171.32 203.48C171.969 203.065 172.732 202.866 173.5 202.91Z"
            fill="#A02724" />
        <path
            d="M178.26 201.44C178.189 201.691 178.05 201.918 177.857 202.094C177.665 202.271 177.427 202.39 177.17 202.44C175.156 202.393 173.149 202.179 171.17 201.8C170.854 201.772 170.55 201.666 170.284 201.491C170.019 201.317 169.801 201.079 169.65 200.8C172.533 200.791 175.411 201.004 178.26 201.44Z"
            fill="white" />
        <path
            d="M157.33 196.41V188.34C157.329 185.952 158.1 183.627 159.527 181.711C160.954 179.796 162.961 178.393 165.25 177.71L167.95 177.23C165.603 177.93 163.545 179.369 162.082 181.333C160.619 183.297 159.829 185.681 159.83 188.13V196.41H157.33Z"
            fill="#407BFF" />
        <path
            d="M163.6 200.32C163.87 203.39 162.3 205.87 160.1 205.87C157.9 205.87 155.89 203.39 155.63 200.32C155.37 197.25 156.93 194.76 159.13 194.76C161.33 194.76 163.33 197.25 163.6 200.32Z"
            fill="#407BFF" />
        <path opacity="0.5"
            d="M163.6 200.32C163.87 203.39 162.3 205.87 160.1 205.87C157.9 205.87 155.89 203.39 155.63 200.32C155.37 197.25 156.93 194.76 159.13 194.76C161.33 194.76 163.33 197.25 163.6 200.32Z"
            fill="black" />
        <path
            d="M162.27 200.32C162.53 203.39 160.97 205.87 158.76 205.87C156.55 205.87 154.56 203.39 154.29 200.32C154.02 197.25 155.59 194.76 157.79 194.76C159.99 194.76 162 197.25 162.27 200.32Z"
            fill="#407BFF" />
        <path opacity="0.3"
            d="M159.499 201.13L159.319 199.51H159.629C159.229 197.92 158.109 196.73 156.879 196.73C155.649 196.73 154.749 197.92 154.619 199.51H154.829L155.009 201.13H154.769C155.169 202.72 156.289 203.9 157.509 203.9C158.729 203.9 159.649 202.72 159.769 201.13H159.499Z"
            fill="white" />
        <path d="M145.129 201L149.499 192.4L153.029 200.74C153.029 200.74 149.489 205.24 145.839 204.59L145.129 201Z"
            fill="#DBB178" />
        <path d="M156.29 189.23L158.86 196.38L153.02 200.74L149.5 192.4L156.29 189.23Z" fill="#DBB178" />
        <path d="M146.28 210.26L150.48 203.19L150.04 200.31L146.34 199L141.07 207.2L146.28 210.26Z" fill="#DBB178" />
        <path
            d="M149.311 205.86L141.641 222.74C141.641 222.74 145.37 219.39 147.43 218.91C150.71 218.14 160.611 221.13 150.581 232.02C150.581 232.02 130.721 244.43 126.671 239.62C123.521 235.88 136.901 213.15 143.031 203.19L149.311 205.86Z"
            fill="#407BFF" />
        <path opacity="0.6"
            d="M149.311 205.86L141.641 222.74C141.641 222.74 145.37 219.39 147.43 218.91C150.71 218.14 160.611 221.13 150.581 232.02C150.581 232.02 130.721 244.43 126.671 239.62C123.521 235.88 136.901 213.15 143.031 203.19L149.311 205.86Z"
            fill="white" />
        <path opacity="0.2" d="M141.64 222.74L139.5 229.33L145.78 219.67C144.315 220.574 142.93 221.601 141.64 222.74Z"
            fill="black" />
        <path
            d="M170.37 207.77C169.53 207.791 168.69 207.738 167.86 207.61C165.72 206.84 163.649 205.89 161.67 204.77L162.07 204.05C163.992 205.128 165.998 206.048 168.07 206.8C170.2 206.976 172.34 206.976 174.47 206.8L174.53 207.63C174.37 207.63 172.27 207.77 170.37 207.77Z"
            fill="#407BFF" />
        <path
            d="M171.27 207.94L175.27 207.64C175.27 207.64 175.16 206.4 173.27 206.45C171.38 206.5 171.27 207.94 171.27 207.94Z"
            fill="#407BFF" />
        <g opacity="0.5">
            <path
                d="M170.37 207.77C169.53 207.791 168.69 207.738 167.86 207.61C165.72 206.84 163.649 205.89 161.67 204.77L162.07 204.05C163.992 205.128 165.998 206.048 168.07 206.8C170.2 206.976 172.34 206.976 174.47 206.8L174.53 207.63C174.37 207.63 172.27 207.77 170.37 207.77Z"
                fill="black" />
            <path
                d="M171.27 207.94L175.27 207.64C175.27 207.64 175.16 206.4 173.27 206.45C171.38 206.5 171.27 207.94 171.27 207.94Z"
                fill="black" />
        </g>
        <path
            d="M330.56 408.54C330.35 408.548 330.14 408.515 329.943 408.441C329.746 408.368 329.565 408.257 329.411 408.114C329.257 407.971 329.132 407.799 329.045 407.608C328.957 407.417 328.908 407.21 328.9 407L318.9 291.22C318.883 290.221 318.492 289.265 317.806 288.54C317.119 287.815 316.186 287.372 315.19 287.3H267.95C266.954 287.372 266.021 287.815 265.334 288.54C264.648 289.265 264.257 290.221 264.24 291.22L254.24 407C254.239 407.214 254.195 407.426 254.11 407.623C254.025 407.82 253.902 407.998 253.747 408.147C253.592 408.295 253.409 408.411 253.208 408.487C253.008 408.563 252.794 408.598 252.58 408.59C252.148 408.503 251.766 408.253 251.513 407.891C251.26 407.53 251.155 407.086 251.22 406.65L261.22 290.86C261.57 286.81 264.46 283.76 267.95 283.76H315.19C318.68 283.76 321.57 286.81 321.92 290.86L331.92 406.65C331.985 407.086 331.88 407.53 331.627 407.891C331.374 408.253 330.992 408.503 330.56 408.59V408.54Z"
            fill="#407BFF" />
        <g opacity="0.4">
            <path
                d="M330.56 408.54C330.35 408.548 330.14 408.515 329.943 408.441C329.746 408.368 329.565 408.257 329.411 408.114C329.257 407.971 329.132 407.799 329.045 407.608C328.957 407.417 328.908 407.21 328.9 407L318.9 291.22C318.883 290.221 318.492 289.265 317.806 288.54C317.119 287.815 316.186 287.372 315.19 287.3H267.95C266.954 287.372 266.021 287.815 265.334 288.54C264.648 289.265 264.257 290.221 264.24 291.22L254.24 407C254.239 407.214 254.195 407.426 254.11 407.623C254.025 407.82 253.902 407.998 253.747 408.147C253.592 408.295 253.409 408.411 253.208 408.487C253.008 408.563 252.794 408.598 252.58 408.59C252.148 408.503 251.766 408.253 251.513 407.891C251.26 407.53 251.155 407.086 251.22 406.65L261.22 290.86C261.57 286.81 264.46 283.76 267.95 283.76H315.19C318.68 283.76 321.57 286.81 321.92 290.86L331.92 406.65C331.985 407.086 331.88 407.53 331.627 407.891C331.374 408.253 330.992 408.503 330.56 408.59V408.54Z"
                fill="black" />
        </g>
        <path
            d="M329.901 278.75H201.491C200.37 278.75 199.461 279.659 199.461 280.78V287.36C199.461 288.481 200.37 289.39 201.491 289.39H329.901C331.022 289.39 331.931 288.481 331.931 287.36V280.78C331.931 279.659 331.022 278.75 329.901 278.75Z"
            fill="#263238" />
        <path opacity="0.2"
            d="M273.801 278.75H329.901C330.431 278.75 330.94 278.961 331.315 279.336C331.69 279.711 331.901 280.22 331.901 280.75V287.33C331.901 287.86 331.69 288.369 331.315 288.744C330.94 289.119 330.431 289.33 329.901 289.33H273.801V278.75Z"
            fill="white" />
        <path
            d="M278.82 408.54C278.605 408.549 278.39 408.515 278.189 408.44C277.987 408.364 277.803 408.249 277.647 408.1C277.491 407.952 277.367 407.773 277.281 407.576C277.196 407.378 277.151 407.165 277.15 406.95L267.15 291.17C267.133 290.171 266.743 289.215 266.056 288.49C265.369 287.765 264.436 287.322 263.44 287.25H216.2C215.206 287.325 214.275 287.768 213.591 288.493C212.906 289.218 212.517 290.173 212.5 291.17L202.5 407C202.499 407.214 202.455 407.426 202.37 407.623C202.285 407.82 202.162 407.998 202.007 408.147C201.852 408.295 201.669 408.411 201.469 408.487C201.268 408.563 201.054 408.598 200.84 408.59C200.402 408.498 200.016 408.239 199.766 407.867C199.516 407.495 199.42 407.041 199.5 406.6L209.5 290.81C209.85 286.76 212.75 283.71 216.23 283.71H263.47C266.96 283.71 269.85 286.76 270.2 290.81L280.2 406.6C280.266 407.035 280.162 407.478 279.911 407.839C279.66 408.199 279.28 408.45 278.85 408.54H278.82Z"
            fill="#407BFF" />
        <g opacity="0.4">
            <path
                d="M278.82 408.54C278.605 408.549 278.39 408.515 278.189 408.44C277.987 408.364 277.803 408.249 277.647 408.1C277.491 407.952 277.367 407.773 277.281 407.576C277.196 407.378 277.151 407.165 277.15 406.95L267.15 291.17C267.133 290.171 266.743 289.215 266.056 288.49C265.369 287.765 264.436 287.322 263.44 287.25H216.2C215.206 287.325 214.275 287.768 213.591 288.493C212.906 289.218 212.517 290.173 212.5 291.17L202.5 407C202.499 407.214 202.455 407.426 202.37 407.623C202.285 407.82 202.162 407.998 202.007 408.147C201.852 408.295 201.669 408.411 201.469 408.487C201.268 408.563 201.054 408.598 200.84 408.59C200.402 408.498 200.016 408.239 199.766 407.867C199.516 407.495 199.42 407.041 199.5 406.6L209.5 290.81C209.85 286.76 212.75 283.71 216.23 283.71H263.47C266.96 283.71 269.85 286.76 270.2 290.81L280.2 406.6C280.266 407.035 280.162 407.478 279.911 407.839C279.66 408.199 279.28 408.45 278.85 408.54H278.82Z"
                fill="black" />
        </g>
        <path
            d="M241.83 273.51H278.89V277C278.89 277.464 278.706 277.909 278.378 278.237C278.049 278.566 277.604 278.75 277.14 278.75H243.58C243.116 278.75 242.671 278.566 242.343 278.237C242.014 277.909 241.83 277.464 241.83 277V273.53V273.51Z"
            fill="#263238" />
        <path opacity="0.2"
            d="M241.83 273.51H278.89V277C278.89 277.464 278.706 277.909 278.378 278.237C278.049 278.566 277.604 278.75 277.14 278.75H243.58C243.116 278.75 242.671 278.566 242.343 278.237C242.014 277.909 241.83 277.464 241.83 277V273.53V273.51Z"
            fill="white" />
        <path
            d="M215.621 273.51H252.681V277C252.681 277.464 252.497 277.909 252.169 278.237C251.84 278.566 251.395 278.75 250.931 278.75H217.371C216.907 278.75 216.462 278.566 216.134 278.237C215.805 277.909 215.621 277.464 215.621 277V273.53V273.51Z"
            fill="#263238" />
        <path opacity="0.6"
            d="M215.621 273.51H252.681V277C252.681 277.464 252.497 277.909 252.169 278.237C251.84 278.566 251.395 278.75 250.931 278.75H217.371C216.907 278.75 216.462 278.566 216.134 278.237C215.805 277.909 215.621 277.464 215.621 277V273.53V273.51Z"
            fill="white" />
        <path d="M248.391 275.5H244.951V276.74H248.391V275.5Z" fill="#263238" />
        <path d="M242.881 275.5H239.441V276.74H242.881V275.5Z" fill="#263238" />
        <path
            d="M281.501 278.75H283.271C283.755 278.74 284.22 278.56 284.586 278.242C284.951 277.924 285.194 277.488 285.271 277.01L291.271 240.12C291.318 239.827 291.302 239.528 291.224 239.241C291.146 238.955 291.007 238.689 290.818 238.461C290.628 238.233 290.392 238.048 290.125 237.918C289.859 237.789 289.567 237.718 289.271 237.71L260.501 237.66L252.721 278.66H254.491L281.501 278.75Z"
            fill="#263238" />
        <path opacity="0.6"
            d="M281.501 278.75H283.271C283.755 278.74 284.22 278.56 284.586 278.242C284.951 277.924 285.194 277.488 285.271 277.01L291.271 240.12C291.318 239.827 291.302 239.528 291.224 239.241C291.146 238.955 291.007 238.689 290.818 238.461C290.628 238.233 290.392 238.048 290.125 237.918C289.859 237.789 289.567 237.718 289.271 237.71L260.501 237.66L252.721 278.66H254.491L281.501 278.75Z"
            fill="white" />
        <path opacity="0.2"
            d="M253.172 276.08L252.672 278.7H254.442L281.442 278.75H283.212C283.696 278.74 284.162 278.56 284.527 278.242C284.892 277.924 285.135 277.488 285.212 277.01L285.352 276.14L253.172 276.08Z"
            fill="black" />
        <path
            d="M252.711 278.73H254.501C254.985 278.72 255.451 278.54 255.816 278.222C256.181 277.904 256.424 277.468 256.501 276.99L262.501 240.08C262.548 239.788 262.532 239.489 262.454 239.203C262.376 238.917 262.237 238.652 262.048 238.424C261.858 238.197 261.622 238.013 261.355 237.884C261.088 237.756 260.797 237.686 260.501 237.68L252.711 278.73Z"
            fill="#263238" />
        <path opacity="0.3"
            d="M252.711 278.73H254.501C254.985 278.72 255.451 278.54 255.816 278.222C256.181 277.904 256.424 277.468 256.501 276.99L262.501 240.08C262.548 239.788 262.532 239.489 262.454 239.203C262.376 238.917 262.237 238.652 262.048 238.424C261.858 238.197 261.622 238.013 261.355 237.884C261.088 237.756 260.797 237.686 260.501 237.68L252.711 278.73Z"
            fill="white" />
    </g>
    <defs>
        <clipPath id="clip0_2055_1549">
            <rect width="500" height="500" fill="white" transform="translate(0.5)" />
        </clipPath>
    </defs>
</svg>